KufamPro-Black.ufo
<glyph name="exclam" format="1">
  <advance width="364"/>
  <unicode hex="0021"/>
  <outline>
    <contour>
      <point x="92" y="280" type="curve" name="hr00"/>
      <point x="272" y="280" type="line"/>
      <point x="280" y="320"/>
      <point x="288" y="416"/>
      <point x="288" y="487" type="curve" smooth="yes"/>
      <point x="288" y="566" type="line" smooth="yes"/>
      <point x="288" y="624"/>
      <point x="288" y="672"/>
      <point x="296" y="708" type="curve"/>
      <point x="290" y="720" type="line"/>
      <point x="76" y="720" type="line"/>
      <point x="76" y="487" type="line" smooth="yes"/>
      <point x="76" y="416"/>
      <point x="84" y="320"/>
    </contour>
    <contour>
      <point x="182" y="-12" type="curve"/>
      <point x="248" y="-12"/>
      <point x="292" y="32"/>
      <point x="292" y="98" type="curve" smooth="yes"/>
      <point x="292" y="164"/>
      <point x="248" y="208"/>
      <point x="182" y="208" type="curve"/>
      <point x="116" y="208"/>
      <point x="72" y="164"/>
      <point x="72" y="98" type="curve" smooth="yes"/>
      <point x="72" y="32"/>
      <point x="116" y="-12"/>
    </contour>
  </outline>
</glyph>
<glyph name="quotedbl" format="1">
  <advance width="452"/>
  <unicode hex="0022"/>
  <outline>
    <contour>
      <point x="260" y="460" type="line" name="hr00"/>
      <point x="404" y="460" type="line"/>
      <point x="412" y="720" type="line"/>
      <point x="252" y="720" type="line"/>
    </contour>
    <contour>
      <point x="48" y="460" type="line"/>
      <point x="192" y="460" type="line"/>
      <point x="200" y="720" type="line"/>
      <point x="40" y="720" type="line"/>
    </contour>
  </outline>
</glyph>
<glyph name="numbersign" format="1">
  <advance width="616"/>
  <unicode hex="0023"/>
  <outline>
    <contour>
      <point x="56" y="424" type="line" name="hr00"/>
      <point x="142" y="424" type="line"/>
      <point x="118" y="296" type="line"/>
      <point x="32" y="296" type="line"/>
      <point x="32" y="180" type="line"/>
      <point x="97" y="180" type="line"/>
      <point x="64" y="0" type="line"/>
      <point x="192" y="0" type="line"/>
      <point x="225" y="180" type="line"/>
      <point x="325" y="180" type="line"/>
      <point x="292" y="0" type="line"/>
      <point x="420" y="0" type="line"/>
      <point x="453" y="180" type="line"/>
      <point x="560" y="180" type="line"/>
      <point x="560" y="296" type="line"/>
      <point x="474" y="296" type="line"/>
      <point x="498" y="424" type="line"/>
      <point x="584" y="424" type="line"/>
      <point x="584" y="540" type="line"/>
      <point x="519" y="540" type="line"/>
      <point x="552" y="720" type="line"/>
      <point x="424" y="720" type="line"/>
      <point x="391" y="540" type="line"/>
      <point x="291" y="540" type="line"/>
      <point x="324" y="720" type="line"/>
      <point x="196" y="720" type="line"/>
      <point x="163" y="540" type="line"/>
      <point x="56" y="540" type="line"/>
    </contour>
    <contour>
      <point x="270" y="424" type="line"/>
      <point x="370" y="424" type="line"/>
      <point x="346" y="296" type="line"/>
      <point x="246" y="296" type="line"/>
    </contour>
  </outline>
</glyph>
<glyph name="dollar" format="1">
  <advance width="616"/>
  <unicode hex="0024"/>
  <outline>
    <contour>
      <point x="64" y="22" type="line"/>
      <point x="99" y="5"/>
      <point x="160" y="-5"/>
      <point x="218" y="-10" type="curve"/>
      <point x="218" y="-158" type="line"/>
      <point x="390" y="-158" type="line"/>
      <point x="390" y="1" type="line"/>
      <point x="490" y="27"/>
      <point x="568" y="90"/>
      <point x="568" y="208" type="curve" smooth="yes" name="hr01"/>
      <point x="568" y="332"/>
      <point x="479" y="394"/>
      <point x="360" y="412" type="curve" smooth="yes"/>
      <point x="308" y="420" type="line" smooth="yes"/>
      <point x="260" y="427"/>
      <point x="240" y="460"/>
      <point x="240" y="492" type="curve" smooth="yes"/>
      <point x="240" y="540"/>
      <point x="274" y="572"/>
      <point x="352" y="572" type="curve" smooth="yes"/>
      <point x="420" y="572"/>
      <point x="480" y="552"/>
      <point x="516" y="536" type="curve"/>
      <point x="528" y="536" type="line"/>
      <point x="528" y="704" type="line"/>
      <point x="483" y="721"/>
      <point x="442" y="729"/>
      <point x="386" y="731" type="curve"/>
      <point x="386" y="860" type="line"/>
      <point x="214" y="860" type="line"/>
      <point x="214" y="714" type="line"/>
      <point x="88" y="678"/>
      <point x="40" y="590"/>
      <point x="40" y="484" type="curve" smooth="yes"/>
      <point x="40" y="356"/>
      <point x="104" y="279"/>
      <point x="264" y="256" type="curve" smooth="yes"/>
      <point x="320" y="248" type="line" smooth="yes"/>
      <point x="356" y="243"/>
      <point x="368" y="224"/>
      <point x="368" y="202" type="curve" smooth="yes"/>
      <point x="368" y="172"/>
      <point x="344" y="152"/>
      <point x="276" y="152" type="curve" smooth="yes"/>
      <point x="196" y="152"/>
      <point x="120" y="172"/>
      <point x="72" y="198" type="curve"/>
      <point x="64" y="198" type="line"/>
    </contour>
  </outline>
</glyph>
<glyph name="percent" format="1">
  <advance width="924"/>
  <unicode hex="0025"/>
  <outline>
    <contour>
      <point x="199" y="421" type="curve"/>
      <point x="170" y="421"/>
      <point x="167" y="472"/>
      <point x="167" y="520" type="curve"/>
      <point x="167" y="567"/>
      <point x="170" y="619"/>
      <point x="199" y="619" type="curve"/>
      <point x="228" y="619"/>
      <point x="231" y="567"/>
      <point x="231" y="520" type="curve" smooth="yes"/>
      <point x="231" y="472"/>
      <point x="228" y="421"/>
    </contour>
    <contour>
      <point x="199" y="312" type="curve"/>
      <point x="332" y="312"/>
      <point x="381" y="406"/>
      <point x="381" y="520" type="curve" smooth="yes"/>
      <point x="381" y="633"/>
      <point x="332" y="728"/>
      <point x="199" y="728" type="curve"/>
      <point x="66" y="728"/>
      <point x="17" y="633"/>
      <point x="17" y="520" type="curve"/>
      <point x="17" y="406"/>
      <point x="66" y="312"/>
    </contour>
    <contour>
      <point x="306" y="0" type="line"/>
      <point x="730" y="720" type="line" name="hr01"/>
      <point x="618" y="720" type="line"/>
      <point x="194" y="0" type="line"/>
    </contour>
    <contour>
      <point x="725" y="101" type="curve" name="hr02"/>
      <point x="696" y="101"/>
      <point x="693" y="152"/>
      <point x="693" y="200" type="curve"/>
      <point x="693" y="247"/>
      <point x="696" y="299"/>
      <point x="725" y="299" type="curve"/>
      <point x="754" y="299"/>
      <point x="757" y="247"/>
      <point x="757" y="200" type="curve" smooth="yes"/>
      <point x="757" y="152"/>
      <point x="754" y="101"/>
    </contour>
    <contour>
      <point x="725" y="-8" type="curve"/>
      <point x="858" y="-8"/>
      <point x="907" y="86"/>
      <point x="907" y="200" type="curve" smooth="yes"/>
      <point x="907" y="313"/>
      <point x="858" y="408"/>
      <point x="725" y="408" type="curve"/>
      <point x="592" y="408"/>
      <point x="543" y="313"/>
      <point x="543" y="200" type="curve"/>
      <point x="543" y="86"/>
      <point x="592" y="-8"/>
    </contour>
  </outline>
</glyph>
<glyph name="ampersand" format="1">
  <advance width="704"/>
  <unicode hex="0026"/>
  <outline>
    <contour>
      <point x="46" y="200" type="curve" smooth="yes" name="hr00"/>
      <point x="46" y="40"/>
      <point x="176" y="-12"/>
      <point x="356" y="-12" type="curve" smooth="yes"/>
      <point x="448" y="-12"/>
      <point x="548" y="8"/>
      <point x="604" y="28" type="curve"/>
      <point x="608" y="36" type="line"/>
      <point x="599" y="72"/>
      <point x="596" y="156"/>
      <point x="596" y="196" type="curve" smooth="yes"/>
      <point x="596" y="284" type="line"/>
      <point x="664" y="284" type="line"/>
      <point x="664" y="432" type="line"/>
      <point x="352" y="432" type="line" smooth="yes"/>
      <point x="292" y="432"/>
      <point x="244" y="444"/>
      <point x="244" y="496" type="curve" smooth="yes"/>
      <point x="244" y="540"/>
      <point x="284" y="564"/>
      <point x="372" y="564" type="curve" smooth="yes"/>
      <point x="452" y="564"/>
      <point x="524" y="544"/>
      <point x="568" y="524" type="curve"/>
      <point x="580" y="524" type="line"/>
      <point x="580" y="700" type="line"/>
      <point x="536" y="718"/>
      <point x="464" y="732"/>
      <point x="388" y="732" type="curve" smooth="yes"/>
      <point x="132" y="732"/>
      <point x="36" y="636"/>
      <point x="36" y="496" type="curve" smooth="yes"/>
      <point x="36" y="426"/>
      <point x="68" y="374"/>
      <point x="115" y="338" type="curve"/>
      <point x="72" y="308"/>
      <point x="46" y="263"/>
    </contour>
    <contour>
      <point x="348" y="144" type="curve" smooth="yes"/>
      <point x="296" y="144"/>
      <point x="248" y="160"/>
      <point x="248" y="216" type="curve" smooth="yes"/>
      <point x="248" y="261"/>
      <point x="276" y="282"/>
      <point x="334" y="284" type="curve"/>
      <point x="406" y="284" type="line"/>
      <point x="406" y="236" type="line" smooth="yes"/>
      <point x="406" y="199"/>
      <point x="408" y="171"/>
      <point x="413" y="151" type="curve"/>
      <point x="396" y="147"/>
      <point x="375" y="144"/>
    </contour>
  </outline>
</glyph>
<glyph name="quotesingle" format="1">
  <advance width="240"/>
  <unicode hex="0027"/>
  <outline>
    <contour>
      <point x="48" y="460" type="line" name="hr00"/>
      <point x="192" y="460" type="line"/>
      <point x="200" y="720" type="line"/>
      <point x="40" y="720" type="line"/>
    </contour>
  </outline>
</glyph>
<glyph name="parenright" format="1">
  <advance width="392"/>
  <unicode hex="0029"/>
  <outline>
    <contour>
      <point x="8" y="-88" type="line" name="hr00"/>
      <point x="216" y="-88" type="line"/>
      <point x="288" y="-4"/>
      <point x="348" y="156"/>
      <point x="348" y="336" type="curve" smooth="yes"/>
      <point x="348" y="516"/>
      <point x="288" y="676"/>
      <point x="216" y="760" type="curve"/>
      <point x="8" y="760" type="line"/>
      <point x="8" y="756" type="line"/>
      <point x="96" y="652"/>
      <point x="152" y="512"/>
      <point x="152" y="336" type="curve" smooth="yes"/>
      <point x="152" y="160"/>
      <point x="96" y="20"/>
      <point x="8" y="-84" type="curve"/>
    </contour>
  </outline>
</glyph>
<glyph name="asterisk" format="1">
  <advance width="544"/>
  <unicode hex="002A"/>
  <outline>
    <contour>
      <point x="106" y="311" type="line" name="hr00"/>
      <point x="216" y="390" type="line"/>
      <point x="202" y="256" type="line"/>
      <point x="342" y="256" type="line"/>
      <point x="328" y="391" type="line"/>
      <point x="438" y="311" type="line"/>
      <point x="508" y="433" type="line"/>
      <point x="384" y="488" type="line"/>
      <point x="508" y="543" type="line"/>
      <point x="438" y="665" type="line"/>
      <point x="328" y="585" type="line"/>
      <point x="342" y="720" type="line"/>
      <point x="202" y="720" type="line"/>
      <point x="216" y="585" type="line"/>
      <point x="106" y="665" type="line"/>
      <point x="36" y="543" type="line"/>
      <point x="159" y="488" type="line"/>
      <point x="36" y="433" type="line"/>
    </contour>
  </outline>
</glyph>
<glyph name="plus" format="1">
  <advance width="616"/>
  <unicode hex="002B"/>
  <outline>
    <contour>
      <point x="64" y="252" type="line" name="hr00"/>
      <point x="244" y="252" type="line"/>
      <point x="244" y="64" type="line"/>
      <point x="372" y="64" type="line"/>
      <point x="372" y="252" type="line"/>
      <point x="552" y="252" type="line"/>
      <point x="552" y="380" type="line"/>
      <point x="372" y="380" type="line"/>
      <point x="372" y="568" type="line"/>
      <point x="244" y="568" type="line"/>
      <point x="244" y="380" type="line"/>
      <point x="64" y="380" type="line"/>
    </contour>
  </outline>
</glyph>
<glyph name="comma" format="1">
  <advance width="284"/>
  <unicode hex="002C"/>
  <outline>
    <contour>
      <point x="93" y="6" type="curve" name="hr00"/>
      <point x="1" y="-153" type="line"/>
      <point x="1" y="-160" type="line"/>
      <point x="153" y="-160" type="line"/>
      <point x="207" y="-50" type="line" smooth="yes"/>
      <point x="224" y="-16"/>
      <point x="255" y="39"/>
      <point x="255" y="90" type="curve" smooth="yes"/>
      <point x="255" y="164"/>
      <point x="208" y="208"/>
      <point x="142" y="208" type="curve" smooth="yes"/>
      <point x="76" y="208"/>
      <point x="32" y="161"/>
      <point x="32" y="98" type="curve" smooth="yes"/>
      <point x="32" y="43"/>
      <point x="64" y="20"/>
    </contour>
  </outline>
</glyph>
<glyph name="zero" format="1">
  <advance width="616"/>
  <unicode hex="0030"/>
  <outline>
    <contour>
      <point x="308" y="-12" type="curve" smooth="yes" name="hr00"/>
      <point x="516" y="-12"/>
      <point x="596" y="152"/>
      <point x="596" y="360" type="curve" smooth="yes"/>
      <point x="596" y="568"/>
      <point x="516" y="732"/>
      <point x="308" y="732" type="curve" smooth="yes"/>
      <point x="100" y="732"/>
      <point x="20" y="568"/>
      <point x="20" y="360" type="curve" smooth="yes"/>
      <point x="20" y="152"/>
      <point x="100" y="-12"/>
    </contour>
    <contour>
      <point x="308" y="152" type="curve" smooth="yes"/>
      <point x="240" y="152"/>
      <point x="220" y="244"/>
      <point x="220" y="360" type="curve" smooth="yes"/>
      <point x="220" y="476"/>
      <point x="240" y="568"/>
      <point x="308" y="568" type="curve" smooth="yes"/>
      <point x="376" y="568"/>
      <point x="396" y="476"/>
      <point x="396" y="360" type="curve" smooth="yes"/>
      <point x="396" y="244"/>
      <point x="376" y="152"/>
    </contour>
  </outline>
</glyph>
<glyph name="one" format="1">
  <advance width="616"/>
  <unicode hex="0031"/>
  <outline>
    <contour>
      <point x="36" y="0" type="line" name="hr00"/>
      <point x="580" y="0" type="line"/>
      <point x="580" y="176" type="line"/>
      <point x="420" y="176" type="line"/>
      <point x="420" y="544" type="line" smooth="yes"/>
      <point x="420" y="584"/>
      <point x="420" y="668"/>
      <point x="428" y="704" type="curve"/>
      <point x="426" y="716" type="line"/>
      <point x="404" y="720"/>
      <point x="352" y="728"/>
      <point x="276" y="728" type="curve" smooth="yes"/>
      <point x="164" y="728"/>
      <point x="92" y="722"/>
      <point x="56" y="716" type="curve"/>
      <point x="56" y="552" type="line"/>
      <point x="214" y="552" type="line"/>
      <point x="210" y="536"/>
      <point x="208" y="492"/>
      <point x="208" y="468" type="curve" smooth="yes"/>
      <point x="208" y="176" type="line"/>
      <point x="36" y="176" type="line"/>
    </contour>
  </outline>
</glyph>
<glyph name="two" format="1">
  <advance width="616"/>
  <unicode hex="0032"/>
  <outline>
    <contour>
      <point x="48" y="0" type="curve" name="hr00"/>
      <point x="560" y="0" type="line"/>
      <point x="560" y="168" type="line"/>
      <point x="234" y="168" type="line"/>
      <point x="245" y="199"/>
      <point x="270" y="221"/>
      <point x="312" y="234" type="curve" smooth="yes"/>
      <point x="344" y="244" type="line" smooth="yes"/>
      <point x="490" y="290"/>
      <point x="556" y="360"/>
      <point x="556" y="484" type="curve" smooth="yes"/>
      <point x="556" y="620"/>
      <point x="468" y="732"/>
      <point x="264" y="732" type="curve" smooth="yes"/>
      <point x="188" y="732"/>
      <point x="108" y="716"/>
      <point x="68" y="696" type="curve"/>
      <point x="68" y="528" type="line"/>
      <point x="80" y="528" type="line"/>
      <point x="104" y="542"/>
      <point x="176" y="564"/>
      <point x="236" y="564" type="curve" smooth="yes"/>
      <point x="324" y="564"/>
      <point x="356" y="528"/>
      <point x="356" y="478" type="curve" smooth="yes"/>
      <point x="356" y="436"/>
      <point x="336" y="406"/>
      <point x="284" y="390" type="curve" smooth="yes"/>
      <point x="244" y="378" type="line" smooth="yes"/>
      <point x="92" y="332"/>
      <point x="32" y="232"/>
      <point x="32" y="108" type="curve" smooth="yes"/>
      <point x="32" y="72"/>
      <point x="36" y="24"/>
    </contour>
  </outline>
</glyph>
<glyph name="three" format="1">
  <advance width="616"/>
  <unicode hex="0033"/>
  <outline>
    <contour>
      <point x="56" y="556" type="line" name="hr00"/>
      <point x="286" y="556" type="line"/>
      <point x="140" y="372" type="line"/>
      <point x="172" y="300" type="line"/>
      <point x="268" y="300" type="line" smooth="yes"/>
      <point x="344" y="300"/>
      <point x="372" y="268"/>
      <point x="372" y="228" type="curve" smooth="yes"/>
      <point x="372" y="168"/>
      <point x="320" y="144"/>
      <point x="236" y="144" type="curve" smooth="yes"/>
      <point x="160" y="144"/>
      <point x="92" y="172"/>
      <point x="68" y="188" type="curve"/>
      <point x="56" y="188" type="line"/>
      <point x="56" y="20" type="line"/>
      <point x="92" y="4"/>
      <point x="162" y="-12"/>
      <point x="244" y="-12" type="curve" smooth="yes"/>
      <point x="468" y="-12"/>
      <point x="576" y="88"/>
      <point x="576" y="228" type="curve" smooth="yes"/>
      <point x="576" y="326"/>
      <point x="507" y="416"/>
      <point x="373" y="431" type="curve"/>
      <point x="512" y="584" type="line" smooth="yes"/>
      <point x="539" y="613"/>
      <point x="548" y="636"/>
      <point x="548" y="672" type="curve" smooth="yes"/>
      <point x="548" y="684"/>
      <point x="544" y="700"/>
      <point x="540" y="710" type="curve"/>
      <point x="528" y="720" type="line"/>
      <point x="56" y="720" type="line"/>
    </contour>
  </outline>
</glyph>
<glyph name="four" format="1">
  <advance width="616"/>
  <unicode hex="0034"/>
  <outline>
    <contour>
      <point x="24" y="148" type="line" name="hr00"/>
      <point x="342" y="148" type="line"/>
      <point x="342" y="0" type="line"/>
      <point x="540" y="0" type="line"/>
      <point x="540" y="148" type="line"/>
      <point x="608" y="148" type="line"/>
      <point x="608" y="316" type="line"/>
      <point x="540" y="316" type="line"/>
      <point x="540" y="544" type="line" smooth="yes"/>
      <point x="540" y="584"/>
      <point x="540" y="668"/>
      <point x="548" y="704" type="curve"/>
      <point x="546" y="716" type="line"/>
      <point x="516" y="722"/>
      <point x="468" y="728"/>
      <point x="428" y="728" type="curve" smooth="yes"/>
      <point x="248" y="728"/>
      <point x="121" y="688"/>
      <point x="68" y="472" type="curve" smooth="yes"/>
      <point x="24" y="292" type="line"/>
    </contour>
    <contour>
      <point x="252" y="460" type="line" smooth="yes"/>
      <point x="266" y="518"/>
      <point x="282" y="549"/>
      <point x="343" y="552" type="curve"/>
      <point x="342" y="537"/>
      <point x="342" y="521"/>
      <point x="342" y="504" type="curve" smooth="yes"/>
      <point x="342" y="316" type="line"/>
      <point x="217" y="316" type="line"/>
    </contour>
  </outline>
</glyph>
<glyph name="five" format="1">
  <advance width="616"/>
  <unicode hex="0035"/>
  <outline>
    <contour>
      <point x="48" y="24" type="line" name="hr00"/>
      <point x="84" y="8"/>
      <point x="154" y="-12"/>
      <point x="240" y="-12" type="curve" smooth="yes"/>
      <point x="464" y="-12"/>
      <point x="576" y="76"/>
      <point x="576" y="228" type="curve" smooth="yes"/>
      <point x="576" y="368"/>
      <point x="484" y="446"/>
      <point x="312" y="446" type="curve" smooth="yes"/>
      <point x="296" y="446"/>
      <point x="280" y="445"/>
      <point x="264" y="444" type="curve"/>
      <point x="264" y="488" type="line" smooth="yes"/>
      <point x="264" y="513"/>
      <point x="263" y="536"/>
      <point x="260" y="556" type="curve"/>
      <point x="540" y="556" type="line"/>
      <point x="540" y="720" type="line"/>
      <point x="208" y="720" type="line" smooth="yes"/>
      <point x="134" y="720"/>
      <point x="98" y="716"/>
      <point x="66" y="712" type="curve"/>
      <point x="64" y="700" type="line"/>
      <point x="72" y="664"/>
      <point x="72" y="576"/>
      <point x="72" y="536" type="curve" smooth="yes"/>
      <point x="72" y="292" type="line"/>
      <point x="80" y="288" type="line"/>
      <point x="116" y="296"/>
      <point x="160" y="304"/>
      <point x="232" y="304" type="curve" smooth="yes"/>
      <point x="340" y="304"/>
      <point x="372" y="276"/>
      <point x="372" y="232" type="curve" smooth="yes"/>
      <point x="372" y="180"/>
      <point x="324" y="152"/>
      <point x="228" y="152" type="curve" smooth="yes"/>
      <point x="152" y="152"/>
      <point x="84" y="176"/>
      <point x="60" y="192" type="curve"/>
      <point x="48" y="192" type="line"/>
    </contour>
  </outline>
</glyph>
<glyph name="six" format="1">
  <advance width="616"/>
  <unicode hex="0036"/>
  <outline>
    <contour>
      <point x="320" y="-12" type="curve" smooth="yes" name="hr00"/>
      <point x="476" y="-12"/>
      <point x="588" y="72"/>
      <point x="588" y="244" type="curve" smooth="yes"/>
      <point x="588" y="368"/>
      <point x="524" y="472"/>
      <point x="352" y="472" type="curve" smooth="yes"/>
      <point x="301" y="472"/>
      <point x="261" y="457"/>
      <point x="235" y="446" type="curve"/>
      <point x="251" y="516"/>
      <point x="296" y="568"/>
      <point x="424" y="568" type="curve" smooth="yes"/>
      <point x="464" y="568"/>
      <point x="496" y="560"/>
      <point x="516" y="552" type="curve"/>
      <point x="528" y="552" type="line"/>
      <point x="528" y="720" type="line"/>
      <point x="496" y="728"/>
      <point x="460" y="732"/>
      <point x="416" y="732" type="curve" smooth="yes"/>
      <point x="128" y="732"/>
      <point x="28" y="552"/>
      <point x="28" y="344" type="curve" smooth="yes"/>
      <point x="28" y="156"/>
      <point x="76" y="-12"/>
    </contour>
    <contour>
      <point x="320" y="144" type="curve" smooth="yes"/>
      <point x="247" y="144"/>
      <point x="231" y="198"/>
      <point x="228" y="300" type="curve"/>
      <point x="244" y="312"/>
      <point x="268" y="324"/>
      <point x="308" y="324" type="curve" smooth="yes"/>
      <point x="376" y="324"/>
      <point x="396" y="288"/>
      <point x="396" y="236" type="curve" smooth="yes"/>
      <point x="396" y="184"/>
      <point x="376" y="144"/>
    </contour>
  </outline>
</glyph>
<glyph name="seven" format="1">
  <advance width="616"/>
  <unicode hex="0037"/>
  <outline>
    <contour>
      <point x="56" y="548" type="line" name="hr00"/>
      <point x="376" y="548" type="line"/>
      <point x="112" y="12" type="line"/>
      <point x="112" y="0" type="line"/>
      <point x="336" y="0" type="line"/>
      <point x="556" y="556" type="line"/>
      <point x="572" y="592"/>
      <point x="584" y="628"/>
      <point x="584" y="666" type="curve" smooth="yes"/>
      <point x="584" y="678"/>
      <point x="582" y="696"/>
      <point x="580" y="710" type="curve"/>
      <point x="568" y="720" type="line"/>
      <point x="56" y="720" type="line"/>
    </contour>
  </outline>
</glyph>
<glyph name="eight" format="1">
  <advance width="616"/>
  <unicode hex="0038"/>
  <outline>
    <contour>
      <point x="24" y="188" type="curve" smooth="yes"/>
      <point x="24" y="68"/>
      <point x="108" y="-12"/>
      <point x="304" y="-12" type="curve" smooth="yes"/>
      <point x="488" y="-12"/>
      <point x="592" y="76"/>
      <point x="592" y="208" type="curve" smooth="yes"/>
      <point x="592" y="282"/>
      <point x="552" y="335"/>
      <point x="490" y="371" type="curve"/>
      <point x="546" y="409"/>
      <point x="580" y="464"/>
      <point x="580" y="532" type="curve" smooth="yes" name="hr01"/>
      <point x="580" y="656"/>
      <point x="480" y="732"/>
      <point x="320" y="732" type="curve" smooth="yes"/>
      <point x="120" y="732"/>
      <point x="40" y="632"/>
      <point x="40" y="512" type="curve" smooth="yes"/>
      <point x="40" y="443"/>
      <point x="69" y="389"/>
      <point x="121" y="352" type="curve"/>
      <point x="64" y="319"/>
      <point x="24" y="262"/>
    </contour>
    <contour>
      <point x="388" y="208" type="curve" smooth="yes"/>
      <point x="388" y="164"/>
      <point x="360" y="136"/>
      <point x="304" y="136" type="curve" smooth="yes"/>
      <point x="244" y="136"/>
      <point x="216" y="168"/>
      <point x="216" y="220" type="curve" smooth="yes"/>
      <point x="216" y="252"/>
      <point x="230" y="277"/>
      <point x="252" y="297" type="curve"/>
      <point x="325" y="276"/>
      <point x="388" y="266"/>
    </contour>
    <contour>
      <point x="236" y="516" type="curve" smooth="yes" name="hr03"/>
      <point x="236" y="556"/>
      <point x="264" y="584"/>
      <point x="312" y="584" type="curve" smooth="yes"/>
      <point x="370" y="584"/>
      <point x="392" y="552"/>
      <point x="392" y="512" type="curve" smooth="yes"/>
      <point x="392" y="481"/>
      <point x="377" y="447"/>
      <point x="350" y="424" type="curve"/>
      <point x="272" y="448"/>
      <point x="236" y="464"/>
    </contour>
  </outline>
</glyph>
<glyph name="nine" format="1">
  <advance width="616"/>
  <unicode hex="0039"/>
  <outline>
    <contour>
      <point x="88" y="0" type="line" name="hr00"/>
      <point x="120" y="-8"/>
      <point x="156" y="-12"/>
      <point x="200" y="-12" type="curve" smooth="yes"/>
      <point x="488" y="-12"/>
      <point x="588" y="168"/>
      <point x="588" y="376" type="curve" smooth="yes"/>
      <point x="588" y="564"/>
      <point x="540" y="732"/>
      <point x="296" y="732" type="curve" smooth="yes"/>
      <point x="140" y="732"/>
      <point x="28" y="648"/>
      <point x="28" y="476" type="curve" smooth="yes"/>
      <point x="28" y="352"/>
      <point x="92" y="248"/>
      <point x="264" y="248" type="curve" smooth="yes"/>
      <point x="315" y="248"/>
      <point x="354" y="262"/>
      <point x="380" y="274" type="curve"/>
      <point x="365" y="204"/>
      <point x="319" y="152"/>
      <point x="192" y="152" type="curve" smooth="yes"/>
      <point x="152" y="152"/>
      <point x="124" y="160"/>
      <point x="100" y="168" type="curve"/>
      <point x="88" y="168" type="line"/>
    </contour>
    <contour>
      <point x="296" y="576" type="curve" smooth="yes"/>
      <point x="369" y="576"/>
      <point x="384" y="521"/>
      <point x="387" y="419" type="curve"/>
      <point x="371" y="407"/>
      <point x="347" y="396"/>
      <point x="308" y="396" type="curve" smooth="yes"/>
      <point x="240" y="396"/>
      <point x="220" y="432"/>
      <point x="220" y="484" type="curve" smooth="yes"/>
      <point x="220" y="536"/>
      <point x="240" y="576"/>
    </contour>
  </outline>
</glyph>
<glyph name="colon" format="1">
  <advance width="284"/>
  <unicode hex="003A"/>
  <outline>
    <contour>
      <point x="142" y="-12" type="curve" name="hr00"/>
      <point x="208" y="-12"/>
      <point x="252" y="32"/>
      <point x="252" y="98" type="curve" smooth="yes"/>
      <point x="252" y="164"/>
      <point x="208" y="208"/>
      <point x="142" y="208" type="curve"/>
      <point x="76" y="208"/>
      <point x="32" y="164"/>
      <point x="32" y="98" type="curve" smooth="yes"/>
      <point x="32" y="32"/>
      <point x="76" y="-12"/>
    </contour>
    <contour>
      <point x="142" y="324" type="curve" smooth="yes"/>
      <point x="208" y="324"/>
      <point x="252" y="368"/>
      <point x="252" y="434" type="curve" smooth="yes"/>
      <point x="252" y="500"/>
      <point x="208" y="544"/>
      <point x="142" y="544" type="curve" smooth="yes"/>
      <point x="76" y="544"/>
      <point x="32" y="500"/>
      <point x="32" y="434" type="curve" smooth="yes"/>
      <point x="32" y="368"/>
      <point x="76" y="324"/>
    </contour>
  </outline>
</glyph>
<glyph name="less" format="1">
  <advance width="616"/>
  <unicode hex="003C"/>
  <outline>
    <contour>
      <point x="524" y="60" type="line" name="hr00"/>
      <point x="532" y="60" type="line"/>
      <point x="532" y="200" type="line"/>
      <point x="272" y="320" type="line"/>
      <point x="532" y="444" type="line"/>
      <point x="532" y="580" type="line"/>
      <point x="524" y="580" type="line"/>
      <point x="84" y="360" type="line"/>
      <point x="84" y="280" type="line"/>
    </contour>
  </outline>
</glyph>
<glyph name="equal" format="1">
  <advance width="616"/>
  <unicode hex="003D"/>
  <outline>
    <contour>
      <point x="64" y="364" type="line" name="hr00"/>
      <point x="552" y="364" type="line"/>
      <point x="552" y="492" type="line"/>
      <point x="64" y="492" type="line"/>
    </contour>
    <contour>
      <point x="64" y="140" type="line"/>
      <point x="552" y="140" type="line"/>
      <point x="552" y="268" type="line"/>
      <point x="64" y="268" type="line"/>
    </contour>
  </outline>
</glyph>
<glyph name="greater" format="1">
  <advance width="616"/>
  <unicode hex="003E"/>
  <outline>
    <contour>
      <point x="532" y="280" type="line" name="hr00"/>
      <point x="532" y="360" type="line"/>
      <point x="92" y="580" type="line"/>
      <point x="84" y="580" type="line"/>
      <point x="84" y="444" type="line"/>
      <point x="344" y="320" type="line"/>
      <point x="84" y="200" type="line"/>
      <point x="84" y="60" type="line"/>
      <point x="92" y="60" type="line"/>
    </contour>
  </outline>
</glyph>
<glyph name="question" format="1">
  <advance width="508"/>
  <unicode hex="003F"/>
  <outline>
    <contour>
      <point x="124" y="252" type="line"/>
      <point x="312" y="252" type="line"/>
      <point x="312" y="284" type="line" smooth="yes"/>
      <point x="312" y="320"/>
      <point x="317" y="339"/>
      <point x="348" y="360" type="curve" smooth="yes"/>
      <point x="372" y="376" type="line" smooth="yes"/>
      <point x="404" y="397"/>
      <point x="484" y="448"/>
      <point x="484" y="548" type="curve" smooth="yes" name="hr01"/>
      <point x="484" y="672"/>
      <point x="396" y="732"/>
      <point x="244" y="732" type="curve" smooth="yes"/>
      <point x="168" y="732"/>
      <point x="100" y="720"/>
      <point x="48" y="700" type="curve"/>
      <point x="48" y="540" type="line"/>
      <point x="60" y="540" type="line"/>
      <point x="96" y="560"/>
      <point x="152" y="576"/>
      <point x="196" y="576" type="curve" smooth="yes"/>
      <point x="256" y="576"/>
      <point x="280" y="560"/>
      <point x="280" y="524" type="curve" smooth="yes"/>
      <point x="280" y="492"/>
      <point x="257" y="474"/>
      <point x="218" y="448" type="curve" smooth="yes"/>
      <point x="188" y="428" type="line" smooth="yes"/>
      <point x="136" y="393"/>
      <point x="124" y="352"/>
      <point x="124" y="288" type="curve" smooth="yes" name="hr02"/>
    </contour>
    <contour>
      <point x="112" y="98" type="curve" smooth="yes" name="hr03"/>
      <point x="112" y="32"/>
      <point x="156" y="-12"/>
      <point x="222" y="-12" type="curve" smooth="yes"/>
      <point x="288" y="-12"/>
      <point x="332" y="32"/>
      <point x="332" y="98" type="curve" smooth="yes"/>
      <point x="332" y="164"/>
      <point x="288" y="208"/>
      <point x="222" y="208" type="curve" smooth="yes"/>
      <point x="156" y="208"/>
      <point x="112" y="164"/>
    </contour>
  </outline>
</glyph>
<glyph name="at" format="1">
  <advance width="986"/>
  <unicode hex="0040"/>
  <outline>
    <contour>
      <point x="336" y="360" type="line" name="hr00"/>
      <point x="344" y="360" type="line"/>
      <point x="368" y="368"/>
      <point x="404" y="380"/>
      <point x="452" y="380" type="curve" smooth="yes"/>
      <point x="516" y="380"/>
      <point x="543" y="360"/>
      <point x="544" y="311" type="curve"/>
      <point x="530" y="313"/>
      <point x="508" y="316"/>
      <point x="480" y="316" type="curve" smooth="yes"/>
      <point x="380" y="316"/>
      <point x="292" y="280"/>
      <point x="292" y="180" type="curve" smooth="yes"/>
      <point x="292" y="76"/>
      <point x="380" y="32"/>
      <point x="532" y="32" type="curve" smooth="yes"/>
      <point x="766" y="32"/>
      <point x="950" y="136"/>
      <point x="950" y="376" type="curve" smooth="yes"/>
      <point x="950" y="596"/>
      <point x="782" y="740"/>
      <point x="516" y="740" type="curve" smooth="yes"/>
      <point x="220" y="740"/>
      <point x="36" y="564"/>
      <point x="36" y="280" type="curve" smooth="yes"/>
      <point x="36" y="-12"/>
      <point x="220" y="-188"/>
      <point x="524" y="-188" type="curve" smooth="yes"/>
      <point x="588" y="-188"/>
      <point x="669" y="-176"/>
      <point x="708" y="-160" type="curve"/>
      <point x="708" y="-40" type="line"/>
      <point x="696" y="-40" type="line"/>
      <point x="660" y="-56"/>
      <point x="588" y="-68"/>
      <point x="524" y="-68" type="curve" smooth="yes"/>
      <point x="320" y="-68"/>
      <point x="168" y="36"/>
      <point x="168" y="280" type="curve" smooth="yes"/>
      <point x="168" y="520"/>
      <point x="307" y="620"/>
      <point x="516" y="620" type="curve" smooth="yes"/>
      <point x="695" y="620"/>
      <point x="824" y="536"/>
      <point x="824" y="376" type="curve" smooth="yes"/>
      <point x="824" y="266"/>
      <point x="779" y="206"/>
      <point x="712" y="175" type="curve"/>
      <point x="711" y="184"/>
      <point x="712" y="194"/>
      <point x="712" y="204" type="curve" smooth="yes"/>
      <point x="712" y="300" type="line" smooth="yes"/>
      <point x="712" y="460"/>
      <point x="622" y="504"/>
      <point x="480" y="504" type="curve" smooth="yes"/>
      <point x="420" y="504"/>
      <point x="376" y="496"/>
      <point x="336" y="484" type="curve"/>
    </contour>
    <contour>
      <point x="532" y="144" type="line" smooth="yes"/>
      <point x="480" y="144"/>
      <point x="452" y="152"/>
      <point x="452" y="184" type="curve" smooth="yes"/>
      <point x="452" y="214"/>
      <point x="475" y="224"/>
      <point x="512" y="224" type="curve" smooth="yes"/>
      <point x="528" y="224"/>
      <point x="537" y="222"/>
      <point x="544" y="221" type="curve"/>
      <point x="544" y="189"/>
      <point x="547" y="161"/>
      <point x="554" y="144" type="curve"/>
    </contour>
  </outline>
</glyph>
<glyph name="A" format="1">
  <advance width="736"/>
  <unicode hex="0041"/>
  <outline>
    <contour>
      <point x="456" y="0" type="line" name="hr00"/>
      <point x="668" y="0" type="line"/>
      <point x="668" y="536" type="line" smooth="yes"/>
      <point x="668" y="576"/>
      <point x="668" y="660"/>
      <point x="676" y="696" type="curve"/>
      <point x="674" y="708" type="line"/>
      <point x="620" y="720"/>
      <point x="540" y="728"/>
      <point x="480" y="728" type="curve" smooth="yes"/>
      <point x="288" y="728"/>
      <point x="147" y="697"/>
      <point x="108" y="468" type="curve" smooth="yes"/>
      <point x="28" y="0" type="line"/>
      <point x="240" y="0" type="line"/>
      <point x="268" y="168" type="line"/>
      <point x="456" y="168" type="line"/>
    </contour>
    <contour>
      <point x="316" y="460" type="line" smooth="yes"/>
      <point x="326" y="523"/>
      <point x="356" y="552"/>
      <point x="432" y="552" type="curve" smooth="yes"/>
      <point x="438" y="552"/>
      <point x="448" y="551"/>
      <point x="459" y="551" type="curve"/>
      <point x="457" y="532"/>
      <point x="456" y="511"/>
      <point x="456" y="488" type="curve" smooth="yes"/>
      <point x="456" y="336" type="line"/>
      <point x="295" y="336" type="line"/>
    </contour>
    <contour>
      <point x="416" y="720" type="move" name="top"/>
    </contour>
    <contour>
      <point x="560" y="0" type="move" name="bottom"/>
    </contour>
  </outline>
</glyph>
<glyph name="B" format="1">
  <advance width="704"/>
  <unicode hex="0042"/>
  <outline>
    <contour>
      <point x="68" y="0" type="line"/>
      <point x="408" y="0" type="line" smooth="yes"/>
      <point x="568" y="0"/>
      <point x="664" y="64"/>
      <point x="664" y="192" type="curve" smooth="yes"/>
      <point x="664" y="261"/>
      <point x="626" y="318"/>
      <point x="555" y="343" type="curve"/>
      <point x="619" y="384"/>
      <point x="652" y="450"/>
      <point x="652" y="516" type="curve" smooth="yes" name="hr01"/>
      <point x="652" y="648"/>
      <point x="564" y="720"/>
      <point x="382" y="720" type="curve" smooth="yes"/>
      <point x="68" y="720" type="line"/>
    </contour>
    <contour>
      <point x="364" y="548" type="line" smooth="yes"/>
      <point x="404" y="548"/>
      <point x="440" y="536"/>
      <point x="440" y="484" type="curve" smooth="yes"/>
      <point x="440" y="440"/>
      <point x="412" y="404"/>
      <point x="356" y="404" type="curve" smooth="yes"/>
      <point x="280" y="404" type="line"/>
      <point x="280" y="548" type="line"/>
    </contour>
    <contour>
      <point x="400" y="256" type="line" smooth="yes"/>
      <point x="432" y="256"/>
      <point x="452" y="240"/>
      <point x="452" y="212" type="curve" smooth="yes" name="hr02"/>
      <point x="452" y="180"/>
      <point x="432" y="164"/>
      <point x="400" y="164" type="curve" smooth="yes"/>
      <point x="280" y="164" type="line"/>
      <point x="280" y="256" type="line"/>
    </contour>
  </outline>
</glyph>
<glyph name="C" format="1">
  <advance width="648"/>
  <unicode hex="0043"/>
  <outline>
    <contour>
      <point x="36" y="360" type="curve" smooth="yes" name="hr00"/>
      <point x="36" y="132"/>
      <point x="172" y="-12"/>
      <point x="448" y="-12" type="curve" smooth="yes"/>
      <point x="516" y="-12"/>
      <point x="576" y="0"/>
      <point x="604" y="12" type="curve"/>
      <point x="604" y="190" type="line"/>
      <point x="592" y="190" type="line"/>
      <point x="564" y="176"/>
      <point x="516" y="164"/>
      <point x="464" y="164" type="curve" smooth="yes"/>
      <point x="308" y="164"/>
      <point x="252" y="248"/>
      <point x="252" y="360" type="curve" smooth="yes"/>
      <point x="252" y="472"/>
      <point x="308" y="556"/>
      <point x="464" y="556" type="curve" smooth="yes"/>
      <point x="516" y="556"/>
      <point x="564" y="544"/>
      <point x="592" y="530" type="curve"/>
      <point x="604" y="530" type="line"/>
      <point x="604" y="708" type="line"/>
      <point x="576" y="720"/>
      <point x="516" y="732"/>
      <point x="448" y="732" type="curve" smooth="yes"/>
      <point x="172" y="732"/>
      <point x="36" y="588"/>
    </contour>
    <contour>
      <point x="392" y="720" type="move" name="top"/>
    </contour>
    <contour>
      <point x="388" y="0" type="move" name="bottom"/>
    </contour>
  </outline>
</glyph>
<glyph name="D" format="1">
  <advance width="780"/>
  <unicode hex="0044"/>
  <outline>
    <contour>
      <point x="68" y="0" type="line" name="hr00"/>
      <point x="328" y="0" type="line" smooth="yes"/>
      <point x="620" y="0"/>
      <point x="744" y="176"/>
      <point x="744" y="392" type="curve" smooth="yes"/>
      <point x="744" y="600"/>
      <point x="616" y="720"/>
      <point x="360" y="720" type="curve" smooth="yes"/>
      <point x="68" y="720" type="line"/>
    </contour>
    <contour>
      <point x="360" y="536" type="line" smooth="yes"/>
      <point x="484" y="536"/>
      <point x="528" y="480"/>
      <point x="528" y="388" type="curve" smooth="yes"/>
      <point x="528" y="264"/>
      <point x="464" y="184"/>
      <point x="340" y="184" type="curve" smooth="yes"/>
      <point x="280" y="184" type="line"/>
      <point x="280" y="536" type="line"/>
    </contour>
    <contour>
      <point x="372" y="720" type="move" name="top"/>
    </contour>
    <contour>
      <point x="376" y="-4" type="move" name="bottom"/>
    </contour>
  </outline>
</glyph>
<glyph name="E" format="1">
  <advance width="612"/>
  <unicode hex="0045"/>
  <outline>
    <contour>
      <point x="68" y="0" type="line" name="hr00"/>
      <point x="564" y="0" type="line"/>
      <point x="564" y="184" type="line"/>
      <point x="280" y="184" type="line"/>
      <point x="280" y="268" type="line"/>
      <point x="508" y="268" type="line"/>
      <point x="508" y="440" type="line"/>
      <point x="280" y="440" type="line"/>
      <point x="280" y="536" type="line"/>
      <point x="556" y="536" type="line"/>
      <point x="556" y="720" type="line"/>
      <point x="68" y="720" type="line"/>
    </contour>
    <contour>
      <point x="316" y="720" type="move" name="top"/>
    </contour>
    <contour>
      <point x="396" y="0" type="move" name="bottom"/>
    </contour>
  </outline>
</glyph>
<glyph name="F" format="1">
  <advance width="588"/>
  <unicode hex="0046"/>
  <outline>
    <contour>
      <point x="68" y="0" type="line" name="hr00"/>
      <point x="280" y="0" type="line"/>
      <point x="280" y="216" type="line"/>
      <point x="508" y="216" type="line"/>
      <point x="508" y="388" type="line"/>
      <point x="280" y="388" type="line"/>
      <point x="280" y="536" type="line"/>
      <point x="556" y="536" type="line"/>
      <point x="556" y="720" type="line"/>
      <point x="68" y="720" type="line"/>
    </contour>
  </outline>
</glyph>
<glyph name="G" format="1">
  <advance width="728"/>
  <unicode hex="0047"/>
  <outline>
    <contour>
      <point x="36" y="356" type="curve" smooth="yes" name="hr00"/>
      <point x="36" y="136"/>
      <point x="168" y="-12"/>
      <point x="428" y="-12" type="curve" smooth="yes"/>
      <point x="526" y="-12"/>
      <point x="608" y="4"/>
      <point x="664" y="28" type="curve"/>
      <point x="664" y="370" type="line"/>
      <point x="472" y="370" type="line"/>
      <point x="472" y="164" type="line"/>
      <point x="461" y="161"/>
      <point x="448" y="160"/>
      <point x="432" y="160" type="curve" smooth="yes"/>
      <point x="322" y="160"/>
      <point x="252" y="240"/>
      <point x="252" y="352" type="curve" smooth="yes"/>
      <point x="252" y="480"/>
      <point x="320" y="556"/>
      <point x="476" y="556" type="curve" smooth="yes"/>
      <point x="534" y="556"/>
      <point x="592" y="544"/>
      <point x="620" y="530" type="curve"/>
      <point x="632" y="530" type="line"/>
      <point x="632" y="708" type="line"/>
      <point x="604" y="720"/>
      <point x="540" y="732"/>
      <point x="466" y="732" type="curve" smooth="yes"/>
      <point x="184" y="732"/>
      <point x="36" y="576"/>
    </contour>
    <contour>
      <point x="400" y="720" type="move" name="top"/>
    </contour>
    <contour>
      <point x="372" y="0" type="move" name="bottom"/>
    </contour>
  </outline>
</glyph>
<glyph name="H" format="1">
  <advance width="784"/>
  <unicode hex="0048"/>
  <outline>
    <contour>
      <point x="68" y="0" type="line" name="hr00"/>
      <point x="280" y="0" type="line"/>
      <point x="280" y="264" type="line"/>
      <point x="504" y="264" type="line"/>
      <point x="504" y="0" type="line"/>
      <point x="716" y="0" type="line"/>
      <point x="716" y="720" type="line"/>
      <point x="504" y="720" type="line"/>
      <point x="504" y="448" type="line"/>
      <point x="280" y="448" type="line"/>
      <point x="280" y="720" type="line"/>
      <point x="68" y="720" type="line"/>
    </contour>
    <contour>
      <point x="392" y="720" type="move" name="top"/>
    </contour>
    <contour>
      <point x="392" y="0" type="move" name="bottom"/>
    </contour>
  </outline>
</glyph>
<glyph name="I" format="1">
  <advance width="348"/>
  <unicode hex="0049"/>
  <outline>
    <contour>
      <point x="68" y="0" type="line" name="hr00"/>
      <point x="280" y="0" type="line"/>
      <point x="280" y="720" type="line"/>
      <point x="68" y="720" type="line"/>
    </contour>
    <contour>
      <point x="174" y="720" type="move" name="top"/>
    </contour>
    <contour>
      <point x="174" y="0" type="move" name="bottom"/>
    </contour>
  </outline>
</glyph>
<glyph name="J" format="1">
  <advance width="484"/>
  <unicode hex="004A"/>
  <outline>
    <contour>
      <point x="24" y="0" type="line" name="hr00"/>
      <point x="52" y="-8"/>
      <point x="96" y="-12"/>
      <point x="136" y="-12" type="curve" smooth="yes"/>
      <point x="292" y="-12"/>
      <point x="420" y="56"/>
      <point x="420" y="244" type="curve" smooth="yes"/>
      <point x="420" y="720" type="line"/>
      <point x="208" y="720" type="line"/>
      <point x="208" y="260" type="line" smooth="yes"/>
      <point x="208" y="188"/>
      <point x="172" y="160"/>
      <point x="100" y="160" type="curve" smooth="yes"/>
      <point x="72" y="160"/>
      <point x="56" y="164"/>
      <point x="36" y="172" type="curve"/>
      <point x="24" y="172" type="line"/>
    </contour>
    <contour>
      <point x="316" y="720" type="move" name="top"/>
    </contour>
  </outline>
</glyph>
<glyph name="K" format="1">
  <advance width="724"/>
  <unicode hex="004B"/>
  <outline>
    <contour>
      <point x="68" y="0" type="line" name="hr00"/>
      <point x="280" y="0" type="line"/>
      <point x="280" y="232" type="line"/>
      <point x="312" y="232" type="line" smooth="yes"/>
      <point x="322" y="232"/>
      <point x="332" y="232"/>
      <point x="342" y="233" type="curve"/>
      <point x="480" y="0" type="line"/>
      <point x="704" y="0" type="line"/>
      <point x="704" y="12" type="line"/>
      <point x="518" y="304" type="line"/>
      <point x="564" y="346"/>
      <point x="588" y="398"/>
      <point x="600" y="436" type="curve" smooth="yes"/>
      <point x="688" y="708" type="line"/>
      <point x="688" y="720" type="line"/>
      <point x="480" y="720" type="line"/>
      <point x="412" y="488" type="line" smooth="yes"/>
      <point x="397" y="436"/>
      <point x="364" y="412"/>
      <point x="300" y="412" type="curve" smooth="yes"/>
      <point x="280" y="412" type="line"/>
      <point x="280" y="720" type="line"/>
      <point x="68" y="720" type="line"/>
    </contour>
    <contour>
      <point x="372" y="0" type="move" name="bottom"/>
    </contour>
  </outline>
</glyph>
<glyph name="L" format="1">
  <advance width="572"/>
  <unicode hex="004C"/>
  <outline>
    <contour>
      <point x="68" y="0" type="line" name="hr00"/>
      <point x="540" y="0" type="line"/>
      <point x="540" y="184" type="line"/>
      <point x="280" y="184" type="line"/>
      <point x="280" y="720" type="line"/>
      <point x="68" y="720" type="line"/>
    </contour>
    <contour>
      <point x="176" y="720" type="move" name="top"/>
    </contour>
    <contour>
      <point x="296" y="0" type="move" name="bottom"/>
    </contour>
  </outline>
</glyph>
<glyph name="M" format="1">
  <advance width="896"/>
  <unicode hex="004D"/>
  <outline>
    <contour>
      <point x="68" y="0" type="line" name="hr00"/>
      <point x="280" y="0" type="line"/>
      <point x="280" y="332" type="line"/>
      <point x="404" y="124" type="line"/>
      <point x="492" y="124" type="line"/>
      <point x="616" y="337" type="line"/>
      <point x="616" y="0" type="line"/>
      <point x="828" y="0" type="line"/>
      <point x="828" y="720" type="line"/>
      <point x="648" y="720" type="line"/>
      <point x="450" y="379" type="line"/>
      <point x="248" y="720" type="line"/>
      <point x="68" y="720" type="line"/>
    </contour>
  </outline>
</glyph>
<glyph name="N" format="1">
  <advance width="788"/>
  <unicode hex="004E"/>
  <outline>
    <contour>
      <point x="68" y="0" type="line" name="hr00"/>
      <point x="280" y="0" type="line"/>
      <point x="280" y="401" type="line"/>
      <point x="508" y="175" type="line"/>
      <point x="508" y="0" type="line"/>
      <point x="720" y="0" type="line"/>
      <point x="720" y="720" type="line"/>
      <point x="508" y="720" type="line"/>
      <point x="508" y="451" type="line"/>
      <point x="236" y="720" type="line"/>
      <point x="68" y="720" type="line"/>
    </contour>
    <contour>
      <point x="394" y="720" type="move" name="top"/>
    </contour>
    <contour>
      <point x="394" y="0" type="move" name="bottom"/>
    </contour>
  </outline>
</glyph>
<glyph name="O" format="1">
  <advance width="832"/>
  <unicode hex="004F"/>
  <outline>
    <contour>
      <point x="36" y="360" type="curve" smooth="yes" name="hr00"/>
      <point x="36" y="136"/>
      <point x="172" y="-12"/>
      <point x="416" y="-12" type="curve" smooth="yes"/>
      <point x="660" y="-12"/>
      <point x="796" y="140"/>
      <point x="796" y="360" type="curve" smooth="yes"/>
      <point x="796" y="580"/>
      <point x="660" y="732"/>
      <point x="416" y="732" type="curve" smooth="yes"/>
      <point x="172" y="732"/>
      <point x="36" y="580"/>
    </contour>
    <contour>
      <point x="252" y="360" type="curve" smooth="yes"/>
      <point x="252" y="468"/>
      <point x="300" y="556"/>
      <point x="416" y="556" type="curve" smooth="yes"/>
      <point x="532" y="556"/>
      <point x="580" y="468"/>
      <point x="580" y="360" type="curve" smooth="yes"/>
      <point x="580" y="252"/>
      <point x="532" y="164"/>
      <point x="416" y="164" type="curve" smooth="yes"/>
      <point x="300" y="164"/>
      <point x="252" y="252"/>
    </contour>
    <contour>
      <point x="416" y="720" type="move" name="top"/>
    </contour>
  </outline>
</glyph>
<glyph name="P" format="1">
  <advance width="712"/>
  <unicode hex="0050"/>
  <outline>
    <contour>
      <point x="68" y="0" type="line" name="hr00"/>
      <point x="280" y="0" type="line"/>
      <point x="280" y="160" type="line"/>
      <point x="356" y="160" type="line" smooth="yes"/>
      <point x="564" y="160"/>
      <point x="680" y="284"/>
      <point x="680" y="464" type="curve" smooth="yes"/>
      <point x="680" y="620"/>
      <point x="580" y="720"/>
      <point x="372" y="720" type="curve" smooth="yes"/>
      <point x="68" y="720" type="line"/>
    </contour>
    <contour>
      <point x="376" y="544" type="line" smooth="yes"/>
      <point x="432" y="544"/>
      <point x="472" y="516"/>
      <point x="472" y="456" type="curve" smooth="yes"/>
      <point x="472" y="388"/>
      <point x="440" y="328"/>
      <point x="348" y="328" type="curve" smooth="yes"/>
      <point x="280" y="328" type="line"/>
      <point x="280" y="544" type="line"/>
    </contour>
  </outline>
</glyph>
<glyph name="Q" format="1">
  <advance width="832"/>
  <unicode hex="0051"/>
  <outline>
    <contour>
      <point x="36" y="360" type="curve" smooth="yes" name="hr00"/>
      <point x="36" y="139"/>
      <point x="168" y="-7"/>
      <point x="405" y="-11" type="curve"/>
      <point x="560" y="-160" type="line"/>
      <point x="798" y="-160" type="line"/>
      <point x="798" y="-148" type="line"/>
      <point x="613" y="31" type="line"/>
      <point x="732" y="91"/>
      <point x="796" y="209"/>
      <point x="796" y="360" type="curve" smooth="yes"/>
      <point x="796" y="580"/>
      <point x="660" y="732"/>
      <point x="416" y="732" type="curve" smooth="yes"/>
      <point x="172" y="732"/>
      <point x="36" y="580"/>
    </contour>
    <contour>
      <point x="252" y="360" type="curve" smooth="yes"/>
      <point x="252" y="468"/>
      <point x="300" y="556"/>
      <point x="416" y="556" type="curve" smooth="yes"/>
      <point x="532" y="556"/>
      <point x="580" y="468"/>
      <point x="580" y="360" type="curve" smooth="yes"/>
      <point x="580" y="252"/>
      <point x="532" y="164"/>
      <point x="416" y="164" type="curve" smooth="yes"/>
      <point x="300" y="164"/>
      <point x="252" y="252"/>
    </contour>
  </outline>
</glyph>
<glyph name="R" format="1">
  <advance width="744"/>
  <unicode hex="0052"/>
  <outline>
    <contour>
      <point x="68" y="0" type="line" name="hr00"/>
      <point x="280" y="0" type="line"/>
      <point x="280" y="152" type="line"/>
      <point x="340" y="152" type="line" smooth="yes"/>
      <point x="351" y="152"/>
      <point x="362" y="152"/>
      <point x="373" y="153" type="curve"/>
      <point x="472" y="0" type="line"/>
      <point x="704" y="0" type="line"/>
      <point x="704" y="12" type="line"/>
      <point x="557" y="208" type="line"/>
      <point x="642" y="262"/>
      <point x="692" y="350"/>
      <point x="692" y="460" type="curve" smooth="yes"/>
      <point x="692" y="616"/>
      <point x="593" y="720"/>
      <point x="376" y="720" type="curve" smooth="yes"/>
      <point x="68" y="720" type="line"/>
    </contour>
    <contour>
      <point x="376" y="544" type="line" smooth="yes"/>
      <point x="438" y="544"/>
      <point x="480" y="516"/>
      <point x="480" y="452" type="curve" smooth="yes"/>
      <point x="480" y="384"/>
      <point x="444" y="320"/>
      <point x="348" y="320" type="curve" smooth="yes"/>
      <point x="280" y="320" type="line"/>
      <point x="280" y="544" type="line"/>
    </contour>
    <contour>
      <point x="364" y="720" type="move" name="top"/>
    </contour>
    <contour>
      <point x="372" y="0" type="move" name="bottom"/>
    </contour>
  </outline>
</glyph>
<glyph name="S" format="1">
  <advance width="648"/>
  <unicode hex="0053"/>
  <outline>
    <contour>
      <point x="52" y="28" type="line" name="hr00"/>
      <point x="100" y="8"/>
      <point x="200" y="-12"/>
      <point x="292" y="-12" type="curve" smooth="yes"/>
      <point x="468" y="-12"/>
      <point x="620" y="40"/>
      <point x="620" y="204" type="curve" smooth="yes"/>
      <point x="620" y="348"/>
      <point x="512" y="399"/>
      <point x="388" y="418" type="curve" smooth="yes"/>
      <point x="336" y="426" type="line" smooth="yes"/>
      <point x="259" y="438"/>
      <point x="232" y="452"/>
      <point x="232" y="492" type="curve" smooth="yes"/>
      <point x="232" y="540"/>
      <point x="272" y="564"/>
      <point x="368" y="564" type="curve" smooth="yes"/>
      <point x="448" y="564"/>
      <point x="520" y="544"/>
      <point x="564" y="524" type="curve"/>
      <point x="576" y="524" type="line"/>
      <point x="576" y="700" type="line"/>
      <point x="532" y="718"/>
      <point x="460" y="732"/>
      <point x="384" y="732" type="curve" smooth="yes"/>
      <point x="128" y="732"/>
      <point x="28" y="632"/>
      <point x="28" y="480" type="curve" smooth="yes"/>
      <point x="28" y="356"/>
      <point x="106" y="282"/>
      <point x="276" y="258" type="curve" smooth="yes"/>
      <point x="332" y="250" type="line" smooth="yes"/>
      <point x="396" y="241"/>
      <point x="412" y="228"/>
      <point x="412" y="200" type="curve" smooth="yes"/>
      <point x="412" y="168"/>
      <point x="376" y="156"/>
      <point x="292" y="156" type="curve" smooth="yes"/>
      <point x="207" y="156"/>
      <point x="114" y="186"/>
      <point x="64" y="212" type="curve"/>
      <point x="52" y="212" type="line"/>
    </contour>
    <contour>
      <point x="340" y="720" type="move" name="top"/>
    </contour>
    <contour>
      <point x="296" y="0" type="move" name="bottom"/>
    </contour>
  </outline>
</glyph>
<glyph name="T" format="1">
  <advance width="656"/>
  <unicode hex="0054"/>
  <outline>
    <contour>
      <point x="20" y="536" type="line" name="hr00"/>
      <point x="224" y="536" type="line"/>
      <point x="224" y="0" type="line"/>
      <point x="436" y="0" type="line"/>
      <point x="436" y="536" type="line"/>
      <point x="636" y="536" type="line"/>
      <point x="636" y="720" type="line"/>
      <point x="20" y="720" type="line"/>
    </contour>
    <contour>
      <point x="328" y="720" type="move" name="top"/>
    </contour>
    <contour>
      <point x="328" y="0" type="move" name="bottom"/>
    </contour>
  </outline>
</glyph>
<glyph name="U" format="1">
  <advance width="772"/>
  <unicode hex="0055"/>
  <outline>
    <contour>
      <point x="64" y="312" type="line" smooth="yes" name="hr00"/>
      <point x="64" y="100"/>
      <point x="156" y="-12"/>
      <point x="384" y="-12" type="curve" smooth="yes"/>
      <point x="608" y="-12"/>
      <point x="708" y="100"/>
      <point x="708" y="312" type="curve" smooth="yes"/>
      <point x="708" y="720" type="line"/>
      <point x="496" y="720" type="line"/>
      <point x="496" y="300" type="line" smooth="yes"/>
      <point x="496" y="216"/>
      <point x="468" y="164"/>
      <point x="384" y="164" type="curve" smooth="yes"/>
      <point x="300" y="164"/>
      <point x="276" y="216"/>
      <point x="276" y="300" type="curve" smooth="yes"/>
      <point x="276" y="720" type="line"/>
      <point x="64" y="720" type="line"/>
    </contour>
    <contour>
      <point x="386" y="720" type="move" name="top"/>
    </contour>
    <contour>
      <point x="386" y="0" type="move" name="bottom"/>
    </contour>
  </outline>
</glyph>
<glyph name="V" format="1">
  <advance width="708"/>
  <unicode hex="0056"/>
  <outline>
    <contour>
      <point x="56" y="24" type="curve" name="hr00"/>
      <point x="60" y="12" type="line"/>
      <point x="115" y="0"/>
      <point x="177" y="-8"/>
      <point x="236" y="-8" type="curve" smooth="yes"/>
      <point x="432" y="-8"/>
      <point x="567" y="23"/>
      <point x="600" y="228" type="curve" smooth="yes"/>
      <point x="680" y="720" type="line"/>
      <point x="468" y="720" type="line"/>
      <point x="396" y="260" type="line" smooth="yes"/>
      <point x="386" y="197"/>
      <point x="360" y="168"/>
      <point x="284" y="168" type="curve" smooth="yes"/>
      <point x="274" y="168" type="line"/>
      <point x="277" y="186"/>
      <point x="280" y="208"/>
      <point x="280" y="232" type="curve" smooth="yes"/>
      <point x="280" y="720" type="line"/>
      <point x="68" y="720" type="line"/>
      <point x="68" y="184" type="line" smooth="yes"/>
      <point x="68" y="144"/>
      <point x="64" y="60"/>
    </contour>
  </outline>
</glyph>
<glyph name="W" format="1">
  <advance width="1124"/>
  <unicode hex="0057"/>
  <outline>
    <contour>
      <point x="84" y="24" type="curve" name="hr00"/>
      <point x="88" y="12" type="line"/>
      <point x="137" y="-2"/>
      <point x="173" y="-8"/>
      <point x="220" y="-8" type="curve" smooth="yes"/>
      <point x="347" y="-8"/>
      <point x="461" y="36"/>
      <point x="512" y="122" type="curve"/>
      <point x="513" y="87"/>
      <point x="514" y="50"/>
      <point x="512" y="24" type="curve"/>
      <point x="514" y="12" type="line"/>
      <point x="569" y="0"/>
      <point x="633" y="-8"/>
      <point x="692" y="-8" type="curve" smooth="yes"/>
      <point x="865" y="-8"/>
      <point x="1000" y="63"/>
      <point x="1028" y="240" type="curve" smooth="yes"/>
      <point x="1104" y="720" type="line"/>
      <point x="892" y="720" type="line"/>
      <point x="824" y="260" type="line" smooth="yes"/>
      <point x="815" y="201"/>
      <point x="775" y="171"/>
      <point x="704" y="168" type="curve"/>
      <point x="704" y="194"/>
      <point x="702" y="225"/>
      <point x="700" y="260" type="curve"/>
      <point x="664" y="720" type="line"/>
      <point x="464" y="720" type="line"/>
      <point x="485" y="458" type="line"/>
      <point x="420" y="272" type="line" smooth="yes"/>
      <point x="399" y="213"/>
      <point x="372" y="168"/>
      <point x="292" y="168" type="curve" smooth="yes"/>
      <point x="287" y="168" type="line"/>
      <point x="287" y="194"/>
      <point x="286" y="225"/>
      <point x="284" y="260" type="curve"/>
      <point x="248" y="720" type="line"/>
      <point x="36" y="720" type="line"/>
      <point x="80" y="184" type="line" smooth="yes"/>
      <point x="83" y="144"/>
      <point x="88" y="68"/>
    </contour>
    <contour>
      <point x="564" y="720" type="move" name="top"/>
    </contour>
  </outline>
</glyph>
<glyph name="X" format="1">
  <advance width="724"/>
  <unicode hex="0058"/>
  <outline>
    <contour>
      <point x="8" y="0" type="line" name="hr00"/>
      <point x="240" y="0" type="line"/>
      <point x="357" y="191" type="line"/>
      <point x="488" y="0" type="line"/>
      <point x="720" y="0" type="line"/>
      <point x="720" y="12" type="line"/>
      <point x="475" y="369" type="line"/>
      <point x="716" y="708" type="line"/>
      <point x="716" y="720" type="line"/>
      <point x="488" y="720" type="line"/>
      <point x="367" y="528" type="line"/>
      <point x="236" y="720" type="line"/>
      <point x="4" y="720" type="line"/>
      <point x="4" y="708" type="line"/>
      <point x="248" y="350" type="line"/>
      <point x="8" y="12" type="line"/>
    </contour>
  </outline>
</glyph>
<glyph name="Y" format="1">
  <advance width="676"/>
  <unicode hex="0059"/>
  <outline>
    <contour>
      <point x="228" y="0" type="line" name="hr00"/>
      <point x="440" y="0" type="line"/>
      <point x="440" y="298" type="line"/>
      <point x="676" y="708" type="line"/>
      <point x="676" y="720" type="line"/>
      <point x="456" y="720" type="line"/>
      <point x="344" y="480" type="line"/>
      <point x="220" y="720" type="line"/>
      <point x="0" y="720" type="line"/>
      <point x="0" y="708" type="line"/>
      <point x="228" y="298" type="line"/>
    </contour>
    <contour>
      <point x="338" y="720" type="move" name="top"/>
    </contour>
  </outline>
</glyph>
<glyph name="bracketleft" format="1">
  <advance width="408"/>
  <unicode hex="005B"/>
  <outline>
    <contour>
      <point x="56" y="-88" type="line" name="hr00"/>
      <point x="384" y="-88" type="line"/>
      <point x="384" y="60" type="line"/>
      <point x="236" y="60" type="line"/>
      <point x="236" y="612" type="line"/>
      <point x="384" y="612" type="line"/>
      <point x="384" y="760" type="line"/>
      <point x="56" y="760" type="line"/>
    </contour>
  </outline>
</glyph>
<glyph name="backslash" format="1">
  <advance width="588"/>
  <unicode hex="005C"/>
  <outline>
    <contour>
      <point x="556" y="0" type="line" name="hr00"/>
      <point x="212" y="720" type="line"/>
      <point x="32" y="720" type="line"/>
      <point x="376" y="0" type="line"/>
    </contour>
  </outline>
</glyph>
<glyph name="bracketright" format="1">
  <advance width="408"/>
  <unicode hex="005D"/>
  <outline>
    <contour>
      <point x="24" y="-88" type="line" name="hr00"/>
      <point x="352" y="-88" type="line"/>
      <point x="352" y="760" type="line"/>
      <point x="24" y="760" type="line"/>
      <point x="24" y="612" type="line"/>
      <point x="172" y="612" type="line"/>
      <point x="172" y="60" type="line"/>
      <point x="24" y="60" type="line"/>
    </contour>
  </outline>
</glyph>
<glyph name="asciicircum" format="1">
  <advance width="616"/>
  <unicode hex="005E"/>
  <outline>
    <contour>
      <point x="221" y="380" type="line" name="hr00"/>
      <point x="308" y="536" type="line"/>
      <point x="398" y="380" type="line"/>
      <point x="534" y="380" type="line"/>
      <point x="534" y="388" type="line"/>
      <point x="348" y="720" type="line"/>
      <point x="268" y="720" type="line"/>
      <point x="81" y="388" type="line"/>
      <point x="81" y="380" type="line"/>
    </contour>
  </outline>
</glyph>
<glyph name="grave" format="1">
  <advance width="672"/>
  <unicode hex="0060"/>
  <outline>
    <contour>
      <point x="438" y="604" type="line" name="hr00"/>
      <point x="438" y="608" type="line"/>
      <point x="355" y="760" type="line"/>
      <point x="186" y="760" type="line"/>
      <point x="186" y="756" type="line"/>
      <point x="310" y="604" type="line"/>
    </contour>
    <contour>
      <point x="336" y="548" type="move" name="_top"/>
    </contour>
  </outline>
</glyph>
<glyph name="a" format="1">
  <advance width="616"/>
  <unicode hex="0061"/>
  <outline>
    <contour>
      <point x="36" y="164" type="curve" smooth="yes" name="hr00"/>
      <point x="36" y="288"/>
      <point x="140" y="336"/>
      <point x="276" y="336" type="curve" smooth="yes"/>
      <point x="305" y="336"/>
      <point x="333" y="333"/>
      <point x="352" y="331" type="curve"/>
      <point x="352" y="332" type="line"/>
      <point x="352" y="396"/>
      <point x="312" y="412"/>
      <point x="236" y="412" type="curve" smooth="yes"/>
      <point x="176" y="412"/>
      <point x="124" y="402"/>
      <point x="92" y="388" type="curve"/>
      <point x="80" y="388" type="line"/>
      <point x="80" y="544" type="line"/>
      <point x="128" y="556"/>
      <point x="188" y="564"/>
      <point x="260" y="564" type="curve" smooth="yes"/>
      <point x="437" y="564"/>
      <point x="556" y="512"/>
      <point x="556" y="316" type="curve" smooth="yes"/>
      <point x="556" y="188" type="line" smooth="yes"/>
      <point x="556" y="144"/>
      <point x="558" y="64"/>
      <point x="568" y="28" type="curve"/>
      <point x="564" y="20" type="line"/>
      <point x="500" y="4"/>
      <point x="412" y="-12"/>
      <point x="316" y="-12" type="curve" smooth="yes"/>
      <point x="132" y="-12"/>
      <point x="36" y="32"/>
    </contour>
    <contour>
      <point x="363" y="127" type="curve"/>
      <point x="356" y="148"/>
      <point x="352" y="179"/>
      <point x="352" y="216" type="curve"/>
      <point x="352" y="217" type="line"/>
      <point x="343" y="218"/>
      <point x="329" y="220"/>
      <point x="308" y="220" type="curve" smooth="yes"/>
      <point x="252" y="220"/>
      <point x="228" y="204"/>
      <point x="228" y="168" type="curve" smooth="yes"/>
      <point x="228" y="132"/>
      <point x="256" y="120"/>
      <point x="304" y="120" type="curve" smooth="yes"/>
      <point x="323" y="120"/>
      <point x="345" y="122"/>
    </contour>
    <contour>
      <point x="300" y="548" type="move" name="top"/>
    </contour>
    <contour>
      <point x="420" y="0" type="move" name="bottom"/>
    </contour>
  </outline>
</glyph>
<glyph name="b" format="1">
  <advance width="684"/>
  <unicode hex="0062"/>
  <outline>
    <contour>
      <point x="64" y="12" type="line" name="hr00"/>
      <point x="116" y="0"/>
      <point x="202" y="-12"/>
      <point x="268" y="-12" type="curve" smooth="yes"/>
      <point x="488" y="-12"/>
      <point x="644" y="64"/>
      <point x="644" y="276" type="curve" smooth="yes"/>
      <point x="644" y="448"/>
      <point x="551" y="556"/>
      <point x="380" y="556" type="curve" smooth="yes"/>
      <point x="342" y="556"/>
      <point x="309" y="549"/>
      <point x="280" y="539" type="curve"/>
      <point x="280" y="760" type="line"/>
      <point x="60" y="760" type="line"/>
      <point x="56" y="752" type="line"/>
      <point x="65" y="716"/>
      <point x="68" y="576"/>
      <point x="68" y="536" type="curve" smooth="yes"/>
      <point x="68" y="176" type="line" smooth="yes"/>
      <point x="68" y="136"/>
      <point x="68" y="56"/>
      <point x="60" y="20" type="curve"/>
    </contour>
    <contour>
      <point x="280" y="192" type="curve"/>
      <point x="280" y="400" type="line"/>
      <point x="290" y="402"/>
      <point x="302" y="404"/>
      <point x="316" y="404" type="curve" smooth="yes"/>
      <point x="392" y="404"/>
      <point x="428" y="352"/>
      <point x="428" y="272" type="curve" smooth="yes"/>
      <point x="428" y="196"/>
      <point x="396" y="136"/>
      <point x="312" y="136" type="curve" smooth="yes"/>
      <point x="301" y="136"/>
      <point x="289" y="137"/>
      <point x="278" y="138" type="curve"/>
      <point x="279" y="154"/>
      <point x="280" y="172"/>
    </contour>
  </outline>
</glyph>
<glyph name="c" format="1">
  <advance width="528"/>
  <unicode hex="0063"/>
  <outline>
    <contour>
      <point x="40" y="276" type="curve" smooth="yes" name="hr00"/>
      <point x="40" y="68"/>
      <point x="178" y="-12"/>
      <point x="368" y="-12" type="curve" smooth="yes"/>
      <point x="412" y="-12"/>
      <point x="456" y="-6"/>
      <point x="488" y="4" type="curve"/>
      <point x="488" y="168" type="line"/>
      <point x="476" y="168" type="line"/>
      <point x="456" y="160"/>
      <point x="432" y="152"/>
      <point x="396" y="152" type="curve" smooth="yes"/>
      <point x="304" y="152"/>
      <point x="256" y="196"/>
      <point x="256" y="276" type="curve" smooth="yes"/>
      <point x="256" y="356"/>
      <point x="304" y="400"/>
      <point x="396" y="400" type="curve" smooth="yes"/>
      <point x="432" y="400"/>
      <point x="456" y="392"/>
      <point x="476" y="384" type="curve"/>
      <point x="488" y="384" type="line"/>
      <point x="488" y="548" type="line"/>
      <point x="456" y="558"/>
      <point x="412" y="564"/>
      <point x="368" y="564" type="curve" smooth="yes"/>
      <point x="184" y="564"/>
      <point x="40" y="484"/>
    </contour>
    <contour>
      <point x="312" y="548" type="move" name="top"/>
    </contour>
    <contour>
      <point x="312" y="0" type="move" name="bottom"/>
    </contour>
  </outline>
</glyph>
<glyph name="d" format="1">
  <advance width="684"/>
  <unicode hex="0064"/>
  <outline>
    <contour>
      <point x="40" y="272" type="curve" smooth="yes" name="hr00"/>
      <point x="40" y="60"/>
      <point x="172" y="-12"/>
      <point x="396" y="-12" type="curve" smooth="yes"/>
      <point x="480" y="-12"/>
      <point x="570" y="0"/>
      <point x="620" y="12" type="curve"/>
      <point x="624" y="20" type="line"/>
      <point x="616" y="56"/>
      <point x="616" y="136"/>
      <point x="616" y="176" type="curve" smooth="yes"/>
      <point x="616" y="760" type="line"/>
      <point x="396" y="760" type="line"/>
      <point x="392" y="752" type="line"/>
      <point x="398.609633446" y="724.735262036"/>
      <point x="401.80620015" y="637.400549428"/>
      <point x="403.28163412" y="579.668364513" type="curve" smooth="yes"/>
      <point x="403.591998388" y="567.524135991"/>
      <point x="403.826204181" y="556.689790964"/>
      <point x="404" y="548" type="curve"/>
      <point x="386" y="552"/>
      <point x="361" y="556"/>
      <point x="332" y="556" type="curve" smooth="yes"/>
      <point x="152" y="556"/>
      <point x="40" y="444"/>
    </contour>
    <contour>
      <point x="406" y="142" type="curve"/>
      <point x="397" y="141"/>
      <point x="385" y="140"/>
      <point x="372" y="140" type="curve" smooth="yes"/>
      <point x="283" y="140"/>
      <point x="256" y="204"/>
      <point x="256" y="272" type="curve" smooth="yes"/>
      <point x="256" y="350"/>
      <point x="289" y="408"/>
      <point x="372" y="408" type="curve" smooth="yes"/>
      <point x="381" y="408"/>
      <point x="395" y="406"/>
      <point x="404" y="404" type="curve"/>
      <point x="404" y="196" type="line" smooth="yes"/>
      <point x="404" y="176"/>
      <point x="404" y="158"/>
    </contour>
    <contour>
      <point x="356" y="0" type="move" name="bottom"/>
    </contour>
  </outline>
</glyph>
<glyph name="e" format="1">
  <advance width="636"/>
  <unicode hex="0065"/>
  <outline>
    <contour>
      <point x="598" y="220" type="line" name="hr00"/>
      <point x="600" y="260" type="line" smooth="yes"/>
      <point x="609" y="432"/>
      <point x="524" y="564"/>
      <point x="332" y="564" type="curve" smooth="yes"/>
      <point x="153" y="564"/>
      <point x="40" y="460"/>
      <point x="40" y="276" type="curve" smooth="yes"/>
      <point x="40" y="56"/>
      <point x="188" y="-12"/>
      <point x="384" y="-12" type="curve" smooth="yes"/>
      <point x="461" y="-12"/>
      <point x="516" y="-4"/>
      <point x="560" y="12" type="curve"/>
      <point x="560" y="172" type="line"/>
      <point x="548" y="172" type="line"/>
      <point x="520" y="156"/>
      <point x="464" y="144"/>
      <point x="404" y="144" type="curve" smooth="yes"/>
      <point x="312" y="144"/>
      <point x="268" y="170"/>
      <point x="256" y="220" type="curve"/>
    </contour>
    <contour>
      <point x="328" y="424" type="curve" smooth="yes"/>
      <point x="379" y="424"/>
      <point x="400" y="392"/>
      <point x="400" y="340" type="curve" smooth="yes"/>
      <point x="400" y="332" type="line"/>
      <point x="253" y="332" type="line"/>
      <point x="258" y="387"/>
      <point x="280" y="424"/>
    </contour>
    <contour>
      <point x="332" y="548" type="move" name="top"/>
    </contour>
    <contour>
      <point x="412" y="0" type="move" name="bottom"/>
    </contour>
  </outline>
</glyph>
<glyph name="g" format="1">
  <advance width="684"/>
  <unicode hex="0067"/>
  <outline>
    <contour>
      <point x="100" y="-52" type="line" name="hr00"/>
      <point x="100" y="-216" type="line"/>
      <point x="136" y="-232"/>
      <point x="206" y="-240"/>
      <point x="262" y="-240" type="curve" smooth="yes"/>
      <point x="468" y="-240"/>
      <point x="616" y="-156"/>
      <point x="616" y="52" type="curve" smooth="yes"/>
      <point x="616" y="364" type="line" smooth="yes"/>
      <point x="616" y="404"/>
      <point x="616" y="484"/>
      <point x="624" y="520" type="curve"/>
      <point x="620" y="528" type="line"/>
      <point x="572" y="544"/>
      <point x="492" y="556"/>
      <point x="416" y="556" type="curve" smooth="yes"/>
      <point x="200" y="556"/>
      <point x="40" y="480"/>
      <point x="40" y="272" type="curve" smooth="yes"/>
      <point x="40" y="92"/>
      <point x="154" y="4"/>
      <point x="336" y="4" type="curve" smooth="yes"/>
      <point x="359" y="4"/>
      <point x="383" y="6"/>
      <point x="402" y="8" type="curve"/>
      <point x="401.427734368" y="4.46235790849"/>
      <point x="400.736382206" y="1.06545444187"/>
      <point x="399.926647536" y="-2.19577934323" type="curve" smooth="yes"/>
      <point x="385.171789707" y="-61.6214685567"/>
      <point x="331.10973005" y="-76.0"/>
      <point x="242" y="-76" type="curve" smooth="yes"/>
      <point x="202" y="-76"/>
      <point x="148" y="-67"/>
      <point x="116" y="-52" type="curve"/>
    </contour>
    <contour>
      <point x="372" y="152" type="curve" smooth="yes"/>
      <point x="290" y="152"/>
      <point x="256" y="200"/>
      <point x="256" y="276" type="curve" smooth="yes"/>
      <point x="256" y="340"/>
      <point x="289" y="400"/>
      <point x="372" y="400" type="curve" smooth="yes"/>
      <point x="385" y="400"/>
      <point x="398" y="399"/>
      <point x="409" y="398" type="curve"/>
      <point x="405" y="376"/>
      <point x="404" y="346"/>
      <point x="404" y="316" type="curve" smooth="yes"/>
      <point x="404" y="155" type="line"/>
      <point x="396" y="153"/>
      <point x="385" y="152"/>
    </contour>
    <contour>
      <point x="376" y="548" type="move" name="top"/>
    </contour>
  </outline>
</glyph>
<glyph name="h" format="1">
  <advance width="692"/>
  <unicode hex="0068"/>
  <outline>
    <contour>
      <point x="416" y="0" type="line" name="hr00"/>
      <point x="628" y="0" type="line"/>
      <point x="628" y="308" type="line" smooth="yes"/>
      <point x="628" y="480"/>
      <point x="536" y="564"/>
      <point x="376" y="564" type="curve" smooth="yes"/>
      <point x="338" y="564"/>
      <point x="307" y="560"/>
      <point x="280" y="553" type="curve"/>
      <point x="280" y="760" type="line"/>
      <point x="60" y="760" type="line"/>
      <point x="56" y="752" type="line"/>
      <point x="65" y="716"/>
      <point x="68" y="636"/>
      <point x="68" y="596" type="curve" smooth="yes"/>
      <point x="68" y="0" type="line"/>
      <point x="280" y="0" type="line"/>
      <point x="280" y="396" type="line"/>
      <point x="294" y="398"/>
      <point x="309" y="400"/>
      <point x="320" y="400" type="curve" smooth="yes"/>
      <point x="378" y="400"/>
      <point x="416" y="376"/>
      <point x="416" y="308" type="curve" smooth="yes"/>
    </contour>
    <contour>
      <point x="172" y="760" type="move" name="top"/>
    </contour>
    <contour>
      <point x="348" y="0" type="move" name="bottom"/>
    </contour>
  </outline>
</glyph>
<glyph name="i" format="1">
  <advance width="348"/>
  <unicode hex="0069"/>
  <outline>
    <contour>
      <point x="176" y="620" type="curve" smooth="yes" name="hr00"/>
      <point x="240" y="620"/>
      <point x="284" y="656"/>
      <point x="284" y="724" type="curve" smooth="yes"/>
      <point x="284" y="792"/>
      <point x="240" y="828"/>
      <point x="176" y="828" type="curve" smooth="yes"/>
      <point x="112" y="828"/>
      <point x="68" y="792"/>
      <point x="68" y="724" type="curve" smooth="yes"/>
      <point x="68" y="656"/>
      <point x="112" y="620"/>
    </contour>
    <contour>
      <point x="68" y="0" type="line"/>
      <point x="280" y="0" type="line"/>
      <point x="280" y="548" type="line"/>
      <point x="60" y="548" type="line"/>
      <point x="56" y="540" type="line"/>
      <point x="65" y="504"/>
      <point x="68" y="424"/>
      <point x="68" y="384" type="curve" smooth="yes"/>
    </contour>
    <contour>
      <point x="174" y="0" type="move" name="bottom"/>
    </contour>
  </outline>
</glyph>
<glyph name="j" format="1">
  <advance width="348"/>
  <unicode hex="006A"/>
  <outline>
    <contour>
      <point x="176" y="620" type="curve" smooth="yes" name="hr00"/>
      <point x="240" y="620"/>
      <point x="284" y="656"/>
      <point x="284" y="724" type="curve" smooth="yes"/>
      <point x="284" y="792"/>
      <point x="240" y="828"/>
      <point x="176" y="828" type="curve" smooth="yes"/>
      <point x="112" y="828"/>
      <point x="68" y="792"/>
      <point x="68" y="724" type="curve" smooth="yes"/>
      <point x="68" y="656"/>
      <point x="112" y="620"/>
    </contour>
    <contour>
      <point x="68" y="6" type="line" smooth="yes"/>
      <point x="68" y="-52"/>
      <point x="40" y="-76"/>
      <point x="-16" y="-76" type="curve" smooth="yes"/>
      <point x="-47" y="-76"/>
      <point x="-60" y="-72"/>
      <point x="-80" y="-64" type="curve"/>
      <point x="-92" y="-64" type="line"/>
      <point x="-92" y="-228" type="line"/>
      <point x="-64" y="-236"/>
      <point x="-28" y="-240"/>
      <point x="16" y="-240" type="curve" smooth="yes"/>
      <point x="168" y="-240"/>
      <point x="280" y="-168"/>
      <point x="280" y="20" type="curve" smooth="yes"/>
      <point x="280" y="548" type="line"/>
      <point x="60" y="548" type="line"/>
      <point x="56" y="540" type="line"/>
      <point x="65" y="504"/>
      <point x="68" y="424"/>
      <point x="68" y="384" type="curve" smooth="yes"/>
    </contour>
  </outline>
</glyph>
<glyph name="k" format="1">
  <advance width="680"/>
  <unicode hex="006B"/>
  <outline>
    <contour>
      <point x="68" y="0" type="line" name="hr00"/>
      <point x="280" y="0" type="line"/>
      <point x="280" y="229" type="line"/>
      <point x="436" y="0" type="line"/>
      <point x="676" y="0" type="line"/>
      <point x="676" y="12" type="line"/>
      <point x="656" y="28"/>
      <point x="621" y="63"/>
      <point x="596" y="96" type="curve" smooth="yes"/>
      <point x="456" y="288" type="line"/>
      <point x="579" y="436" type="line" smooth="yes"/>
      <point x="605" y="467"/>
      <point x="647" y="520"/>
      <point x="668" y="536" type="curve"/>
      <point x="668" y="548" type="line"/>
      <point x="448" y="548" type="line"/>
      <point x="280" y="338" type="line"/>
      <point x="280" y="760" type="line"/>
      <point x="60" y="760" type="line"/>
      <point x="56" y="752" type="line"/>
      <point x="65" y="716"/>
      <point x="68" y="636"/>
      <point x="68" y="596" type="curve" smooth="yes"/>
    </contour>
    <contour>
      <point x="352" y="0" type="move" name="bottom"/>
    </contour>
  </outline>
</glyph>
<glyph name="m" format="1">
  <advance width="1032"/>
  <unicode hex="006D"/>
  <outline>
    <contour>
      <point x="68" y="0" type="line" name="hr00"/>
      <point x="280" y="0" type="line"/>
      <point x="280" y="316" type="line" smooth="yes"/>
      <point x="280" y="348"/>
      <point x="278" y="372"/>
      <point x="275" y="391" type="curve"/>
      <point x="290" y="396"/>
      <point x="307" y="400"/>
      <point x="324" y="400" type="curve" smooth="yes"/>
      <point x="376" y="400"/>
      <point x="412" y="380"/>
      <point x="412" y="304" type="curve" smooth="yes"/>
      <point x="412" y="0" type="line"/>
      <point x="624" y="0" type="line"/>
      <point x="624" y="308" type="line" smooth="yes"/>
      <point x="624" y="341"/>
      <point x="620" y="370"/>
      <point x="614" y="395" type="curve"/>
      <point x="628" y="398"/>
      <point x="645" y="400"/>
      <point x="664" y="400" type="curve" smooth="yes"/>
      <point x="716" y="400"/>
      <point x="752" y="380"/>
      <point x="752" y="304" type="curve" smooth="yes"/>
      <point x="752" y="0" type="line"/>
      <point x="964" y="0" type="line"/>
      <point x="964" y="308" type="line" smooth="yes"/>
      <point x="964" y="528"/>
      <point x="820" y="564"/>
      <point x="696" y="564" type="curve" smooth="yes"/>
      <point x="621" y="564"/>
      <point x="560" y="549"/>
      <point x="512" y="529" type="curve"/>
      <point x="456" y="557"/>
      <point x="385" y="564"/>
      <point x="308" y="564" type="curve" smooth="yes"/>
      <point x="216" y="564"/>
      <point x="116" y="544"/>
      <point x="60" y="524" type="curve"/>
      <point x="56" y="516" type="line"/>
      <point x="65" y="480"/>
      <point x="68" y="396"/>
      <point x="68" y="356" type="curve" smooth="yes"/>
    </contour>
  </outline>
</glyph>
<glyph name="n" format="1">
  <advance width="692"/>
  <unicode hex="006E"/>
  <outline>
    <contour>
      <point x="68" y="0" type="line" name="hr00"/>
      <point x="280" y="0" type="line"/>
      <point x="280" y="316" type="line" smooth="yes"/>
      <point x="280" y="348"/>
      <point x="278" y="373"/>
      <point x="274" y="392" type="curve"/>
      <point x="290" y="396"/>
      <point x="307" y="400"/>
      <point x="324" y="400" type="curve" smooth="yes"/>
      <point x="376" y="400"/>
      <point x="416" y="380"/>
      <point x="416" y="304" type="curve" smooth="yes"/>
      <point x="416" y="0" type="line"/>
      <point x="628" y="0" type="line"/>
      <point x="628" y="308" type="line" smooth="yes"/>
      <point x="628" y="528"/>
      <point x="480" y="564"/>
      <point x="308" y="564" type="curve" smooth="yes"/>
      <point x="216" y="564"/>
      <point x="116" y="544"/>
      <point x="60" y="524" type="curve"/>
      <point x="56" y="516" type="line"/>
      <point x="65" y="480"/>
      <point x="68" y="396"/>
      <point x="68" y="356" type="curve" smooth="yes"/>
    </contour>
    <contour>
      <point x="344" y="548" type="move" name="top"/>
    </contour>
    <contour>
      <point x="340" y="0" type="move" name="bottom"/>
    </contour>
  </outline>
</glyph>
<glyph name="o" format="1">
  <advance width="672"/>
  <unicode hex="006F"/>
  <outline>
    <contour>
      <point x="40" y="276" type="curve" smooth="yes" name="hr00"/>
      <point x="40" y="76"/>
      <point x="164" y="-12"/>
      <point x="336" y="-12" type="curve" smooth="yes"/>
      <point x="508" y="-12"/>
      <point x="632" y="76"/>
      <point x="632" y="276" type="curve" smooth="yes"/>
      <point x="632" y="476"/>
      <point x="508" y="564"/>
      <point x="336" y="564" type="curve" smooth="yes"/>
      <point x="164" y="564"/>
      <point x="40" y="476"/>
    </contour>
    <contour>
      <point x="256" y="276" type="curve" smooth="yes"/>
      <point x="256" y="368"/>
      <point x="280" y="416"/>
      <point x="336" y="416" type="curve" smooth="yes"/>
      <point x="392" y="416"/>
      <point x="416" y="368"/>
      <point x="416" y="276" type="curve" smooth="yes"/>
      <point x="416" y="184"/>
      <point x="392" y="136"/>
      <point x="336" y="136" type="curve" smooth="yes"/>
      <point x="280" y="136"/>
      <point x="256" y="184"/>
    </contour>
    <contour>
      <point x="336" y="548" type="move" name="top"/>
    </contour>
  </outline>
</glyph>
<glyph name="p" format="1">
  <advance width="684"/>
  <unicode hex="0070"/>
  <outline>
    <contour>
      <point x="68" y="-232" type="line" name="hr00"/>
      <point x="280" y="-232" type="line"/>
      <point x="280" y="-8" type="line"/>
      <point x="298" y="-10"/>
      <point x="324" y="-12"/>
      <point x="348" y="-12" type="curve" smooth="yes"/>
      <point x="568" y="-12"/>
      <point x="644" y="136"/>
      <point x="644" y="276" type="curve" smooth="yes"/>
      <point x="644" y="500"/>
      <point x="480" y="564"/>
      <point x="308" y="564" type="curve" smooth="yes"/>
      <point x="196" y="564"/>
      <point x="124" y="544"/>
      <point x="64" y="524" type="curve"/>
      <point x="64" y="524"/>
      <point x="56" y="516"/>
      <point x="56" y="516" type="curve"/>
      <point x="65" y="480"/>
      <point x="68" y="400"/>
      <point x="68" y="360" type="curve" smooth="yes"/>
    </contour>
    <contour>
      <point x="320" y="412" type="curve" smooth="yes"/>
      <point x="400" y="412"/>
      <point x="428" y="352"/>
      <point x="428" y="276" type="curve" smooth="yes"/>
      <point x="428" y="196"/>
      <point x="400" y="136"/>
      <point x="312" y="136" type="curve" smooth="yes"/>
      <point x="298" y="136"/>
      <point x="287" y="138"/>
      <point x="280" y="139" type="curve"/>
      <point x="280" y="336" type="line" smooth="yes"/>
      <point x="280" y="366"/>
      <point x="279" y="388"/>
      <point x="275" y="405" type="curve"/>
      <point x="288" y="409"/>
      <point x="304" y="412"/>
    </contour>
  </outline>
</glyph>
<glyph name="q" format="1">
  <advance width="684"/>
  <unicode hex="0071"/>
  <outline>
    <contour>
      <point x="404" y="-208" type="line" name="hr00"/>
      <point x="616" y="-208" type="line"/>
      <point x="616" y="360" type="line" smooth="yes"/>
      <point x="616" y="400"/>
      <point x="616" y="480"/>
      <point x="624" y="516" type="curve"/>
      <point x="620" y="524" type="line"/>
      <point x="576" y="538"/>
      <point x="504" y="556"/>
      <point x="400" y="556" type="curve" smooth="yes"/>
      <point x="212" y="556"/>
      <point x="40" y="484"/>
      <point x="40" y="272" type="curve" smooth="yes"/>
      <point x="40" y="92"/>
      <point x="148" y="-12"/>
      <point x="340" y="-12" type="curve" smooth="yes"/>
      <point x="362" y="-12"/>
      <point x="385" y="-10"/>
      <point x="404" y="-8" type="curve"/>
    </contour>
    <contour>
      <point x="376" y="140" type="curve" smooth="yes"/>
      <point x="301" y="140"/>
      <point x="256" y="182"/>
      <point x="256" y="272" type="curve" smooth="yes"/>
      <point x="256" y="350"/>
      <point x="285" y="408"/>
      <point x="372" y="408" type="curve" smooth="yes"/>
      <point x="386" y="408"/>
      <point x="398" y="406"/>
      <point x="408" y="403" type="curve"/>
      <point x="405" y="383"/>
      <point x="404" y="358"/>
      <point x="404" y="330" type="curve" smooth="yes"/>
      <point x="404" y="142" type="line"/>
      <point x="395" y="141"/>
      <point x="383" y="140"/>
    </contour>
  </outline>
</glyph>
<glyph name="r" format="1">
  <advance width="444"/>
  <unicode hex="0072"/>
  <outline>
    <contour>
      <point x="68" y="0" type="line" name="hr00"/>
      <point x="280" y="0" type="line"/>
      <point x="280" y="316" type="line" smooth="yes"/>
      <point x="280" y="352"/>
      <point x="278" y="379"/>
      <point x="273" y="398" type="curve"/>
      <point x="291" y="402"/>
      <point x="312" y="404"/>
      <point x="336" y="404" type="curve" smooth="yes"/>
      <point x="364" y="404"/>
      <point x="392" y="400"/>
      <point x="416" y="392" type="curve"/>
      <point x="428" y="392" type="line"/>
      <point x="428" y="556" type="line"/>
      <point x="378" y="563"/>
      <point x="335" y="564"/>
      <point x="320" y="564" type="curve" smooth="yes"/>
      <point x="192" y="564"/>
      <point x="120" y="544"/>
      <point x="60" y="524" type="curve"/>
      <point x="56" y="516" type="line"/>
      <point x="65" y="480"/>
      <point x="68" y="396"/>
      <point x="68" y="356" type="curve" smooth="yes"/>
    </contour>
    <contour>
      <point x="248" y="548" type="move" name="top"/>
    </contour>
    <contour>
      <point x="172" y="0" type="move" name="bottom"/>
    </contour>
  </outline>
</glyph>
<glyph name="s" format="1">
  <advance width="568"/>
  <unicode hex="0073"/>
  <outline>
    <contour>
      <point x="52" y="20" type="line" name="hr00"/>
      <point x="108" y="4"/>
      <point x="184" y="-8"/>
      <point x="244" y="-8" type="curve" smooth="yes"/>
      <point x="437" y="-8"/>
      <point x="536" y="52"/>
      <point x="536" y="180" type="curve" smooth="yes"/>
      <point x="536" y="288"/>
      <point x="460" y="327"/>
      <point x="364" y="344" type="curve" smooth="yes"/>
      <point x="320" y="352" type="line" smooth="yes"/>
      <point x="273" y="361"/>
      <point x="252" y="364"/>
      <point x="252" y="382" type="curve" smooth="yes"/>
      <point x="252" y="402"/>
      <point x="280" y="408"/>
      <point x="328" y="408" type="curve" smooth="yes"/>
      <point x="372" y="408"/>
      <point x="432" y="401"/>
      <point x="492" y="376" type="curve"/>
      <point x="500" y="376" type="line"/>
      <point x="500" y="540" type="line"/>
      <point x="440" y="556"/>
      <point x="396" y="560"/>
      <point x="332" y="560" type="curve" smooth="yes"/>
      <point x="136" y="560"/>
      <point x="48" y="484"/>
      <point x="48" y="372" type="curve" smooth="yes"/>
      <point x="48" y="272"/>
      <point x="114" y="230"/>
      <point x="212" y="212" type="curve" smooth="yes"/>
      <point x="256" y="204" type="line" smooth="yes"/>
      <point x="314" y="193"/>
      <point x="328" y="191"/>
      <point x="328" y="170" type="curve" smooth="yes"/>
      <point x="328" y="150"/>
      <point x="316" y="144"/>
      <point x="256" y="144" type="curve" smooth="yes"/>
      <point x="184" y="144"/>
      <point x="108" y="164"/>
      <point x="60" y="184" type="curve"/>
      <point x="52" y="184" type="line"/>
    </contour>
    <contour>
      <point x="288" y="548" type="move" name="top"/>
    </contour>
    <contour>
      <point x="252" y="0" type="move" name="bottom"/>
    </contour>
  </outline>
</glyph>
<glyph name="t" format="1">
  <advance width="500"/>
  <unicode hex="0074"/>
  <outline>
    <contour>
      <point x="8" y="388" type="line" name="hr00"/>
      <point x="100" y="388" type="line"/>
      <point x="100" y="216" type="line" smooth="yes"/>
      <point x="100" y="36"/>
      <point x="216" y="-8"/>
      <point x="364" y="-8" type="curve" smooth="yes"/>
      <point x="410" y="-8"/>
      <point x="440" y="-4"/>
      <point x="472" y="4" type="curve"/>
      <point x="472" y="168" type="line"/>
      <point x="460" y="168" type="line"/>
      <point x="444" y="162"/>
      <point x="422" y="156"/>
      <point x="400" y="156" type="curve" smooth="yes"/>
      <point x="340" y="156"/>
      <point x="312" y="176"/>
      <point x="312" y="232" type="curve" smooth="yes"/>
      <point x="312" y="388" type="line"/>
      <point x="450" y="388" type="line"/>
      <point x="450" y="548" type="line"/>
      <point x="312" y="548" type="line"/>
      <point x="312" y="680" type="line"/>
      <point x="100" y="680" type="line"/>
      <point x="100" y="548" type="line"/>
      <point x="8" y="548" type="line"/>
    </contour>
    <contour>
      <point x="300" y="0" type="move" name="bottom"/>
    </contour>
  </outline>
</glyph>
<glyph name="u" format="1">
  <advance width="692"/>
  <unicode hex="0075"/>
  <outline>
    <contour>
      <point x="64" y="244" type="line" smooth="yes" name="hr00"/>
      <point x="64" y="24"/>
      <point x="212" y="-12"/>
      <point x="384" y="-12" type="curve" smooth="yes"/>
      <point x="476" y="-12"/>
      <point x="576" y="8"/>
      <point x="632" y="28" type="curve"/>
      <point x="636" y="36" type="line"/>
      <point x="627" y="72"/>
      <point x="624" y="156"/>
      <point x="624" y="196" type="curve" smooth="yes"/>
      <point x="624" y="548" type="line"/>
      <point x="404" y="548" type="line"/>
      <point x="400" y="540" type="line"/>
      <point x="409" y="504"/>
      <point x="412" y="424"/>
      <point x="412" y="384" type="curve" smooth="yes"/>
      <point x="412" y="236" type="line" smooth="yes"/>
      <point x="412" y="202"/>
      <point x="413" y="177"/>
      <point x="417" y="158" type="curve"/>
      <point x="403" y="154"/>
      <point x="386" y="152"/>
      <point x="368" y="152" type="curve" smooth="yes"/>
      <point x="316" y="152"/>
      <point x="276" y="172"/>
      <point x="276" y="248" type="curve" smooth="yes"/>
      <point x="276" y="548" type="line"/>
      <point x="56" y="548" type="line"/>
      <point x="52" y="540" type="line"/>
      <point x="61" y="504"/>
      <point x="64" y="424"/>
      <point x="64" y="384" type="curve" smooth="yes"/>
    </contour>
    <contour>
      <point x="352" y="548" type="move" name="top"/>
    </contour>
    <contour>
      <point x="476" y="0" type="move" name="bottom"/>
    </contour>
  </outline>
</glyph>
<glyph name="v" format="1">
  <advance width="640"/>
  <unicode hex="0076"/>
  <outline>
    <contour>
      <point x="184" y="0" type="line" name="hr00"/>
      <point x="448" y="0" type="line"/>
      <point x="636" y="536" type="line"/>
      <point x="636" y="548" type="line"/>
      <point x="412" y="548" type="line"/>
      <point x="322" y="188" type="line"/>
      <point x="232" y="548" type="line"/>
      <point x="4" y="548" type="line"/>
      <point x="4" y="536" type="line"/>
    </contour>
  </outline>
</glyph>
<glyph name="w" format="1">
  <advance width="964"/>
  <unicode hex="0077"/>
  <outline>
    <contour>
      <point x="164" y="0" type="line" name="hr00"/>
      <point x="396" y="0" type="line"/>
      <point x="475" y="271" type="line"/>
      <point x="556" y="0" type="line"/>
      <point x="792" y="0" type="line"/>
      <point x="960" y="536" type="line"/>
      <point x="960" y="548" type="line"/>
      <point x="732" y="548" type="line"/>
      <point x="657" y="209" type="line"/>
      <point x="556" y="548" type="line"/>
      <point x="404" y="548" type="line"/>
      <point x="306" y="212" type="line"/>
      <point x="232" y="548" type="line"/>
      <point x="4" y="548" type="line"/>
      <point x="4" y="536" type="line"/>
    </contour>
    <contour>
      <point x="482" y="548" type="move" name="top"/>
    </contour>
  </outline>
</glyph>
<glyph name="x" format="1">
  <advance width="660"/>
  <unicode hex="0078"/>
  <outline>
    <contour>
      <point x="416" y="0" type="line" name="hr00"/>
      <point x="652" y="0" type="line"/>
      <point x="652" y="12" type="line"/>
      <point x="439" y="280" type="line"/>
      <point x="652" y="536" type="line"/>
      <point x="652" y="548" type="line"/>
      <point x="424" y="548" type="line"/>
      <point x="333" y="423" type="line"/>
      <point x="244" y="548" type="line"/>
      <point x="8" y="548" type="line"/>
      <point x="8" y="536" type="line"/>
      <point x="218" y="270" type="line"/>
      <point x="8" y="12" type="line"/>
      <point x="8" y="0" type="line"/>
      <point x="236" y="0" type="line"/>
      <point x="325" y="126" type="line"/>
    </contour>
  </outline>
</glyph>
<glyph name="y" format="1">
  <advance width="624"/>
  <unicode hex="0079"/>
  <outline>
    <contour>
      <point x="120" y="-232" type="line" name="hr00"/>
      <point x="336" y="-232" type="line"/>
      <point x="624" y="536" type="line"/>
      <point x="624" y="548" type="line"/>
      <point x="408" y="548" type="line"/>
      <point x="306" y="241" type="line"/>
      <point x="228" y="548" type="line"/>
      <point x="0" y="548" type="line"/>
      <point x="0" y="536" type="line"/>
      <point x="200" y="-28" type="line"/>
      <point x="120" y="-220" type="line"/>
    </contour>
    <contour>
      <point x="310" y="548" type="move" name="top"/>
    </contour>
  </outline>
</glyph>
<glyph name="z" format="1">
  <advance width="592"/>
  <unicode hex="007A"/>
  <outline>
    <contour>
      <point x="274" y="388" type="line" name="hr00"/>
      <point x="264" y="371"/>
      <point x="248" y="353"/>
      <point x="234" y="336" type="curve" smooth="yes"/>
      <point x="86" y="164" type="line" smooth="yes"/>
      <point x="55" y="128"/>
      <point x="36" y="92"/>
      <point x="36" y="48" type="curve" smooth="yes"/>
      <point x="36" y="36"/>
      <point x="37" y="26"/>
      <point x="40" y="12" type="curve"/>
      <point x="50" y="0" type="line"/>
      <point x="560" y="0" type="line"/>
      <point x="560" y="160" type="line"/>
      <point x="314" y="160" type="line"/>
      <point x="323" y="176"/>
      <point x="339" y="195"/>
      <point x="354" y="212" type="curve" smooth="yes"/>
      <point x="502" y="384" type="line" smooth="yes"/>
      <point x="533" y="420"/>
      <point x="552" y="456"/>
      <point x="552" y="500" type="curve" smooth="yes"/>
      <point x="552" y="512"/>
      <point x="551" y="522"/>
      <point x="548" y="536" type="curve"/>
      <point x="538" y="548" type="line"/>
      <point x="42" y="548" type="line"/>
      <point x="42" y="388" type="line"/>
    </contour>
    <contour>
      <point x="296" y="548" type="move" name="top"/>
    </contour>
    <contour>
      <point x="296" y="0" type="move" name="bottom"/>
    </contour>
  </outline>
</glyph>
<glyph name="braceleft" format="1">
  <advance width="488"/>
  <unicode hex="007B"/>
  <outline>
    <contour>
      <point x="136" y="104" type="line" name="hr00"/>
      <point x="136" y="-44"/>
      <point x="220" y="-88"/>
      <point x="348" y="-88" type="curve" smooth="yes"/>
      <point x="464" y="-88" type="line"/>
      <point x="464" y="56" type="line"/>
      <point x="392" y="56" type="line" smooth="yes"/>
      <point x="348" y="56"/>
      <point x="328" y="76"/>
      <point x="328" y="124" type="curve" smooth="yes"/>
      <point x="328" y="204" type="line" smooth="yes"/>
      <point x="328" y="276"/>
      <point x="284" y="328"/>
      <point x="212" y="335" type="curve"/>
      <point x="212" y="337" type="line"/>
      <point x="284" y="344"/>
      <point x="328" y="396"/>
      <point x="328" y="468" type="curve" smooth="yes"/>
      <point x="328" y="548" type="line" smooth="yes"/>
      <point x="328" y="596"/>
      <point x="348" y="616"/>
      <point x="392" y="616" type="curve" smooth="yes"/>
      <point x="464" y="616" type="line"/>
      <point x="464" y="760" type="line"/>
      <point x="348" y="760" type="line" smooth="yes"/>
      <point x="220" y="760"/>
      <point x="136" y="716"/>
      <point x="136" y="568" type="curve" smooth="yes"/>
      <point x="136" y="488" type="line" smooth="yes"/>
      <point x="136" y="448"/>
      <point x="116" y="416"/>
      <point x="68" y="416" type="curve" smooth="yes"/>
      <point x="20" y="416" type="line"/>
      <point x="20" y="256" type="line"/>
      <point x="68" y="256" type="line" smooth="yes"/>
      <point x="116" y="256"/>
      <point x="136" y="224"/>
      <point x="136" y="184" type="curve" smooth="yes"/>
    </contour>
  </outline>
</glyph>
<glyph name="braceright" format="1">
  <advance width="488"/>
  <unicode hex="007D"/>
  <outline>
    <contour>
      <point x="24" y="56" type="line" name="hr00"/>
      <point x="24" y="-88" type="line"/>
      <point x="140" y="-88" type="line" smooth="yes"/>
      <point x="268" y="-88"/>
      <point x="352" y="-44"/>
      <point x="352" y="104" type="curve" smooth="yes"/>
      <point x="352" y="184" type="line" smooth="yes"/>
      <point x="352" y="224"/>
      <point x="372" y="256"/>
      <point x="420" y="256" type="curve" smooth="yes"/>
      <point x="468" y="256" type="line"/>
      <point x="468" y="416" type="line"/>
      <point x="420" y="416" type="line" smooth="yes"/>
      <point x="372" y="416"/>
      <point x="352" y="448"/>
      <point x="352" y="488" type="curve" smooth="yes"/>
      <point x="352" y="568" type="line" smooth="yes"/>
      <point x="352" y="716"/>
      <point x="268" y="760"/>
      <point x="140" y="760" type="curve" smooth="yes"/>
      <point x="24" y="760" type="line"/>
      <point x="24" y="616" type="line"/>
      <point x="96" y="616" type="line" smooth="yes"/>
      <point x="140" y="616"/>
      <point x="160" y="596"/>
      <point x="160" y="548" type="curve" smooth="yes"/>
      <point x="160" y="468" type="line" smooth="yes"/>
      <point x="160" y="396"/>
      <point x="204" y="344"/>
      <point x="276" y="337" type="curve"/>
      <point x="276" y="335" type="line"/>
      <point x="204" y="328"/>
      <point x="160" y="276"/>
      <point x="160" y="204" type="curve" smooth="yes"/>
      <point x="160" y="124" type="line" smooth="yes"/>
      <point x="160" y="76"/>
      <point x="140" y="56"/>
      <point x="96" y="56" type="curve" smooth="yes"/>
    </contour>
  </outline>
</glyph>
<glyph name="asciitilde" format="1">
  <advance width="616"/>
  <unicode hex="007E"/>
  <outline>
    <contour>
      <point x="432" y="426" type="line"/>
      <point x="432" y="378"/>
      <point x="428" y="340"/>
      <point x="398" y="340" type="curve" smooth="yes" name="hr01"/>
      <point x="369" y="340"/>
      <point x="353" y="364"/>
      <point x="328" y="387" type="curve" smooth="yes"/>
      <point x="306" y="407"/>
      <point x="276" y="426"/>
      <point x="223" y="426" type="curve" smooth="yes" name="hr02"/>
      <point x="114" y="426"/>
      <point x="63" y="340"/>
      <point x="63" y="210" type="curve" name="hr03"/>
      <point x="186" y="210" type="line"/>
      <point x="186" y="258"/>
      <point x="190" y="296"/>
      <point x="220" y="296" type="curve" smooth="yes" name="hr04"/>
      <point x="249" y="296"/>
      <point x="265" y="272"/>
      <point x="290" y="249" type="curve" smooth="yes"/>
      <point x="312" y="229"/>
      <point x="342" y="210"/>
      <point x="395" y="210" type="curve" smooth="yes" name="hr05"/>
      <point x="504" y="210"/>
      <point x="555" y="296"/>
      <point x="555" y="426" type="curve" name="hr06"/>
    </contour>
  </outline>
</glyph>
<glyph name="exclamdown" format="1">
  <advance width="364"/>
  <unicode hex="00A1"/>
  <outline>
    <contour>
      <point x="272" y="260" type="curve" name="hr00"/>
      <point x="92" y="260" type="line"/>
      <point x="84" y="220"/>
      <point x="76" y="124"/>
      <point x="76" y="53" type="curve" smooth="yes"/>
      <point x="76" y="-26" type="line" smooth="yes"/>
      <point x="76" y="-84"/>
      <point x="76" y="-132"/>
      <point x="68" y="-168" type="curve"/>
      <point x="74" y="-180" type="line"/>
      <point x="288" y="-180" type="line"/>
      <point x="288" y="53" type="line" smooth="yes"/>
      <point x="288" y="124"/>
      <point x="280" y="220"/>
    </contour>
    <contour>
      <point x="182" y="552" type="curve"/>
      <point x="116" y="552"/>
      <point x="72" y="508"/>
      <point x="72" y="442" type="curve" smooth="yes"/>
      <point x="72" y="376"/>
      <point x="116" y="332"/>
      <point x="182" y="332" type="curve" smooth="yes"/>
      <point x="248" y="332"/>
      <point x="292" y="376"/>
      <point x="292" y="442" type="curve" smooth="yes"/>
      <point x="292" y="508"/>
      <point x="248" y="552"/>
    </contour>
  </outline>
</glyph>
<glyph name="cent" format="1">
  <advance width="616"/>
  <unicode hex="00A2"/>
  <outline>
    <contour>
      <point x="68" y="374" type="curve" smooth="yes"/>
      <point x="68" y="212"/>
      <point x="150" y="132"/>
      <point x="264" y="102" type="curve" name="hr01"/>
      <point x="264" y="-64" type="line"/>
      <point x="424" y="-64" type="line"/>
      <point x="424" y="90" type="line"/>
      <point x="457" y="93"/>
      <point x="488" y="101"/>
      <point x="508" y="108" type="curve"/>
      <point x="508" y="264" type="line"/>
      <point x="496" y="264" type="line"/>
      <point x="472" y="252"/>
      <point x="452" y="244"/>
      <point x="404" y="244" type="curve" smooth="yes"/>
      <point x="332" y="244"/>
      <point x="268" y="284"/>
      <point x="268" y="374" type="curve" smooth="yes" name="hr02"/>
      <point x="268" y="464"/>
      <point x="332" y="504"/>
      <point x="404" y="504" type="curve" smooth="yes"/>
      <point x="452" y="504"/>
      <point x="472" y="496"/>
      <point x="496" y="484" type="curve"/>
      <point x="508" y="484" type="line"/>
      <point x="508" y="640" type="line"/>
      <point x="488" y="647"/>
      <point x="457" y="654"/>
      <point x="424" y="658" type="curve" name="hr03"/>
      <point x="424" y="800" type="line"/>
      <point x="264" y="800" type="line"/>
      <point x="264" y="646" type="line"/>
      <point x="150" y="616"/>
      <point x="68" y="535"/>
    </contour>
  </outline>
</glyph>
<glyph name="sterling" format="1">
  <advance width="616"/>
  <unicode hex="00A3"/>
  <outline>
    <contour>
      <point x="48" y="300" type="line" name="hr00"/>
      <point x="152" y="300" type="line"/>
      <point x="152" y="152" type="line"/>
      <point x="36" y="152" type="line"/>
      <point x="36" y="0" type="line"/>
      <point x="584" y="0" type="line"/>
      <point x="584" y="152" type="line"/>
      <point x="360" y="152" type="line"/>
      <point x="360" y="300" type="line"/>
      <point x="496" y="300" type="line"/>
      <point x="496" y="452" type="line"/>
      <point x="360" y="452" type="line"/>
      <point x="360" y="468" type="line" smooth="yes"/>
      <point x="360" y="544"/>
      <point x="400" y="584"/>
      <point x="472" y="584" type="curve" smooth="yes"/>
      <point x="494" y="584"/>
      <point x="516" y="580"/>
      <point x="532" y="572" type="curve"/>
      <point x="544" y="572" type="line"/>
      <point x="544" y="716" type="line"/>
      <point x="520" y="724"/>
      <point x="484" y="732"/>
      <point x="436" y="732" type="curve" smooth="yes"/>
      <point x="272" y="732"/>
      <point x="152" y="648"/>
      <point x="152" y="460" type="curve" smooth="yes"/>
      <point x="152" y="452" type="line"/>
      <point x="48" y="452" type="line"/>
    </contour>
  </outline>
</glyph>
<glyph name="currency" format="1">
  <advance width="616"/>
  <unicode hex="00A4"/>
  <outline>
    <contour>
      <point x="147" y="134" type="line" name="hr00"/>
      <point x="198" y="186" type="line"/>
      <point x="228" y="169"/>
      <point x="263" y="160"/>
      <point x="304" y="160" type="curve" smooth="yes"/>
      <point x="347" y="160"/>
      <point x="384" y="170"/>
      <point x="414" y="189" type="curve"/>
      <point x="469" y="134" type="line"/>
      <point x="533" y="199" type="line"/>
      <point x="477" y="254" type="line"/>
      <point x="493" y="284"/>
      <point x="503" y="321"/>
      <point x="503" y="360" type="curve" smooth="yes"/>
      <point x="503" y="399"/>
      <point x="493" y="434"/>
      <point x="477" y="464" type="curve"/>
      <point x="533" y="521" type="line"/>
      <point x="469" y="585" type="line"/>
      <point x="414" y="531" type="line"/>
      <point x="384" y="548"/>
      <point x="347" y="559"/>
      <point x="304" y="559" type="curve" smooth="yes"/>
      <point x="263" y="559"/>
      <point x="228" y="549"/>
      <point x="198" y="533" type="curve"/>
      <point x="147" y="585" type="line"/>
      <point x="82" y="521" type="line"/>
      <point x="133" y="469" type="line"/>
      <point x="114" y="438"/>
      <point x="105" y="401"/>
      <point x="105" y="360" type="curve" smooth="yes"/>
      <point x="105" y="319"/>
      <point x="114" y="281"/>
      <point x="133" y="249" type="curve"/>
      <point x="82" y="199" type="line"/>
    </contour>
    <contour>
      <point x="304" y="254" type="curve" smooth="yes"/>
      <point x="245" y="254"/>
      <point x="210" y="297"/>
      <point x="210" y="360" type="curve" smooth="yes"/>
      <point x="210" y="422"/>
      <point x="245" y="465"/>
      <point x="304" y="465" type="curve" smooth="yes"/>
      <point x="362" y="465"/>
      <point x="398" y="422"/>
      <point x="398" y="360" type="curve" smooth="yes"/>
      <point x="398" y="297"/>
      <point x="362" y="254"/>
    </contour>
  </outline>
</glyph>
<glyph name="yen" format="1">
  <advance width="616"/>
  <unicode hex="00A5"/>
  <outline>
    <contour>
      <point x="76" y="308" type="line" name="hr00"/>
      <point x="208" y="308" type="line"/>
      <point x="208" y="252" type="line"/>
      <point x="76" y="252" type="line"/>
      <point x="76" y="136" type="line"/>
      <point x="208" y="136" type="line"/>
      <point x="208" y="0" type="line"/>
      <point x="404" y="0" type="line"/>
      <point x="404" y="136" type="line"/>
      <point x="536" y="136" type="line"/>
      <point x="536" y="252" type="line"/>
      <point x="404" y="252" type="line"/>
      <point x="404" y="308" type="line"/>
      <point x="536" y="308" type="line"/>
      <point x="536" y="424" type="line"/>
      <point x="449" y="424" type="line"/>
      <point x="620" y="708" type="line"/>
      <point x="620" y="720" type="line"/>
      <point x="424" y="720" type="line"/>
      <point x="314" y="492" type="line"/>
      <point x="200" y="720" type="line"/>
      <point x="0" y="720" type="line"/>
      <point x="0" y="708" type="line"/>
      <point x="164" y="424" type="line"/>
      <point x="76" y="424" type="line"/>
    </contour>
  </outline>
</glyph>
<glyph name="brokenbar" format="1">
  <advance width="308"/>
  <unicode hex="00A6"/>
  <outline>
    <contour>
      <point x="58" y="420" type="line" name="hr00"/>
      <point x="250" y="420" type="line"/>
      <point x="250" y="760" type="line"/>
      <point x="58" y="760" type="line"/>
    </contour>
    <contour>
      <point x="58" y="92" type="line"/>
      <point x="58" y="-248" type="line"/>
      <point x="250" y="-248" type="line"/>
      <point x="250" y="92" type="line"/>
    </contour>
  </outline>
</glyph>
<glyph name="section" format="1">
  <advance width="616"/>
  <unicode hex="00A7"/>
  <outline>
    <contour>
      <point x="100" y="-56" type="line"/>
      <point x="100" y="-212" type="line"/>
      <point x="136" y="-224"/>
      <point x="184" y="-232"/>
      <point x="240" y="-232" type="curve" smooth="yes"/>
      <point x="424" y="-232"/>
      <point x="536" y="-160"/>
      <point x="536" y="-24" type="curve" smooth="yes"/>
      <point x="536" y="28"/>
      <point x="519" y="68"/>
      <point x="490" y="99" type="curve"/>
      <point x="539" y="139"/>
      <point x="576" y="187"/>
      <point x="576" y="256" type="curve" smooth="yes" name="hr01"/>
      <point x="576" y="372"/>
      <point x="497" y="408"/>
      <point x="400" y="440" type="curve" smooth="yes"/>
      <point x="352" y="456" type="line" smooth="yes"/>
      <point x="308" y="471"/>
      <point x="280" y="488"/>
      <point x="280" y="528" type="curve" smooth="yes"/>
      <point x="280" y="564"/>
      <point x="320" y="584"/>
      <point x="380" y="584" type="curve" smooth="yes"/>
      <point x="436" y="584"/>
      <point x="476" y="572"/>
      <point x="504" y="556" type="curve"/>
      <point x="516" y="556" type="line"/>
      <point x="516" y="712" type="line"/>
      <point x="480" y="724"/>
      <point x="432" y="732"/>
      <point x="376" y="732" type="curve" smooth="yes"/>
      <point x="192" y="732"/>
      <point x="80" y="660"/>
      <point x="80" y="524" type="curve" smooth="yes"/>
      <point x="80" y="471"/>
      <point x="96" y="432"/>
      <point x="125" y="400" type="curve"/>
      <point x="76" y="361"/>
      <point x="40" y="312"/>
      <point x="40" y="244" type="curve" smooth="yes" name="hr02"/>
      <point x="40" y="128"/>
      <point x="119" y="92"/>
      <point x="216" y="60" type="curve" smooth="yes"/>
      <point x="264" y="44" type="line" smooth="yes"/>
      <point x="308" y="29"/>
      <point x="336" y="12"/>
      <point x="336" y="-28" type="curve" smooth="yes"/>
      <point x="336" y="-64"/>
      <point x="296" y="-84"/>
      <point x="236" y="-84" type="curve" smooth="yes"/>
      <point x="180" y="-84"/>
      <point x="140" y="-72"/>
      <point x="112" y="-56" type="curve"/>
    </contour>
    <contour>
      <point x="276" y="316" type="curve"/>
      <point x="300" y="308" type="line" smooth="yes"/>
      <point x="370" y="285"/>
      <point x="388" y="264"/>
      <point x="388" y="228" type="curve" smooth="yes" name="hr03"/>
      <point x="388" y="207"/>
      <point x="378" y="189"/>
      <point x="363" y="175" type="curve"/>
      <point x="340" y="184" type="line"/>
      <point x="316" y="192" type="line" smooth="yes"/>
      <point x="246" y="215"/>
      <point x="228" y="236"/>
      <point x="228" y="272" type="curve" smooth="yes"/>
      <point x="228" y="293"/>
      <point x="238" y="310"/>
      <point x="252" y="324" type="curve"/>
      <point x="260" y="321"/>
      <point x="268" y="318"/>
    </contour>
  </outline>
</glyph>
<glyph name="dieresis" format="1">
  <advance width="672"/>
  <unicode hex="00A8"/>
  <outline>
    <contour>
      <point x="434" y="612" type="curve" smooth="yes" name="hr00"/>
      <point x="475" y="612"/>
      <point x="506" y="638"/>
      <point x="506" y="684" type="curve" smooth="yes"/>
      <point x="506" y="728"/>
      <point x="475" y="756"/>
      <point x="434" y="756" type="curve" smooth="yes"/>
      <point x="393" y="756"/>
      <point x="362" y="728"/>
      <point x="362" y="684" type="curve" smooth="yes"/>
      <point x="362" y="638"/>
      <point x="393" y="612"/>
    </contour>
    <contour>
      <point x="238" y="612" type="curve" smooth="yes"/>
      <point x="279" y="612"/>
      <point x="310" y="638"/>
      <point x="310" y="684" type="curve" smooth="yes"/>
      <point x="310" y="728"/>
      <point x="279" y="756"/>
      <point x="238" y="756" type="curve" smooth="yes"/>
      <point x="197" y="756"/>
      <point x="166" y="728"/>
      <point x="166" y="684" type="curve" smooth="yes"/>
      <point x="166" y="638"/>
      <point x="197" y="612"/>
    </contour>
    <contour>
      <point x="336" y="548" type="move" name="_top"/>
    </contour>
  </outline>
</glyph>
<glyph name="ordfeminine" format="1">
  <advance width="463"/>
  <unicode hex="00AA"/>
  <outline>
    <contour>
      <point x="29" y="435" type="curve" smooth="yes" name="hr00"/>
      <point x="29" y="338"/>
      <point x="101" y="307"/>
      <point x="238" y="307" type="curve" smooth="yes"/>
      <point x="311" y="307"/>
      <point x="375" y="318"/>
      <point x="421" y="329" type="curve"/>
      <point x="424" y="335" type="line"/>
      <point x="417" y="361"/>
      <point x="415" y="419"/>
      <point x="415" y="452" type="curve" smooth="yes"/>
      <point x="415" y="544" type="line" smooth="yes"/>
      <point x="415" y="688"/>
      <point x="328" y="728"/>
      <point x="193" y="728" type="curve" smooth="yes"/>
      <point x="139" y="728"/>
      <point x="95" y="722"/>
      <point x="60" y="715" type="curve"/>
      <point x="60" y="593" type="line"/>
      <point x="70" y="593" type="line"/>
      <point x="93" y="603"/>
      <point x="130" y="609"/>
      <point x="175" y="609" type="curve" smooth="yes"/>
      <point x="227" y="609"/>
      <point x="255" y="599"/>
      <point x="255" y="558" type="curve"/>
      <point x="242" y="559"/>
      <point x="224" y="561"/>
      <point x="205" y="561" type="curve" smooth="yes"/>
      <point x="106" y="561"/>
      <point x="29" y="527"/>
    </contour>
    <contour>
      <point x="264" y="413" type="curve"/>
      <point x="253" y="410"/>
      <point x="239" y="409"/>
      <point x="227" y="409" type="curve" smooth="yes"/>
      <point x="197" y="409"/>
      <point x="179" y="416"/>
      <point x="179" y="439" type="curve" smooth="yes"/>
      <point x="179" y="461"/>
      <point x="193" y="472"/>
      <point x="229" y="472" type="curve" smooth="yes"/>
      <point x="242" y="472"/>
      <point x="250" y="472"/>
      <point x="255" y="471" type="curve"/>
      <point x="256" y="447"/>
      <point x="260" y="427"/>
    </contour>
  </outline>
</glyph>
<glyph name="guillemotleft" format="1">
  <advance width="660"/>
  <unicode hex="00AB"/>
  <outline>
    <contour>
      <point x="604" y="36" type="line" name="hr00"/>
      <point x="612" y="36" type="line"/>
      <point x="612" y="224" type="line"/>
      <point x="504" y="308" type="line"/>
      <point x="612" y="392" type="line"/>
      <point x="612" y="580" type="line"/>
      <point x="604" y="580" type="line"/>
      <point x="352" y="360" type="line"/>
      <point x="352" y="256" type="line"/>
    </contour>
    <contour>
      <point x="288" y="36" type="line"/>
      <point x="296" y="36" type="line"/>
      <point x="296" y="224" type="line"/>
      <point x="188" y="308" type="line"/>
      <point x="296" y="392" type="line"/>
      <point x="296" y="580" type="line"/>
      <point x="288" y="580" type="line"/>
      <point x="36" y="360" type="line"/>
      <point x="36" y="256" type="line"/>
    </contour>
  </outline>
</glyph>
<glyph name="logicalnot" format="1">
  <advance width="616"/>
  <unicode hex="00AC"/>
  <outline>
    <contour>
      <point x="64" y="252" type="line" name="hr00"/>
      <point x="424" y="252" type="line"/>
      <point x="424" y="64" type="line"/>
      <point x="552" y="64" type="line"/>
      <point x="552" y="380" type="line"/>
      <point x="64" y="380" type="line"/>
    </contour>
  </outline>
</glyph>
<glyph name="registered" format="1">
  <advance width="872"/>
  <unicode hex="00AE"/>
  <outline>
    <contour>
      <point x="32" y="360" type="curve" smooth="yes"/>
      <point x="32" y="112"/>
      <point x="188" y="-28"/>
      <point x="436" y="-28" type="curve" smooth="yes"/>
      <point x="684" y="-28"/>
      <point x="840" y="112"/>
      <point x="840" y="360" type="curve" smooth="yes"/>
      <point x="840" y="608"/>
      <point x="684" y="748"/>
      <point x="436" y="748" type="curve" smooth="yes"/>
      <point x="188" y="748"/>
      <point x="32" y="608"/>
    </contour>
    <contour>
      <point x="132" y="360" type="curve" smooth="yes"/>
      <point x="132" y="568"/>
      <point x="252" y="660"/>
      <point x="436" y="660" type="curve" smooth="yes"/>
      <point x="620" y="660"/>
      <point x="740" y="568"/>
      <point x="740" y="360" type="curve" smooth="yes"/>
      <point x="740" y="152"/>
      <point x="620" y="60"/>
      <point x="436" y="60" type="curve" smooth="yes"/>
      <point x="252" y="60"/>
      <point x="132" y="152"/>
    </contour>
    <contour>
      <point x="252" y="168" type="line"/>
      <point x="388" y="168" type="line"/>
      <point x="388" y="248" type="line" name="hr01"/>
      <point x="412" y="248" type="line" smooth="yes"/>
      <point x="420" y="248"/>
      <point x="428" y="248"/>
      <point x="436" y="249" type="curve"/>
      <point x="492" y="168" type="line" name="hr02"/>
      <point x="640" y="168" type="line"/>
      <point x="640" y="176" type="line"/>
      <point x="552" y="287" type="line"/>
      <point x="595" y="317"/>
      <point x="620" y="362"/>
      <point x="620" y="416" type="curve" smooth="yes"/>
      <point x="620" y="508"/>
      <point x="568" y="560"/>
      <point x="436" y="560" type="curve" smooth="yes"/>
      <point x="252" y="560" type="line"/>
    </contour>
    <contour>
      <point x="424" y="460" type="line" smooth="yes"/>
      <point x="461" y="460"/>
      <point x="484" y="448"/>
      <point x="484" y="408" type="curve" smooth="yes"/>
      <point x="484" y="376"/>
      <point x="472" y="344"/>
      <point x="416" y="344" type="curve" smooth="yes"/>
      <point x="388" y="344" type="line"/>
      <point x="388" y="460" type="line"/>
    </contour>
  </outline>
</glyph>
<glyph name="macron" format="1">
  <advance width="672"/>
  <unicode hex="00AF"/>
  <outline>
    <contour>
      <point x="166" y="618" type="line" name="hr00"/>
      <point x="506" y="618" type="line"/>
      <point x="506" y="720" type="line"/>
      <point x="166" y="720" type="line"/>
    </contour>
    <contour>
      <point x="336" y="548" type="move" name="_top"/>
    </contour>
  </outline>
</glyph>
<glyph name="degree" format="1">
  <advance width="432"/>
  <unicode hex="00B0"/>
  <outline>
    <contour>
      <point x="216" y="460" type="curve" smooth="yes" name="hr00"/>
      <point x="304" y="460"/>
      <point x="372" y="516"/>
      <point x="372" y="608" type="curve"/>
      <point x="372" y="700"/>
      <point x="304" y="756"/>
      <point x="216" y="756" type="curve"/>
      <point x="128" y="756"/>
      <point x="60" y="700"/>
      <point x="60" y="608" type="curve" smooth="yes"/>
      <point x="60" y="516"/>
      <point x="128" y="460"/>
    </contour>
    <contour>
      <point x="216" y="544" type="curve" smooth="yes"/>
      <point x="180" y="544"/>
      <point x="152" y="568"/>
      <point x="152" y="608" type="curve" smooth="yes"/>
      <point x="152" y="648"/>
      <point x="180" y="672"/>
      <point x="216" y="672" type="curve" smooth="yes"/>
      <point x="252" y="672"/>
      <point x="280" y="648"/>
      <point x="280" y="608" type="curve" smooth="yes"/>
      <point x="280" y="568"/>
      <point x="252" y="544"/>
    </contour>
  </outline>
</glyph>
<glyph name="plusminus" format="1">
  <advance width="616"/>
  <unicode hex="00B1"/>
  <outline>
    <contour>
      <point x="64" y="384" type="line" name="hr00"/>
      <point x="244" y="384" type="line"/>
      <point x="244" y="196" type="line"/>
      <point x="372" y="196" type="line"/>
      <point x="372" y="384" type="line"/>
      <point x="552" y="384" type="line"/>
      <point x="552" y="512" type="line"/>
      <point x="372" y="512" type="line"/>
      <point x="372" y="700" type="line"/>
      <point x="244" y="700" type="line"/>
      <point x="244" y="512" type="line"/>
      <point x="64" y="512" type="line"/>
    </contour>
    <contour>
      <point x="64" y="0" type="line"/>
      <point x="552" y="0" type="line"/>
      <point x="552" y="128" type="line"/>
      <point x="64" y="128" type="line"/>
    </contour>
  </outline>
</glyph>
<glyph name="acute" format="1">
  <advance width="672"/>
  <unicode hex="00B4"/>
  <outline>
    <contour>
      <point x="362" y="604" type="line" name="hr00"/>
      <point x="485" y="756" type="line"/>
      <point x="485" y="760" type="line"/>
      <point x="317" y="760" type="line"/>
      <point x="234" y="608" type="line"/>
      <point x="234" y="604" type="line"/>
    </contour>
    <contour>
      <point x="336" y="548" type="move" name="_top"/>
    </contour>
  </outline>
</glyph>
<glyph name="mu" format="1">
  <advance width="688"/>
  <unicode hex="00B5"/>
  <outline>
    <contour>
      <point x="64" y="-248" type="line" name="hr00"/>
      <point x="284" y="-248" type="line"/>
      <point x="288" y="-240" type="line"/>
      <point x="279" y="-204"/>
      <point x="276" y="-124"/>
      <point x="276" y="-84" type="curve" smooth="yes"/>
      <point x="276" y="0" type="line"/>
      <point x="307" y="-8"/>
      <point x="342" y="-12"/>
      <point x="384" y="-12" type="curve" smooth="yes"/>
      <point x="464" y="-12"/>
      <point x="576" y="8"/>
      <point x="632" y="28" type="curve"/>
      <point x="636" y="36" type="line"/>
      <point x="627" y="72"/>
      <point x="624" y="156"/>
      <point x="624" y="196" type="curve" smooth="yes"/>
      <point x="624" y="548" type="line"/>
      <point x="404" y="548" type="line"/>
      <point x="400" y="540" type="line"/>
      <point x="409" y="504"/>
      <point x="412" y="424"/>
      <point x="412" y="384" type="curve" smooth="yes"/>
      <point x="412" y="236" type="line" smooth="yes"/>
      <point x="412" y="202"/>
      <point x="413" y="177"/>
      <point x="417" y="158" type="curve"/>
      <point x="403" y="154"/>
      <point x="386" y="152"/>
      <point x="368" y="152" type="curve" smooth="yes"/>
      <point x="316" y="152"/>
      <point x="276" y="172"/>
      <point x="276" y="248" type="curve" smooth="yes"/>
      <point x="276" y="548" type="line"/>
      <point x="56" y="548" type="line"/>
      <point x="52" y="540" type="line"/>
      <point x="61" y="504"/>
      <point x="64" y="424"/>
      <point x="64" y="384" type="curve" smooth="yes"/>
    </contour>
  </outline>
</glyph>
<glyph name="paragraph" format="1">
  <advance width="712"/>
  <unicode hex="00B6"/>
  <outline>
    <contour>
      <point x="272" y="248" type="curve" name="hr00"/>
      <point x="288" y="248" type="line"/>
      <point x="288" y="-250" type="line"/>
      <point x="432" y="-250" type="line"/>
      <point x="432" y="572" type="line"/>
      <point x="500" y="572" type="line"/>
      <point x="500" y="-250" type="line"/>
      <point x="636" y="-250" type="line"/>
      <point x="636" y="720" type="line"/>
      <point x="272" y="720" type="line" smooth="yes"/>
      <point x="145" y="720"/>
      <point x="36" y="636"/>
      <point x="36" y="484" type="curve" smooth="yes"/>
      <point x="36" y="332"/>
      <point x="145" y="248"/>
    </contour>
  </outline>
</glyph>
<glyph name="periodcentered" format="1">
  <advance width="284"/>
  <unicode hex="00B7"/>
  <outline>
    <contour>
      <point x="142" y="258" type="curve" name="hr00"/>
      <point x="208" y="258"/>
      <point x="252" y="302"/>
      <point x="252" y="368" type="curve" smooth="yes"/>
      <point x="252" y="434"/>
      <point x="208" y="478"/>
      <point x="142" y="478" type="curve"/>
      <point x="76" y="478"/>
      <point x="32" y="434"/>
      <point x="32" y="368" type="curve" smooth="yes"/>
      <point x="32" y="302"/>
      <point x="76" y="258"/>
    </contour>
  </outline>
</glyph>
<glyph name="cedilla" format="1">
  <advance width="672"/>
  <unicode hex="00B8"/>
  <outline>
    <contour>
      <point x="294" y="24" type="line"/>
      <point x="294" y="-92" type="line"/>
      <point x="358" y="-92"/>
      <point x="386" y="-108"/>
      <point x="386" y="-134" type="curve" smooth="yes"/>
      <point x="386" y="-156"/>
      <point x="374" y="-172"/>
      <point x="330" y="-172" type="curve" smooth="yes"/>
      <point x="302" y="-172"/>
      <point x="278" y="-168"/>
      <point x="254" y="-160" type="curve"/>
      <point x="250" y="-160" type="line" name="hr01"/>
      <point x="250" y="-238" type="line"/>
      <point x="274" y="-246"/>
      <point x="306" y="-250"/>
      <point x="342" y="-250" type="curve" smooth="yes"/>
      <point x="414" y="-250"/>
      <point x="486" y="-220"/>
      <point x="486" y="-140" type="curve" smooth="yes"/>
      <point x="486" y="-84"/>
      <point x="446" y="-40"/>
      <point x="378" y="-32" type="curve" name="hr02"/>
      <point x="378" y="24" type="line"/>
    </contour>
    <contour>
      <point x="336" y="0" type="move" name="_bottom"/>
    </contour>
  </outline>
</glyph>
<glyph name="ordmasculine" format="1">
  <advance width="496"/>
  <unicode hex="00BA"/>
  <outline>
    <contour>
      <point x="27" y="517" type="curve" smooth="yes" name="hr00"/>
      <point x="27" y="369"/>
      <point x="120" y="307"/>
      <point x="248" y="307" type="curve" smooth="yes"/>
      <point x="377" y="307"/>
      <point x="469" y="369"/>
      <point x="469" y="517" type="curve" smooth="yes"/>
      <point x="469" y="665"/>
      <point x="377" y="728"/>
      <point x="248" y="728" type="curve" smooth="yes"/>
      <point x="120" y="728"/>
      <point x="27" y="665"/>
    </contour>
    <contour>
      <point x="198" y="517" type="curve" smooth="yes"/>
      <point x="198" y="580"/>
      <point x="211" y="613"/>
      <point x="248" y="613" type="curve" smooth="yes"/>
      <point x="285" y="613"/>
      <point x="298" y="580"/>
      <point x="298" y="517" type="curve" smooth="yes"/>
      <point x="298" y="454"/>
      <point x="285" y="421"/>
      <point x="248" y="421" type="curve" smooth="yes"/>
      <point x="211" y="421"/>
      <point x="198" y="454"/>
    </contour>
  </outline>
</glyph>
<glyph name="guillemotright" format="1">
  <advance width="660"/>
  <unicode hex="00BB"/>
  <outline>
    <contour>
      <point x="364" y="36" type="line" name="hr00"/>
      <point x="372" y="36" type="line"/>
      <point x="624" y="256" type="line"/>
      <point x="624" y="360" type="line"/>
      <point x="372" y="580" type="line"/>
      <point x="364" y="580" type="line"/>
      <point x="364" y="392" type="line"/>
      <point x="472" y="308" type="line"/>
      <point x="364" y="224" type="line"/>
    </contour>
    <contour>
      <point x="48" y="36" type="line"/>
      <point x="56" y="36" type="line"/>
      <point x="308" y="256" type="line"/>
      <point x="308" y="360" type="line"/>
      <point x="56" y="580" type="line"/>
      <point x="48" y="580" type="line"/>
      <point x="48" y="392" type="line"/>
      <point x="156" y="308" type="line"/>
      <point x="48" y="224" type="line"/>
    </contour>
  </outline>
</glyph>
<glyph name="questiondown" format="1">
  <advance width="508"/>
  <unicode hex="00BF"/>
  <outline>
    <contour>
      <point x="286" y="330" type="curve" smooth="yes"/>
      <point x="352" y="330"/>
      <point x="396" y="374"/>
      <point x="396" y="440" type="curve" smooth="yes"/>
      <point x="396" y="506"/>
      <point x="352" y="550"/>
      <point x="286" y="550" type="curve" smooth="yes"/>
      <point x="220" y="550"/>
      <point x="176" y="506"/>
      <point x="176" y="440" type="curve" smooth="yes"/>
      <point x="176" y="374"/>
      <point x="220" y="330"/>
    </contour>
    <contour>
      <point x="24" y="-10" type="curve" smooth="yes" name="hr01"/>
      <point x="24" y="-134"/>
      <point x="112" y="-194"/>
      <point x="264" y="-194" type="curve" smooth="yes"/>
      <point x="340" y="-194"/>
      <point x="408" y="-182"/>
      <point x="460" y="-162" type="curve"/>
      <point x="460" y="-2" type="line"/>
      <point x="448" y="-2" type="line"/>
      <point x="412" y="-22"/>
      <point x="356" y="-38"/>
      <point x="312" y="-38" type="curve" smooth="yes"/>
      <point x="252" y="-38"/>
      <point x="228" y="-22"/>
      <point x="228" y="14" type="curve" smooth="yes"/>
      <point x="228" y="46"/>
      <point x="251" y="64"/>
      <point x="290" y="90" type="curve" smooth="yes"/>
      <point x="320" y="110" type="line" smooth="yes"/>
      <point x="372" y="145"/>
      <point x="384" y="186"/>
      <point x="384" y="250" type="curve" smooth="yes" name="hr02"/>
      <point x="384" y="286" type="line"/>
      <point x="196" y="286" type="line"/>
      <point x="196" y="254" type="line" smooth="yes"/>
      <point x="196" y="218"/>
      <point x="191" y="199"/>
      <point x="160" y="178" type="curve" smooth="yes"/>
      <point x="136" y="162" type="line" smooth="yes"/>
      <point x="104" y="141"/>
      <point x="24" y="90"/>
    </contour>
  </outline>
</glyph>
<glyph name="AE" format="1">
  <advance width="1000"/>
  <unicode hex="00C6"/>
  <outline>
    <contour>
      <point x="456" y="0" type="line"/>
      <point x="952" y="0" type="line"/>
      <point x="952" y="176" type="line"/>
      <point x="668" y="176" type="line"/>
      <point x="668" y="252" type="line"/>
      <point x="896" y="252" type="line"/>
      <point x="896" y="424" type="line"/>
      <point x="668" y="424" type="line"/>
      <point x="668" y="536" type="line"/>
      <point x="944" y="536" type="line"/>
      <point x="944" y="720" type="line" name="hr01"/>
      <point x="604" y="720" type="line"/>
      <point x="562" y="725"/>
      <point x="517" y="728"/>
      <point x="480" y="728" type="curve" smooth="yes" name="hr02"/>
      <point x="288" y="728"/>
      <point x="147" y="697"/>
      <point x="112" y="492" type="curve" smooth="yes"/>
      <point x="28" y="0" type="line"/>
      <point x="240" y="0" type="line"/>
      <point x="268" y="168" type="line" name="hr03"/>
      <point x="456" y="168" type="line"/>
    </contour>
    <contour>
      <point x="316" y="460" type="line" smooth="yes"/>
      <point x="326" y="523"/>
      <point x="356" y="552"/>
      <point x="432" y="552" type="curve" smooth="yes"/>
      <point x="438" y="552"/>
      <point x="448" y="551"/>
      <point x="459" y="551" type="curve"/>
      <point x="457" y="532"/>
      <point x="456" y="511"/>
      <point x="456" y="488" type="curve" smooth="yes"/>
      <point x="456" y="336" type="line" name="hr05"/>
      <point x="295" y="336" type="line"/>
    </contour>
    <contour>
      <point x="514" y="728" type="move" name="top"/>
    </contour>
  </outline>
</glyph>
<glyph name="Eth" format="1">
  <advance width="780"/>
  <unicode hex="00D0"/>
  <outline>
    <contour>
      <point x="0" y="300" type="line" name="hr00"/>
      <point x="68" y="300" type="line"/>
      <point x="68" y="0" type="line"/>
      <point x="328" y="0" type="line" smooth="yes"/>
      <point x="620" y="0"/>
      <point x="744" y="176"/>
      <point x="744" y="392" type="curve" smooth="yes"/>
      <point x="744" y="600"/>
      <point x="616" y="720"/>
      <point x="360" y="720" type="curve" smooth="yes"/>
      <point x="68" y="720" type="line"/>
      <point x="68" y="424" type="line"/>
      <point x="0" y="424" type="line"/>
    </contour>
    <contour>
      <point x="360" y="540" type="line" smooth="yes"/>
      <point x="488" y="540"/>
      <point x="528" y="480"/>
      <point x="528" y="388" type="curve" smooth="yes"/>
      <point x="528" y="264"/>
      <point x="468" y="180"/>
      <point x="340" y="180" type="curve" smooth="yes"/>
      <point x="280" y="180" type="line"/>
      <point x="280" y="300" type="line"/>
      <point x="364" y="300" type="line"/>
      <point x="364" y="424" type="line"/>
      <point x="280" y="424" type="line"/>
      <point x="280" y="540" type="line"/>
    </contour>
  </outline>
</glyph>
<glyph name="multiply" format="1">
  <advance width="616"/>
  <unicode hex="00D7"/>
  <outline>
    <contour>
      <point x="156" y="78" type="line" name="hr00"/>
      <point x="308" y="230" type="line"/>
      <point x="460" y="78" type="line"/>
      <point x="546" y="164" type="line"/>
      <point x="394" y="316" type="line"/>
      <point x="546" y="468" type="line"/>
      <point x="460" y="554" type="line"/>
      <point x="308" y="402" type="line"/>
      <point x="156" y="554" type="line"/>
      <point x="70" y="468" type="line"/>
      <point x="222" y="316" type="line"/>
      <point x="70" y="164" type="line"/>
    </contour>
  </outline>
</glyph>
<glyph name="Oslash" format="1">
  <advance width="832"/>
  <unicode hex="00D8"/>
  <outline>
    <contour>
      <point x="36" y="360" type="curve" smooth="yes" name="hr00"/>
      <point x="36" y="206"/>
      <point x="100" y="89"/>
      <point x="219" y="30" type="curve"/>
      <point x="178" y="-72" type="line"/>
      <point x="306" y="-72" type="line"/>
      <point x="333" y="-5" type="line"/>
      <point x="359" y="-9"/>
      <point x="387" y="-12"/>
      <point x="416" y="-12" type="curve" smooth="yes"/>
      <point x="660" y="-12"/>
      <point x="796" y="140"/>
      <point x="796" y="360" type="curve" smooth="yes"/>
      <point x="796" y="511"/>
      <point x="732" y="629"/>
      <point x="613" y="689" type="curve"/>
      <point x="654" y="792" type="line"/>
      <point x="526" y="792" type="line"/>
      <point x="499" y="725" type="line"/>
      <point x="473" y="730"/>
      <point x="445" y="732"/>
      <point x="416" y="732" type="curve" smooth="yes"/>
      <point x="172" y="732"/>
      <point x="36" y="580"/>
    </contour>
    <contour>
      <point x="252" y="360" type="curve" smooth="yes"/>
      <point x="252" y="468"/>
      <point x="296" y="556"/>
      <point x="416" y="556" type="curve" smooth="yes"/>
      <point x="421" y="556"/>
      <point x="426" y="556"/>
      <point x="431" y="555" type="curve"/>
      <point x="294" y="215" type="line"/>
      <point x="264" y="251"/>
      <point x="252" y="302"/>
    </contour>
    <contour>
      <point x="580" y="360" type="curve" smooth="yes"/>
      <point x="580" y="252"/>
      <point x="536" y="164"/>
      <point x="416" y="164" type="curve" smooth="yes"/>
      <point x="401" y="164" type="line"/>
      <point x="538" y="504" type="line"/>
      <point x="568" y="468"/>
      <point x="580" y="417"/>
    </contour>
    <contour>
      <point x="416" y="720" type="move" name="top"/>
    </contour>
  </outline>
</glyph>
<glyph name="Thorn" format="1">
  <advance width="712"/>
  <unicode hex="00DE"/>
  <outline>
    <contour>
      <point x="68" y="0" type="line" name="hr00"/>
      <point x="280" y="0" type="line"/>
      <point x="280" y="80" type="line"/>
      <point x="356" y="80" type="line" smooth="yes"/>
      <point x="564" y="80"/>
      <point x="680" y="204"/>
      <point x="680" y="384" type="curve" smooth="yes"/>
      <point x="680" y="540"/>
      <point x="580" y="640"/>
      <point x="372" y="640" type="curve" smooth="yes"/>
      <point x="280" y="640" type="line"/>
      <point x="280" y="720" type="line"/>
      <point x="68" y="720" type="line"/>
    </contour>
    <contour>
      <point x="376" y="464" type="line" smooth="yes"/>
      <point x="432" y="464"/>
      <point x="472" y="436"/>
      <point x="472" y="376" type="curve" smooth="yes"/>
      <point x="472" y="308"/>
      <point x="440" y="248"/>
      <point x="348" y="248" type="curve" smooth="yes"/>
      <point x="280" y="248" type="line"/>
      <point x="280" y="464" type="line"/>
    </contour>
  </outline>
</glyph>
<glyph name="germandbls" format="1">
  <advance width="720"/>
  <unicode hex="00DF"/>
  <outline>
    <contour>
      <point x="8" y="388" type="line"/>
      <point x="100" y="388" type="line"/>
      <point x="100" y="0" type="line"/>
      <point x="312" y="0" type="line"/>
      <point x="312" y="532" type="line" smooth="yes"/>
      <point x="312" y="584"/>
      <point x="324" y="624"/>
      <point x="376" y="624" type="curve" smooth="yes"/>
      <point x="424" y="624"/>
      <point x="440" y="588"/>
      <point x="440" y="556" type="curve" smooth="yes"/>
      <point x="440" y="484"/>
      <point x="388" y="468"/>
      <point x="388" y="384" type="curve" smooth="yes" name="hr01"/>
      <point x="388" y="320"/>
      <point x="417" y="282"/>
      <point x="456" y="256" type="curve" smooth="yes"/>
      <point x="468" y="248" type="line" smooth="yes"/>
      <point x="487" y="235"/>
      <point x="500" y="220"/>
      <point x="500" y="196" type="curve" smooth="yes" name="hr02"/>
      <point x="500" y="172"/>
      <point x="484" y="148"/>
      <point x="444" y="148" type="curve" smooth="yes"/>
      <point x="424" y="148"/>
      <point x="404" y="152"/>
      <point x="384" y="160" type="curve"/>
      <point x="376" y="160" type="line"/>
      <point x="376" y="4" type="line"/>
      <point x="410" y="-5"/>
      <point x="428" y="-8"/>
      <point x="476" y="-8" type="curve" smooth="yes" name="hr03"/>
      <point x="596" y="-8"/>
      <point x="696" y="44"/>
      <point x="696" y="168" type="curve" smooth="yes"/>
      <point x="696" y="233"/>
      <point x="673" y="279"/>
      <point x="636" y="316" type="curve" smooth="yes" name="hr04"/>
      <point x="628" y="324" type="line" smooth="yes"/>
      <point x="602" y="350"/>
      <point x="584" y="364"/>
      <point x="584" y="392" type="curve" smooth="yes" name="hr05"/>
      <point x="584" y="448"/>
      <point x="636" y="464"/>
      <point x="636" y="572" type="curve" smooth="yes" name="hr06"/>
      <point x="636" y="708"/>
      <point x="532" y="776"/>
      <point x="380" y="776" type="curve" smooth="yes"/>
      <point x="222" y="776"/>
      <point x="109" y="713"/>
      <point x="100" y="548" type="curve"/>
      <point x="8" y="548" type="line"/>
    </contour>
  </outline>
</glyph>
<glyph name="ae" format="1">
  <advance width="940"/>
  <unicode hex="00E6"/>
  <outline>
    <contour>
      <point x="90" y="384" type="line"/>
      <point x="102" y="384" type="line"/>
      <point x="134" y="398"/>
      <point x="186" y="412"/>
      <point x="246" y="412" type="curve" smooth="yes"/>
      <point x="322" y="412"/>
      <point x="362" y="396"/>
      <point x="362" y="332" type="curve" smooth="yes"/>
      <point x="362" y="329" type="line"/>
      <point x="345" y="331"/>
      <point x="311" y="336"/>
      <point x="276" y="336" type="curve" smooth="yes"/>
      <point x="140" y="336"/>
      <point x="36" y="288"/>
      <point x="36" y="164" type="curve" smooth="yes"/>
      <point x="36" y="32"/>
      <point x="132" y="-12"/>
      <point x="304" y="-12" type="curve" smooth="yes"/>
      <point x="381" y="-12"/>
      <point x="444" y="5"/>
      <point x="497" y="25" type="curve"/>
      <point x="551" y="-1"/>
      <point x="620" y="-12"/>
      <point x="698" y="-12" type="curve" smooth="yes"/>
      <point x="775" y="-12"/>
      <point x="820" y="-4"/>
      <point x="864" y="12" type="curve"/>
      <point x="864" y="172" type="line"/>
      <point x="852" y="172" type="line"/>
      <point x="824" y="156"/>
      <point x="768" y="144"/>
      <point x="708" y="144" type="curve" smooth="yes" name="hr01"/>
      <point x="616" y="144"/>
      <point x="572" y="170"/>
      <point x="560" y="220" type="curve"/>
      <point x="902" y="220" type="line"/>
      <point x="904" y="260" type="line" smooth="yes"/>
      <point x="913" y="432"/>
      <point x="848" y="564"/>
      <point x="656" y="564" type="curve" smooth="yes"/>
      <point x="580" y="564"/>
      <point x="515" y="545"/>
      <point x="467" y="509" type="curve"/>
      <point x="420" y="546"/>
      <point x="353" y="564"/>
      <point x="270" y="564" type="curve" smooth="yes"/>
      <point x="198" y="564"/>
      <point x="138" y="554"/>
      <point x="90" y="540" type="curve"/>
    </contour>
    <contour>
      <point x="390" y="134" type="curve"/>
      <point x="368" y="125"/>
      <point x="340" y="120"/>
      <point x="304" y="120" type="curve" smooth="yes" name="hr02"/>
      <point x="256" y="120"/>
      <point x="228" y="132"/>
      <point x="228" y="168" type="curve" smooth="yes"/>
      <point x="228" y="204"/>
      <point x="252" y="220"/>
      <point x="308" y="220" type="curve" smooth="yes"/>
      <point x="345" y="220"/>
      <point x="358" y="213"/>
      <point x="369" y="209" type="curve"/>
      <point x="373" y="181"/>
      <point x="380" y="156"/>
    </contour>
    <contour>
      <point x="632" y="424" type="curve" smooth="yes"/>
      <point x="683" y="424"/>
      <point x="704" y="392"/>
      <point x="704" y="340" type="curve" smooth="yes"/>
      <point x="704" y="332" type="line"/>
      <point x="557" y="332" type="line"/>
      <point x="562" y="387"/>
      <point x="584" y="424"/>
    </contour>
    <contour>
      <point x="468" y="548" type="move" name="top"/>
    </contour>
  </outline>
</glyph>
<glyph name="eth" format="1">
  <advance width="660"/>
  <unicode hex="00F0"/>
  <outline>
    <contour>
      <point x="40" y="244" type="curve" smooth="yes"/>
      <point x="40" y="68"/>
      <point x="162" y="-12"/>
      <point x="318" y="-12" type="curve" smooth="yes"/>
      <point x="546" y="-12"/>
      <point x="620" y="156"/>
      <point x="620" y="344" type="curve" smooth="yes"/>
      <point x="620" y="476"/>
      <point x="572" y="603"/>
      <point x="456" y="674" type="curve"/>
      <point x="498" y="724" type="line"/>
      <point x="422" y="788" type="line"/>
      <point x="361" y="714" type="line"/>
      <point x="320" y="726"/>
      <point x="274" y="732"/>
      <point x="222" y="732" type="curve" smooth="yes"/>
      <point x="178" y="732"/>
      <point x="132" y="728"/>
      <point x="100" y="720" type="curve"/>
      <point x="100" y="560" type="line"/>
      <point x="108" y="560" type="line"/>
      <point x="136" y="570"/>
      <point x="174" y="576"/>
      <point x="214" y="576" type="curve" smooth="yes"/>
      <point x="224" y="576"/>
      <point x="235" y="575"/>
      <point x="244" y="575" type="curve" name="hr01"/>
      <point x="222" y="548" type="line"/>
      <point x="298" y="484" type="line"/>
      <point x="348" y="544" type="line"/>
      <point x="384" y="520"/>
      <point x="403" y="485"/>
      <point x="412" y="444" type="curve"/>
      <point x="385" y="460"/>
      <point x="347" y="472"/>
      <point x="296" y="472" type="curve" smooth="yes"/>
      <point x="124" y="472"/>
      <point x="40" y="372"/>
    </contour>
    <contour>
      <point x="330" y="324" type="curve" smooth="yes"/>
      <point x="368" y="324"/>
      <point x="402" y="313"/>
      <point x="418" y="301" type="curve"/>
      <point x="413" y="199"/>
      <point x="391" y="144"/>
      <point x="318" y="144" type="curve" smooth="yes"/>
      <point x="262" y="144"/>
      <point x="232" y="180"/>
      <point x="232" y="236" type="curve" smooth="yes"/>
      <point x="232" y="288"/>
      <point x="266" y="324"/>
    </contour>
  </outline>
</glyph>
<glyph name="divide" format="1">
  <advance width="616"/>
  <unicode hex="00F7"/>
  <outline>
    <contour>
      <point x="308" y="424" type="curve" smooth="yes" name="hr00"/>
      <point x="349" y="424"/>
      <point x="380" y="450"/>
      <point x="380" y="496" type="curve" smooth="yes"/>
      <point x="380" y="540"/>
      <point x="349" y="568"/>
      <point x="308" y="568" type="curve" smooth="yes"/>
      <point x="267" y="568"/>
      <point x="236" y="540"/>
      <point x="236" y="496" type="curve" smooth="yes"/>
      <point x="236" y="450"/>
      <point x="267" y="424"/>
    </contour>
    <contour>
      <point x="236" y="144" type="curve" smooth="yes"/>
      <point x="236" y="98"/>
      <point x="267" y="72"/>
      <point x="308" y="72" type="curve" smooth="yes"/>
      <point x="349" y="72"/>
      <point x="380" y="98"/>
      <point x="380" y="144" type="curve" smooth="yes"/>
      <point x="380" y="188"/>
      <point x="349" y="216"/>
      <point x="308" y="216" type="curve" smooth="yes"/>
      <point x="267" y="216"/>
      <point x="236" y="188"/>
    </contour>
    <contour>
      <point x="64" y="252" type="line"/>
      <point x="552" y="252" type="line"/>
      <point x="552" y="380" type="line"/>
      <point x="64" y="380" type="line"/>
    </contour>
  </outline>
</glyph>
<glyph name="oslash" format="1">
  <advance width="672"/>
  <unicode hex="00F8"/>
  <outline>
    <contour>
      <point x="40" y="276" type="curve" smooth="yes" name="hr00"/>
      <point x="40" y="139"/>
      <point x="94" y="57"/>
      <point x="179" y="18" type="curve"/>
      <point x="134" y="-84" type="line"/>
      <point x="218" y="-84" type="line"/>
      <point x="253" y="-5" type="line"/>
      <point x="279" y="-10"/>
      <point x="307" y="-12"/>
      <point x="336" y="-12" type="curve" smooth="yes"/>
      <point x="508" y="-12"/>
      <point x="632" y="68"/>
      <point x="632" y="276" type="curve" smooth="yes"/>
      <point x="632" y="413"/>
      <point x="578" y="494"/>
      <point x="492" y="534" type="curve"/>
      <point x="538" y="636" type="line"/>
      <point x="454" y="636" type="line"/>
      <point x="419" y="557" type="line"/>
      <point x="393" y="562"/>
      <point x="365" y="564"/>
      <point x="336" y="564" type="curve" smooth="yes"/>
      <point x="164" y="564"/>
      <point x="40" y="484"/>
    </contour>
    <contour>
      <point x="416" y="276" type="curve" smooth="yes"/>
      <point x="416" y="184"/>
      <point x="392" y="136"/>
      <point x="336" y="136" type="curve" smooth="yes"/>
      <point x="329" y="136"/>
      <point x="322" y="136"/>
      <point x="316" y="138" type="curve"/>
      <point x="409" y="347" type="line"/>
      <point x="414" y="327"/>
      <point x="416" y="303"/>
    </contour>
    <contour>
      <point x="256" y="276" type="curve" smooth="yes"/>
      <point x="256" y="368"/>
      <point x="280" y="416"/>
      <point x="336" y="416" type="curve" smooth="yes"/>
      <point x="343" y="416"/>
      <point x="349" y="415"/>
      <point x="355" y="414" type="curve"/>
      <point x="262" y="205" type="line"/>
      <point x="258" y="224"/>
      <point x="256" y="248"/>
    </contour>
    <contour>
      <point x="336" y="548" type="move" name="top"/>
    </contour>
  </outline>
</glyph>
<glyph name="thorn" format="1">
  <advance width="684"/>
  <unicode hex="00FE"/>
  <outline>
    <contour>
      <point x="68" y="-232" type="line" name="hr00"/>
      <point x="280" y="-232" type="line"/>
      <point x="280" y="-8" type="line"/>
      <point x="298" y="-10"/>
      <point x="324" y="-12"/>
      <point x="348" y="-12" type="curve" smooth="yes"/>
      <point x="568" y="-12"/>
      <point x="644" y="136"/>
      <point x="644" y="276" type="curve" smooth="yes"/>
      <point x="644" y="480"/>
      <point x="500" y="564"/>
      <point x="364" y="564" type="curve" smooth="yes"/>
      <point x="333" y="564"/>
      <point x="305" y="561"/>
      <point x="280" y="555" type="curve"/>
      <point x="280" y="760" type="line"/>
      <point x="60" y="760" type="line"/>
      <point x="56" y="752" type="line"/>
      <point x="65" y="716"/>
      <point x="68" y="636"/>
      <point x="68" y="596" type="curve" smooth="yes"/>
    </contour>
    <contour>
      <point x="320" y="412" type="curve" smooth="yes"/>
      <point x="400" y="412"/>
      <point x="428" y="352"/>
      <point x="428" y="276" type="curve" smooth="yes"/>
      <point x="428" y="196"/>
      <point x="400" y="136"/>
      <point x="312" y="136" type="curve" smooth="yes"/>
      <point x="298" y="136"/>
      <point x="287" y="138"/>
      <point x="280" y="139" type="curve"/>
      <point x="280" y="406" type="line"/>
      <point x="292" y="409"/>
      <point x="306" y="412"/>
    </contour>
  </outline>
</glyph>
<glyph name="dcaron" format="1">
  <advance width="684"/>
  <unicode hex="010F"/>
  <outline>
    <contour>
      <point x="40" y="272" type="curve" smooth="yes"/>
      <point x="40" y="60"/>
      <point x="172" y="-12"/>
      <point x="396" y="-12" type="curve" smooth="yes"/>
      <point x="480" y="-12"/>
      <point x="570" y="0"/>
      <point x="620" y="12" type="curve"/>
      <point x="624" y="20" type="line"/>
      <point x="616" y="56"/>
      <point x="616" y="136"/>
      <point x="616" y="176" type="curve" smooth="yes"/>
      <point x="616" y="760" type="line"/>
      <point x="396" y="760" type="line"/>
      <point x="392" y="752" type="line"/>
      <point x="400" y="719"/>
      <point x="403" y="598"/>
      <point x="404" y="548" type="curve"/>
      <point x="386" y="552"/>
      <point x="361" y="556"/>
      <point x="332" y="556" type="curve" smooth="yes" name="hr01"/>
      <point x="152" y="556"/>
      <point x="40" y="444"/>
    </contour>
    <contour>
      <point x="406" y="142" type="curve"/>
      <point x="397" y="141"/>
      <point x="385" y="140"/>
      <point x="372" y="140" type="curve" smooth="yes"/>
      <point x="283" y="140"/>
      <point x="256" y="204"/>
      <point x="256" y="272" type="curve" smooth="yes"/>
      <point x="256" y="350"/>
      <point x="289" y="408"/>
      <point x="372" y="408" type="curve" smooth="yes"/>
      <point x="381" y="408"/>
      <point x="395" y="406"/>
      <point x="404" y="404" type="curve"/>
      <point x="404" y="196" type="line" smooth="yes"/>
      <point x="404" y="176"/>
      <point x="404" y="158"/>
    </contour>
    <contour>
      <point x="714" y="628" type="curve"/>
      <point x="668" y="546" type="line"/>
      <point x="668" y="540" type="line" name="hr02"/>
      <point x="767" y="540" type="line"/>
      <point x="793" y="589" type="line" smooth="yes"/>
      <point x="804" y="611"/>
      <point x="824" y="649"/>
      <point x="824" y="683" type="curve" smooth="yes"/>
      <point x="824" y="731"/>
      <point x="789" y="760"/>
      <point x="746" y="760" type="curve" smooth="yes"/>
      <point x="703" y="760"/>
      <point x="672" y="731"/>
      <point x="672" y="690" type="curve" smooth="yes"/>
      <point x="672" y="654"/>
      <point x="695" y="638"/>
    </contour>
  </outline>
</glyph>
<glyph name="dcroat" format="1">
  <advance width="684"/>
  <unicode hex="0111"/>
  <outline>
    <contour>
      <point x="308" y="600" type="line"/>
      <point x="403" y="600" type="line"/>
      <point x="403" y="579"/>
      <point x="404" y="562"/>
      <point x="404" y="548" type="curve"/>
      <point x="386" y="552"/>
      <point x="361" y="556"/>
      <point x="332" y="556" type="curve" smooth="yes"/>
      <point x="152" y="556"/>
      <point x="40" y="444"/>
      <point x="40" y="272" type="curve" smooth="yes"/>
      <point x="40" y="60"/>
      <point x="172" y="-12"/>
      <point x="396" y="-12" type="curve" smooth="yes"/>
      <point x="480" y="-12"/>
      <point x="570" y="0"/>
      <point x="620" y="12" type="curve"/>
      <point x="624" y="20" type="line"/>
      <point x="616" y="56"/>
      <point x="616" y="136"/>
      <point x="616" y="176" type="curve" smooth="yes"/>
      <point x="616" y="600" type="line"/>
      <point x="680" y="600" type="line"/>
      <point x="680" y="700" type="line"/>
      <point x="616" y="700" type="line"/>
      <point x="616" y="760" type="line" name="hr01"/>
      <point x="396" y="760" type="line"/>
      <point x="392" y="752" type="line"/>
      <point x="394" y="741"/>
      <point x="396" y="722"/>
      <point x="398" y="700" type="curve" name="hr02"/>
      <point x="308" y="700" type="line"/>
    </contour>
    <contour>
      <point x="406" y="142" type="curve"/>
      <point x="397" y="141"/>
      <point x="385" y="140"/>
      <point x="372" y="140" type="curve" smooth="yes"/>
      <point x="283" y="140"/>
      <point x="256" y="204"/>
      <point x="256" y="272" type="curve" smooth="yes"/>
      <point x="256" y="350"/>
      <point x="289" y="408"/>
      <point x="372" y="408" type="curve" smooth="yes"/>
      <point x="381" y="408"/>
      <point x="395" y="406"/>
      <point x="404" y="404" type="curve"/>
      <point x="404" y="196" type="line" smooth="yes"/>
      <point x="404" y="176"/>
      <point x="404" y="158"/>
    </contour>
  </outline>
</glyph>
<glyph name="eogonek" format="1">
  <advance width="636"/>
  <unicode hex="0119"/>
  <outline>
    <contour>
      <point x="362" y="-140" type="curve" smooth="yes"/>
      <point x="362" y="-212"/>
      <point x="410" y="-248"/>
      <point x="482" y="-248" type="curve" smooth="yes"/>
      <point x="506" y="-248"/>
      <point x="532" y="-246"/>
      <point x="550" y="-240" type="curve"/>
      <point x="550" y="-154" type="line"/>
      <point x="546" y="-154" type="line"/>
      <point x="531" y="-159"/>
      <point x="519" y="-160"/>
      <point x="505" y="-160" type="curve" smooth="yes"/>
      <point x="481" y="-160"/>
      <point x="470" y="-144"/>
      <point x="470" y="-124" type="curve" smooth="yes"/>
      <point x="470" y="-84"/>
      <point x="499" y="-55"/>
      <point x="549" y="0" type="curve" smooth="yes"/>
      <point x="560" y="12" type="line" name="hr01"/>
      <point x="560" y="172" type="line"/>
      <point x="548" y="172" type="line"/>
      <point x="520" y="156"/>
      <point x="464" y="144"/>
      <point x="404" y="144" type="curve" smooth="yes"/>
      <point x="312" y="144"/>
      <point x="268" y="170"/>
      <point x="256" y="220" type="curve"/>
      <point x="598" y="220" type="line"/>
      <point x="600" y="260" type="line" smooth="yes" name="hr02"/>
      <point x="609" y="432"/>
      <point x="524" y="564"/>
      <point x="332" y="564" type="curve" smooth="yes"/>
      <point x="153" y="564"/>
      <point x="40" y="460"/>
      <point x="40" y="276" type="curve" smooth="yes"/>
      <point x="40" y="56"/>
      <point x="188" y="-12"/>
      <point x="384" y="-12" type="curve" smooth="yes"/>
      <point x="401" y="-12"/>
      <point x="416" y="-12"/>
      <point x="431" y="-11" type="curve"/>
      <point x="396" y="-45"/>
      <point x="362" y="-88"/>
    </contour>
    <contour>
      <point x="328" y="424" type="curve" smooth="yes"/>
      <point x="379" y="424"/>
      <point x="400" y="392"/>
      <point x="400" y="340" type="curve" smooth="yes" name="hr04"/>
      <point x="400" y="332" type="line"/>
      <point x="253" y="332" type="line"/>
      <point x="258" y="387"/>
      <point x="280" y="424"/>
    </contour>
  </outline>
</glyph>
<glyph name="Hbar" format="1">
  <advance width="784"/>
  <unicode hex="0126"/>
  <outline>
    <contour>
      <point x="-8" y="512" type="line" name="hr00"/>
      <point x="68" y="512" type="line"/>
      <point x="68" y="0" type="line"/>
      <point x="280" y="0" type="line"/>
      <point x="280" y="264" type="line"/>
      <point x="504" y="264" type="line"/>
      <point x="504" y="0" type="line"/>
      <point x="716" y="0" type="line"/>
      <point x="716" y="512" type="line"/>
      <point x="792" y="512" type="line"/>
      <point x="792" y="636" type="line"/>
      <point x="716" y="636" type="line"/>
      <point x="716" y="720" type="line"/>
      <point x="504" y="720" type="line"/>
      <point x="504" y="636" type="line"/>
      <point x="280" y="636" type="line"/>
      <point x="280" y="720" type="line"/>
      <point x="68" y="720" type="line"/>
      <point x="68" y="636" type="line"/>
      <point x="-8" y="636" type="line"/>
    </contour>
    <contour>
      <point x="280" y="512" type="line"/>
      <point x="504" y="512" type="line"/>
      <point x="504" y="448" type="line"/>
      <point x="280" y="448" type="line"/>
    </contour>
  </outline>
</glyph>
<glyph name="hbar" format="1">
  <advance width="692"/>
  <unicode hex="0127"/>
  <outline>
    <contour>
      <point x="416" y="0" type="line"/>
      <point x="628" y="0" type="line"/>
      <point x="628" y="308" type="line" smooth="yes"/>
      <point x="628" y="480"/>
      <point x="536" y="564"/>
      <point x="376" y="564" type="curve" smooth="yes"/>
      <point x="338" y="564"/>
      <point x="307" y="560"/>
      <point x="280" y="553" type="curve"/>
      <point x="280" y="600" type="line"/>
      <point x="376" y="600" type="line"/>
      <point x="376" y="700" type="line"/>
      <point x="280" y="700" type="line"/>
      <point x="280" y="760" type="line" name="hr01"/>
      <point x="60" y="760" type="line"/>
      <point x="56" y="752" type="line"/>
      <point x="59" y="739"/>
      <point x="61" y="720"/>
      <point x="63" y="700" type="curve" name="hr02"/>
      <point x="4" y="700" type="line"/>
      <point x="4" y="600" type="line"/>
      <point x="68" y="600" type="line"/>
      <point x="68" y="0" type="line"/>
      <point x="280" y="0" type="line"/>
      <point x="280" y="396" type="line"/>
      <point x="294" y="398"/>
      <point x="309" y="400"/>
      <point x="320" y="400" type="curve" smooth="yes"/>
      <point x="378" y="400"/>
      <point x="416" y="376"/>
      <point x="416" y="308" type="curve" smooth="yes"/>
    </contour>
  </outline>
</glyph>
<glyph name="dotlessi" format="1">
  <advance width="348"/>
  <unicode hex="0131"/>
  <outline>
    <contour>
      <point x="68" y="0" type="line" name="hr00"/>
      <point x="280" y="0" type="line"/>
      <point x="280" y="548" type="line"/>
      <point x="60" y="548" type="line"/>
      <point x="56" y="540" type="line"/>
      <point x="65" y="504"/>
      <point x="68" y="424"/>
      <point x="68" y="384" type="curve" smooth="yes"/>
    </contour>
    <contour>
      <point x="174" y="548" type="move" name="top"/>
    </contour>
  </outline>
</glyph>
<glyph name="IJ" format="1">
  <advance width="832"/>
  <unicode hex="0132"/>
  <outline>
    <contour>
      <point x="68" y="0" type="line"/>
      <point x="280" y="0" type="line"/>
      <point x="280" y="720" type="line"/>
      <point x="68" y="720" type="line"/>
    </contour>
    <contour>
      <point x="372" y="0" type="line"/>
      <point x="400" y="-8"/>
      <point x="444" y="-12"/>
      <point x="484" y="-12" type="curve" smooth="yes" name="hr01"/>
      <point x="640" y="-12"/>
      <point x="768" y="56"/>
      <point x="768" y="244" type="curve" smooth="yes"/>
      <point x="768" y="720" type="line"/>
      <point x="556" y="720" type="line"/>
      <point x="556" y="260" type="line" smooth="yes"/>
      <point x="556" y="188"/>
      <point x="520" y="160"/>
      <point x="448" y="160" type="curve" smooth="yes"/>
      <point x="420" y="160"/>
      <point x="404" y="164"/>
      <point x="384" y="172" type="curve" name="hr02"/>
      <point x="372" y="172" type="line"/>
    </contour>
  </outline>
</glyph>
<glyph name="ij" format="1">
  <advance width="696"/>
  <unicode hex="0133"/>
  <outline>
    <contour>
      <point x="176" y="620" type="curve" smooth="yes" name="hr00"/>
      <point x="240" y="620"/>
      <point x="284" y="656"/>
      <point x="284" y="724" type="curve" smooth="yes"/>
      <point x="284" y="792"/>
      <point x="240" y="828"/>
      <point x="176" y="828" type="curve" smooth="yes"/>
      <point x="112" y="828"/>
      <point x="68" y="792"/>
      <point x="68" y="724" type="curve" smooth="yes"/>
      <point x="68" y="656"/>
      <point x="112" y="620"/>
    </contour>
    <contour>
      <point x="68" y="0" type="line"/>
      <point x="280" y="0" type="line"/>
      <point x="280" y="548" type="line"/>
      <point x="60" y="548" type="line"/>
      <point x="56" y="540" type="line"/>
      <point x="65" y="504"/>
      <point x="68" y="424"/>
      <point x="68" y="384" type="curve" smooth="yes"/>
    </contour>
    <contour>
      <point x="524" y="620" type="curve" smooth="yes"/>
      <point x="588" y="620"/>
      <point x="632" y="656"/>
      <point x="632" y="724" type="curve" smooth="yes"/>
      <point x="632" y="792"/>
      <point x="588" y="828"/>
      <point x="524" y="828" type="curve" smooth="yes"/>
      <point x="460" y="828"/>
      <point x="416" y="792"/>
      <point x="416" y="724" type="curve" smooth="yes"/>
      <point x="416" y="656"/>
      <point x="460" y="620"/>
    </contour>
    <contour>
      <point x="416" y="6" type="line" smooth="yes"/>
      <point x="416" y="-52"/>
      <point x="388" y="-76"/>
      <point x="332" y="-76" type="curve" smooth="yes"/>
      <point x="301" y="-76"/>
      <point x="288" y="-72"/>
      <point x="268" y="-64" type="curve"/>
      <point x="256" y="-64" type="line"/>
      <point x="256" y="-228" type="line"/>
      <point x="284" y="-236"/>
      <point x="320" y="-240"/>
      <point x="364" y="-240" type="curve" smooth="yes"/>
      <point x="516" y="-240"/>
      <point x="628" y="-168"/>
      <point x="628" y="20" type="curve" smooth="yes"/>
      <point x="628" y="548" type="line"/>
      <point x="408" y="548" type="line"/>
      <point x="404" y="540" type="line"/>
      <point x="413" y="504"/>
      <point x="416" y="424"/>
      <point x="416" y="384" type="curve" smooth="yes"/>
    </contour>
  </outline>
</glyph>
<glyph name="Lcaron" format="1">
  <advance width="572"/>
  <unicode hex="013D"/>
  <outline>
    <contour>
      <point x="68" y="0" type="line"/>
      <point x="540" y="0" type="line"/>
      <point x="540" y="184" type="line"/>
      <point x="280" y="184" type="line"/>
      <point x="280" y="720" type="line"/>
      <point x="68" y="720" type="line"/>
    </contour>
    <contour>
      <point x="418" y="600" type="curve"/>
      <point x="372" y="518" type="line"/>
      <point x="372" y="512" type="line" name="hr01"/>
      <point x="471" y="512" type="line"/>
      <point x="497" y="561" type="line" smooth="yes"/>
      <point x="508" y="583"/>
      <point x="528" y="621"/>
      <point x="528" y="655" type="curve" smooth="yes"/>
      <point x="528" y="703"/>
      <point x="493" y="732"/>
      <point x="450" y="732" type="curve" smooth="yes"/>
      <point x="407" y="732"/>
      <point x="376" y="703"/>
      <point x="376" y="662" type="curve" smooth="yes"/>
      <point x="376" y="626"/>
      <point x="399" y="610"/>
    </contour>
  </outline>
</glyph>
<glyph name="lcaron" format="1">
  <advance width="360"/>
  <unicode hex="013E"/>
  <outline>
    <contour>
      <point x="68" y="0" type="line" name="hr00"/>
      <point x="280" y="0" type="line"/>
      <point x="280" y="760" type="line"/>
      <point x="60" y="760" type="line"/>
      <point x="56" y="752" type="line"/>
      <point x="65" y="716"/>
      <point x="68" y="636"/>
      <point x="68" y="596" type="curve" smooth="yes"/>
    </contour>
    <contour>
      <point x="378" y="628" type="curve"/>
      <point x="332" y="546" type="line"/>
      <point x="332" y="540" type="line"/>
      <point x="431" y="540" type="line"/>
      <point x="457" y="589" type="line" smooth="yes"/>
      <point x="468" y="611"/>
      <point x="488" y="649"/>
      <point x="488" y="683" type="curve" smooth="yes"/>
      <point x="488" y="731"/>
      <point x="453" y="760"/>
      <point x="410" y="760" type="curve" smooth="yes"/>
      <point x="367" y="760"/>
      <point x="336" y="731"/>
      <point x="336" y="690" type="curve" smooth="yes"/>
      <point x="336" y="654"/>
      <point x="359" y="638"/>
    </contour>
  </outline>
</glyph>
<glyph name="Ldot" format="1">
  <advance width="572"/>
  <unicode hex="013F"/>
  <outline>
    <contour>
      <point x="68" y="0" type="line" name="hr00"/>
      <point x="540" y="0" type="line"/>
      <point x="540" y="184" type="line"/>
      <point x="280" y="184" type="line"/>
      <point x="280" y="720" type="line"/>
      <point x="68" y="720" type="line"/>
    </contour>
    <contour>
      <point x="420" y="356" type="curve" smooth="yes"/>
      <point x="463" y="356"/>
      <point x="496" y="384"/>
      <point x="496" y="432" type="curve" smooth="yes"/>
      <point x="496" y="478"/>
      <point x="463" y="508"/>
      <point x="420" y="508" type="curve" smooth="yes"/>
      <point x="377" y="508"/>
      <point x="344" y="478"/>
      <point x="344" y="432" type="curve" smooth="yes"/>
      <point x="344" y="384"/>
      <point x="377" y="356"/>
    </contour>
  </outline>
</glyph>
<glyph name="ldot" format="1">
  <advance width="480"/>
  <unicode hex="0140"/>
  <outline>
    <contour>
      <point x="68" y="0" type="line" name="hr00"/>
      <point x="280" y="0" type="line"/>
      <point x="280" y="760" type="line"/>
      <point x="60" y="760" type="line"/>
      <point x="56" y="752" type="line"/>
      <point x="65" y="716"/>
      <point x="68" y="636"/>
      <point x="68" y="596" type="curve" smooth="yes"/>
    </contour>
    <contour>
      <point x="412" y="280" type="curve" smooth="yes"/>
      <point x="455" y="280"/>
      <point x="488" y="308"/>
      <point x="488" y="356" type="curve" smooth="yes"/>
      <point x="488" y="402"/>
      <point x="455" y="432"/>
      <point x="412" y="432" type="curve" smooth="yes"/>
      <point x="369" y="432"/>
      <point x="336" y="402"/>
      <point x="336" y="356" type="curve" smooth="yes"/>
      <point x="336" y="308"/>
      <point x="369" y="280"/>
    </contour>
  </outline>
</glyph>
<glyph name="Lslash" format="1">
  <advance width="620"/>
  <unicode hex="0141"/>
  <outline>
    <contour>
      <point x="4" y="196" type="line" name="hr00"/>
      <point x="16" y="196" type="line"/>
      <point x="120" y="259" type="line"/>
      <point x="120" y="0" type="line"/>
      <point x="592" y="0" type="line"/>
      <point x="592" y="184" type="line"/>
      <point x="332" y="184" type="line"/>
      <point x="332" y="387" type="line"/>
      <point x="460" y="464" type="line"/>
      <point x="460" y="592" type="line"/>
      <point x="448" y="592" type="line"/>
      <point x="332" y="522" type="line"/>
      <point x="332" y="720" type="line"/>
      <point x="120" y="720" type="line"/>
      <point x="120" y="394" type="line"/>
      <point x="4" y="324" type="line"/>
    </contour>
  </outline>
</glyph>
<glyph name="lslash" format="1">
  <advance width="380"/>
  <unicode hex="0142"/>
  <outline>
    <contour>
      <point x="-4" y="176" type="line" name="hr00"/>
      <point x="8" y="176" type="line"/>
      <point x="84" y="232" type="line"/>
      <point x="84" y="0" type="line"/>
      <point x="296" y="0" type="line"/>
      <point x="296" y="387" type="line"/>
      <point x="384" y="452" type="line"/>
      <point x="384" y="564" type="line"/>
      <point x="372" y="564" type="line"/>
      <point x="296" y="508" type="line"/>
      <point x="296" y="760" type="line"/>
      <point x="76" y="760" type="line"/>
      <point x="72" y="752" type="line"/>
      <point x="81" y="716"/>
      <point x="84" y="636"/>
      <point x="84" y="596" type="curve" smooth="yes"/>
      <point x="84" y="352" type="line"/>
      <point x="-4" y="288" type="line"/>
    </contour>
  </outline>
</glyph>
<glyph name="Eng" format="1">
  <advance width="788"/>
  <unicode hex="014A"/>
  <outline>
    <contour>
      <point x="68" y="0" type="line" name="hr00"/>
      <point x="280" y="0" type="line"/>
      <point x="280" y="401" type="line"/>
      <point x="508" y="175" type="line"/>
      <point x="508" y="32" type="line" smooth="yes"/>
      <point x="508" y="-40"/>
      <point x="472" y="-68"/>
      <point x="400" y="-68" type="curve" smooth="yes"/>
      <point x="372" y="-68"/>
      <point x="356" y="-64"/>
      <point x="336" y="-56" type="curve"/>
      <point x="324" y="-56" type="line"/>
      <point x="324" y="-228" type="line"/>
      <point x="352" y="-236"/>
      <point x="396" y="-240"/>
      <point x="436" y="-240" type="curve" smooth="yes"/>
      <point x="592" y="-240"/>
      <point x="720" y="-172"/>
      <point x="720" y="16" type="curve" smooth="yes"/>
      <point x="720" y="720" type="line"/>
      <point x="508" y="720" type="line"/>
      <point x="508" y="451" type="line"/>
      <point x="236" y="720" type="line"/>
      <point x="68" y="720" type="line"/>
    </contour>
  </outline>
</glyph>
<glyph name="eng" format="1">
  <advance width="692"/>
  <unicode hex="014B"/>
  <outline>
    <contour>
      <point x="416" y="6" type="line" smooth="yes" name="hr00"/>
      <point x="416" y="-52"/>
      <point x="388" y="-76"/>
      <point x="332" y="-76" type="curve" smooth="yes"/>
      <point x="301" y="-76"/>
      <point x="288" y="-72"/>
      <point x="268" y="-64" type="curve"/>
      <point x="256" y="-64" type="line"/>
      <point x="256" y="-228" type="line"/>
      <point x="284" y="-236"/>
      <point x="320" y="-240"/>
      <point x="364" y="-240" type="curve" smooth="yes"/>
      <point x="516" y="-240"/>
      <point x="628" y="-168"/>
      <point x="628" y="20" type="curve" smooth="yes"/>
      <point x="628" y="308" type="line" smooth="yes"/>
      <point x="628" y="528"/>
      <point x="480" y="564"/>
      <point x="308" y="564" type="curve" smooth="yes"/>
      <point x="216" y="564"/>
      <point x="116" y="544"/>
      <point x="60" y="524" type="curve"/>
      <point x="56" y="516" type="line"/>
      <point x="65" y="480"/>
      <point x="68" y="396"/>
      <point x="68" y="356" type="curve" smooth="yes"/>
      <point x="68" y="0" type="line"/>
      <point x="280" y="0" type="line"/>
      <point x="280" y="316" type="line" smooth="yes"/>
      <point x="280" y="348"/>
      <point x="278" y="373"/>
      <point x="274" y="392" type="curve"/>
      <point x="290" y="396"/>
      <point x="307" y="400"/>
      <point x="324" y="400" type="curve" smooth="yes"/>
      <point x="376" y="400"/>
      <point x="416" y="380"/>
      <point x="416" y="304" type="curve" smooth="yes"/>
    </contour>
  </outline>
</glyph>
<glyph name="OE" format="1">
  <advance width="1128"/>
  <unicode hex="0152"/>
  <outline>
    <contour>
      <point x="36" y="360" type="curve" smooth="yes"/>
      <point x="36" y="136"/>
      <point x="172" y="-12"/>
      <point x="416" y="-12" type="curve" smooth="yes"/>
      <point x="456" y="-12"/>
      <point x="493" y="-8"/>
      <point x="527" y="0" type="curve" name="hr01"/>
      <point x="1080" y="0" type="line"/>
      <point x="1080" y="176" type="line" name="hr02"/>
      <point x="757" y="176" type="line"/>
      <point x="771" y="205"/>
      <point x="781" y="237"/>
      <point x="788" y="272" type="curve"/>
      <point x="1024" y="272" type="line"/>
      <point x="1024" y="444" type="line"/>
      <point x="788" y="444" type="line"/>
      <point x="782" y="477"/>
      <point x="773" y="508"/>
      <point x="760" y="536" type="curve"/>
      <point x="1072" y="536" type="line"/>
      <point x="1072" y="720" type="line"/>
      <point x="527" y="720" type="line"/>
      <point x="493" y="728"/>
      <point x="456" y="732"/>
      <point x="416" y="732" type="curve" smooth="yes" name="hr03"/>
      <point x="172" y="732"/>
      <point x="36" y="580"/>
    </contour>
    <contour>
      <point x="252" y="360" type="curve" smooth="yes"/>
      <point x="252" y="468"/>
      <point x="300" y="556"/>
      <point x="416" y="556" type="curve" smooth="yes"/>
      <point x="532" y="556"/>
      <point x="580" y="468"/>
      <point x="580" y="360" type="curve" smooth="yes"/>
      <point x="580" y="252"/>
      <point x="532" y="164"/>
      <point x="416" y="164" type="curve" smooth="yes"/>
      <point x="300" y="164"/>
      <point x="252" y="252"/>
    </contour>
  </outline>
</glyph>
<glyph name="oe" format="1">
  <advance width="1000"/>
  <unicode hex="0153"/>
  <outline>
    <contour>
      <point x="40" y="276" type="curve" smooth="yes" name="hr00"/>
      <point x="40" y="68"/>
      <point x="164" y="-12"/>
      <point x="336" y="-12" type="curve" smooth="yes"/>
      <point x="411" y="-12"/>
      <point x="477" y="6"/>
      <point x="526" y="45" type="curve"/>
      <point x="585" y="5"/>
      <point x="664" y="-12"/>
      <point x="756" y="-12" type="curve" smooth="yes"/>
      <point x="833" y="-12"/>
      <point x="880" y="-4"/>
      <point x="924" y="12" type="curve"/>
      <point x="924" y="172" type="line"/>
      <point x="912" y="172" type="line"/>
      <point x="884" y="156"/>
      <point x="836" y="144"/>
      <point x="776" y="144" type="curve" smooth="yes"/>
      <point x="684" y="144"/>
      <point x="640" y="170"/>
      <point x="628" y="220" type="curve"/>
      <point x="962" y="220" type="line"/>
      <point x="964" y="260" type="line" smooth="yes"/>
      <point x="973" y="432"/>
      <point x="896" y="564"/>
      <point x="704" y="564" type="curve" smooth="yes"/>
      <point x="630" y="564"/>
      <point x="569" y="544"/>
      <point x="522" y="509" type="curve"/>
      <point x="473" y="546"/>
      <point x="409" y="564"/>
      <point x="336" y="564" type="curve" smooth="yes"/>
      <point x="164" y="564"/>
      <point x="40" y="484"/>
    </contour>
    <contour>
      <point x="336" y="136" type="curve" smooth="yes"/>
      <point x="280" y="136"/>
      <point x="256" y="184"/>
      <point x="256" y="276" type="curve" smooth="yes"/>
      <point x="256" y="368"/>
      <point x="280" y="416"/>
      <point x="336" y="416" type="curve" smooth="yes"/>
      <point x="392" y="416"/>
      <point x="416" y="368"/>
      <point x="416" y="276" type="curve" smooth="yes"/>
      <point x="416" y="184"/>
      <point x="392" y="136"/>
    </contour>
    <contour>
      <point x="700" y="424" type="curve" smooth="yes"/>
      <point x="751" y="424"/>
      <point x="764" y="392"/>
      <point x="764" y="340" type="curve" smooth="yes"/>
      <point x="764" y="332" type="line"/>
      <point x="625" y="332" type="line"/>
      <point x="630" y="387"/>
      <point x="652" y="424"/>
    </contour>
  </outline>
</glyph>
<glyph name="tcaron" format="1">
  <advance width="500"/>
  <unicode hex="0165"/>
  <outline>
    <contour>
      <point x="8" y="388" type="line" name="hr00"/>
      <point x="100" y="388" type="line"/>
      <point x="100" y="216" type="line" smooth="yes"/>
      <point x="100" y="36"/>
      <point x="216" y="-8"/>
      <point x="364" y="-8" type="curve" smooth="yes"/>
      <point x="410" y="-8"/>
      <point x="440" y="-4"/>
      <point x="472" y="4" type="curve"/>
      <point x="472" y="168" type="line"/>
      <point x="460" y="168" type="line"/>
      <point x="444" y="162"/>
      <point x="422" y="156"/>
      <point x="400" y="156" type="curve" smooth="yes"/>
      <point x="340" y="156"/>
      <point x="312" y="176"/>
      <point x="312" y="232" type="curve" smooth="yes"/>
      <point x="312" y="388" type="line"/>
      <point x="450" y="388" type="line"/>
      <point x="450" y="548" type="line"/>
      <point x="312" y="548" type="line"/>
      <point x="312" y="680" type="line"/>
      <point x="100" y="680" type="line"/>
      <point x="100" y="548" type="line"/>
      <point x="8" y="548" type="line"/>
    </contour>
    <contour>
      <point x="399" y="696" type="curve"/>
      <point x="353" y="614" type="line"/>
      <point x="353" y="608" type="line"/>
      <point x="452" y="608" type="line"/>
      <point x="478" y="657" type="line" smooth="yes"/>
      <point x="489" y="679"/>
      <point x="509" y="717"/>
      <point x="509" y="751" type="curve" smooth="yes"/>
      <point x="509" y="799"/>
      <point x="474" y="828"/>
      <point x="431" y="828" type="curve" smooth="yes"/>
      <point x="388" y="828"/>
      <point x="357" y="799"/>
      <point x="357" y="758" type="curve" smooth="yes"/>
      <point x="357" y="722"/>
      <point x="380" y="706"/>
    </contour>
  </outline>
</glyph>
<glyph name="Tbar" format="1">
  <advance width="656"/>
  <unicode hex="0166"/>
  <outline>
    <contour>
      <point x="20" y="536" type="line" name="hr00"/>
      <point x="224" y="536" type="line"/>
      <point x="224" y="392" type="line"/>
      <point x="88" y="392" type="line"/>
      <point x="88" y="268" type="line"/>
      <point x="224" y="268" type="line"/>
      <point x="224" y="0" type="line"/>
      <point x="436" y="0" type="line"/>
      <point x="436" y="268" type="line"/>
      <point x="572" y="268" type="line"/>
      <point x="572" y="392" type="line"/>
      <point x="436" y="392" type="line"/>
      <point x="436" y="536" type="line"/>
      <point x="636" y="536" type="line"/>
      <point x="636" y="720" type="line"/>
      <point x="20" y="720" type="line"/>
    </contour>
  </outline>
</glyph>
<glyph name="tbar" format="1">
  <advance width="500"/>
  <unicode hex="0167"/>
  <outline>
    <contour>
      <point x="450" y="324" type="line" name="hr00"/>
      <point x="312" y="324" type="line"/>
      <point x="312" y="388" type="line"/>
      <point x="450" y="388" type="line"/>
      <point x="450" y="548" type="line"/>
      <point x="312" y="548" type="line"/>
      <point x="312" y="680" type="line"/>
      <point x="100" y="680" type="line"/>
      <point x="100" y="548" type="line"/>
      <point x="8" y="548" type="line"/>
      <point x="8" y="388" type="line"/>
      <point x="100" y="388" type="line"/>
      <point x="100" y="324" type="line"/>
      <point x="8" y="324" type="line"/>
      <point x="8" y="224" type="line"/>
      <point x="100" y="224" type="line"/>
      <point x="100" y="216" type="line" smooth="yes"/>
      <point x="100" y="36"/>
      <point x="216" y="-8"/>
      <point x="364" y="-8" type="curve" smooth="yes"/>
      <point x="410" y="-8"/>
      <point x="440" y="-4"/>
      <point x="472" y="4" type="curve"/>
      <point x="472" y="168" type="line"/>
      <point x="460" y="168" type="line"/>
      <point x="444" y="162"/>
      <point x="422" y="156"/>
      <point x="400" y="156" type="curve" smooth="yes"/>
      <point x="343" y="156"/>
      <point x="314" y="174"/>
      <point x="312" y="224" type="curve"/>
      <point x="450" y="224" type="line"/>
    </contour>
  </outline>
</glyph>
<glyph name="Uogonek" format="1">
  <advance width="772"/>
  <unicode hex="0172"/>
  <outline>
    <contour>
      <point x="377" y="-140" type="curve" smooth="yes"/>
      <point x="377" y="-212"/>
      <point x="425" y="-248"/>
      <point x="497" y="-248" type="curve" smooth="yes"/>
      <point x="521" y="-248"/>
      <point x="547" y="-246"/>
      <point x="565" y="-240" type="curve"/>
      <point x="565" y="-154" type="line"/>
      <point x="561" y="-154" type="line"/>
      <point x="546" y="-159"/>
      <point x="534" y="-160"/>
      <point x="520" y="-160" type="curve" smooth="yes"/>
      <point x="496" y="-160"/>
      <point x="485" y="-144"/>
      <point x="485" y="-124" type="curve" smooth="yes" name="hr01"/>
      <point x="485" y="-84"/>
      <point x="514" y="-55"/>
      <point x="564" y="0" type="curve" smooth="yes"/>
      <point x="620" y="61" type="line"/>
      <point x="680" y="115"/>
      <point x="708" y="199"/>
      <point x="708" y="312" type="curve" smooth="yes"/>
      <point x="708" y="720" type="line"/>
      <point x="496" y="720" type="line"/>
      <point x="496" y="300" type="line" smooth="yes"/>
      <point x="496" y="216"/>
      <point x="468" y="164"/>
      <point x="384" y="164" type="curve" smooth="yes"/>
      <point x="300" y="164"/>
      <point x="276" y="216"/>
      <point x="276" y="300" type="curve" smooth="yes"/>
      <point x="276" y="720" type="line"/>
      <point x="64" y="720" type="line"/>
      <point x="64" y="312" type="line" smooth="yes"/>
      <point x="64" y="100"/>
      <point x="156" y="-12"/>
      <point x="384" y="-12" type="curve" smooth="yes"/>
      <point x="407" y="-12"/>
      <point x="429" y="-11"/>
      <point x="449" y="-8" type="curve"/>
      <point x="413" y="-42"/>
      <point x="377" y="-87"/>
    </contour>
  </outline>
</glyph>
<glyph name="longs" format="1">
  <advance width="392"/>
  <unicode hex="017F"/>
  <outline>
    <contour>
      <point x="8" y="388" type="line" name="hr00"/>
      <point x="100" y="388" type="line"/>
      <point x="100" y="0" type="line"/>
      <point x="312" y="0" type="line"/>
      <point x="312" y="536" type="line" smooth="yes"/>
      <point x="312" y="596"/>
      <point x="344" y="624"/>
      <point x="404" y="624" type="curve" smooth="yes"/>
      <point x="428" y="624"/>
      <point x="448" y="618"/>
      <point x="460" y="612" type="curve"/>
      <point x="472" y="612" type="line"/>
      <point x="472" y="764" type="line"/>
      <point x="452" y="770"/>
      <point x="420" y="776"/>
      <point x="380" y="776" type="curve" smooth="yes"/>
      <point x="216" y="776"/>
      <point x="108" y="713"/>
      <point x="100" y="548" type="curve"/>
      <point x="8" y="548" type="line"/>
    </contour>
  </outline>
</glyph>
<glyph name="florin" format="1">
  <advance width="616"/>
  <unicode hex="0192"/>
  <outline>
    <contour>
      <point x="40" y="276" type="line" name="hr00"/>
      <point x="180" y="276" type="line"/>
      <point x="180" y="16" type="line" smooth="yes"/>
      <point x="180" y="-60"/>
      <point x="140" y="-100"/>
      <point x="68" y="-100" type="curve" smooth="yes"/>
      <point x="46" y="-100"/>
      <point x="25" y="-96"/>
      <point x="8" y="-88" type="curve"/>
      <point x="-4" y="-88" type="line"/>
      <point x="-4" y="-232" type="line"/>
      <point x="20" y="-240"/>
      <point x="56" y="-248"/>
      <point x="104" y="-248" type="curve" smooth="yes"/>
      <point x="268" y="-248"/>
      <point x="388" y="-164"/>
      <point x="388" y="24" type="curve" smooth="yes"/>
      <point x="388" y="276" type="line"/>
      <point x="528" y="276" type="line"/>
      <point x="528" y="428" type="line"/>
      <point x="388" y="428" type="line"/>
      <point x="388" y="468" type="line" smooth="yes"/>
      <point x="388" y="544"/>
      <point x="428" y="584"/>
      <point x="500" y="584" type="curve" smooth="yes"/>
      <point x="522" y="584"/>
      <point x="543" y="580"/>
      <point x="560" y="572" type="curve"/>
      <point x="572" y="572" type="line"/>
      <point x="572" y="716" type="line"/>
      <point x="548" y="724"/>
      <point x="512" y="732"/>
      <point x="464" y="732" type="curve" smooth="yes"/>
      <point x="300" y="732"/>
      <point x="180" y="648"/>
      <point x="180" y="460" type="curve" smooth="yes"/>
      <point x="180" y="428" type="line"/>
      <point x="40" y="428" type="line"/>
    </contour>
  </outline>
</glyph>
<glyph name="dotlessj" format="1">
  <advance width="348"/>
  <unicode hex="0237"/>
  <outline>
    <contour>
      <point x="68" y="6" type="line" smooth="yes" name="hr00"/>
      <point x="68" y="-52"/>
      <point x="40" y="-76"/>
      <point x="-16" y="-76" type="curve" smooth="yes"/>
      <point x="-47" y="-76"/>
      <point x="-60" y="-72"/>
      <point x="-80" y="-64" type="curve"/>
      <point x="-92" y="-64" type="line"/>
      <point x="-92" y="-228" type="line"/>
      <point x="-64" y="-236"/>
      <point x="-28" y="-240"/>
      <point x="16" y="-240" type="curve" smooth="yes"/>
      <point x="168" y="-240"/>
      <point x="280" y="-168"/>
      <point x="280" y="20" type="curve" smooth="yes"/>
      <point x="280" y="548" type="line"/>
      <point x="60" y="548" type="line"/>
      <point x="56" y="540" type="line"/>
      <point x="65" y="504"/>
      <point x="68" y="424"/>
      <point x="68" y="384" type="curve" smooth="yes"/>
    </contour>
    <contour>
      <point x="174" y="548" type="move" name="top"/>
    </contour>
  </outline>
</glyph>
<glyph name="uni02BE" format="1">
  <advance width="208"/>
  <unicode hex="02BE"/>
  <outline>
    <contour>
      <point x="96" y="576" type="curve"/>
      <point x="96" y="526"/>
      <point x="72" y="512"/>
      <point x="24" y="512" type="curve" name="hr01"/>
      <point x="24" y="432" type="line"/>
      <point x="108" y="432"/>
      <point x="188" y="462"/>
      <point x="188" y="576" type="curve"/>
      <point x="188" y="690"/>
      <point x="108" y="720"/>
      <point x="24" y="720" type="curve"/>
      <point x="24" y="640" type="line"/>
      <point x="72" y="640"/>
      <point x="96" y="626"/>
    </contour>
  </outline>
</glyph>
<glyph name="caron" format="1">
  <advance width="672"/>
  <unicode hex="02C7"/>
  <outline>
    <contour>
      <point x="406" y="604" type="line" name="hr00"/>
      <point x="506" y="756" type="line"/>
      <point x="506" y="760" type="line"/>
      <point x="394" y="760" type="line"/>
      <point x="336" y="687" type="line"/>
      <point x="278" y="760" type="line"/>
      <point x="166" y="760" type="line"/>
      <point x="166" y="756" type="line"/>
      <point x="266" y="604" type="line"/>
    </contour>
    <contour>
      <point x="336" y="548" type="move" name="_top"/>
    </contour>
  </outline>
</glyph>
<glyph name="breve" format="1">
  <advance width="672"/>
  <unicode hex="02D8"/>
  <outline>
    <contour>
      <point x="336" y="600" type="curve" smooth="yes"/>
      <point x="450" y="600"/>
      <point x="490" y="676"/>
      <point x="486" y="760" type="curve"/>
      <point x="406" y="760" type="line"/>
      <point x="406" y="712"/>
      <point x="386" y="688"/>
      <point x="336" y="688" type="curve" smooth="yes" name="hr01"/>
      <point x="286" y="688"/>
      <point x="266" y="712"/>
      <point x="266" y="760" type="curve" name="hr02"/>
      <point x="186" y="760" type="line"/>
      <point x="182" y="676"/>
      <point x="222" y="600"/>
    </contour>
    <contour>
      <point x="336" y="548" type="move" name="_top"/>
    </contour>
  </outline>
</glyph>
<glyph name="dotaccent" format="1">
  <advance width="672"/>
  <unicode hex="02D9"/>
  <outline>
    <contour>
      <point x="336" y="608" type="curve" smooth="yes" name="hr00"/>
      <point x="379" y="608"/>
      <point x="412" y="636"/>
      <point x="412" y="684" type="curve" smooth="yes"/>
      <point x="412" y="730"/>
      <point x="379" y="760"/>
      <point x="336" y="760" type="curve" smooth="yes"/>
      <point x="293" y="760"/>
      <point x="260" y="730"/>
      <point x="260" y="684" type="curve" smooth="yes"/>
      <point x="260" y="636"/>
      <point x="293" y="608"/>
    </contour>
    <contour>
      <point x="336" y="548" type="move" name="_top"/>
    </contour>
  </outline>
</glyph>
<glyph name="ring" format="1">
  <advance width="672"/>
  <unicode hex="02DA"/>
  <outline>
    <contour>
      <point x="336" y="602" type="curve" smooth="yes" name="hr00"/>
      <point x="402" y="602"/>
      <point x="458" y="644"/>
      <point x="458" y="720" type="curve" smooth="yes"/>
      <point x="458" y="796"/>
      <point x="402" y="838"/>
      <point x="336" y="838" type="curve" smooth="yes"/>
      <point x="270" y="838"/>
      <point x="214" y="796"/>
      <point x="214" y="720" type="curve" smooth="yes"/>
      <point x="214" y="644"/>
      <point x="270" y="602"/>
    </contour>
    <contour>
      <point x="336" y="664" type="curve" smooth="yes"/>
      <point x="304" y="664"/>
      <point x="282" y="686"/>
      <point x="282" y="720" type="curve" smooth="yes"/>
      <point x="282" y="754"/>
      <point x="304" y="776"/>
      <point x="336" y="776" type="curve" smooth="yes"/>
      <point x="368" y="776"/>
      <point x="390" y="754"/>
      <point x="390" y="720" type="curve" smooth="yes"/>
      <point x="390" y="686"/>
      <point x="368" y="664"/>
    </contour>
    <contour>
      <point x="336" y="548" type="move" name="_top"/>
    </contour>
  </outline>
</glyph>
<glyph name="ogonek" format="1">
  <advance width="672"/>
  <unicode hex="02DB"/>
  <outline>
    <contour>
      <point x="269" y="-140" type="curve" smooth="yes"/>
      <point x="269" y="-212"/>
      <point x="317" y="-248"/>
      <point x="389" y="-248" type="curve" smooth="yes"/>
      <point x="413" y="-248"/>
      <point x="439" y="-246"/>
      <point x="457" y="-240" type="curve"/>
      <point x="457" y="-154" type="line"/>
      <point x="453" y="-154" type="line"/>
      <point x="438" y="-159"/>
      <point x="426" y="-160"/>
      <point x="412" y="-160" type="curve" smooth="yes"/>
      <point x="388" y="-160"/>
      <point x="377" y="-144"/>
      <point x="377" y="-124" type="curve" smooth="yes" name="hr01"/>
      <point x="377" y="-84"/>
      <point x="406" y="-55"/>
      <point x="456" y="0" type="curve"/>
      <point x="360" y="8" type="line"/>
      <point x="318" y="-28"/>
      <point x="269" y="-78"/>
    </contour>
    <contour>
      <point x="336" y="0" type="move" name="_bottom"/>
    </contour>
  </outline>
</glyph>
<glyph name="tilde" format="1">
  <advance width="672"/>
  <unicode hex="02DC"/>
  <outline>
    <contour>
      <point x="134" y="596" type="curve"/>
      <point x="230" y="596" type="line"/>
      <point x="230" y="636"/>
      <point x="234" y="664"/>
      <point x="266" y="664" type="curve" smooth="yes" name="hr01"/>
      <point x="289" y="664"/>
      <point x="306" y="644"/>
      <point x="326" y="628" type="curve" smooth="yes"/>
      <point x="348" y="610"/>
      <point x="376" y="596"/>
      <point x="414" y="596" type="curve" smooth="yes" name="hr02"/>
      <point x="506" y="596"/>
      <point x="538" y="676"/>
      <point x="538" y="760" type="curve" name="hr03"/>
      <point x="442" y="760" type="line"/>
      <point x="442" y="720"/>
      <point x="437" y="692"/>
      <point x="405" y="692" type="curve" smooth="yes" name="hr04"/>
      <point x="384" y="692"/>
      <point x="367" y="709"/>
      <point x="349" y="724" type="curve" smooth="yes"/>
      <point x="326" y="743"/>
      <point x="298" y="760"/>
      <point x="258" y="760" type="curve" smooth="yes" name="hr05"/>
      <point x="166" y="760"/>
      <point x="134" y="680"/>
    </contour>
    <contour>
      <point x="336" y="548" type="move" name="_top"/>
    </contour>
  </outline>
</glyph>
<glyph name="hungarumlaut" format="1">
  <advance width="672"/>
  <unicode hex="02DD"/>
  <outline>
    <contour>
      <point x="478" y="604" type="line" name="hr00"/>
      <point x="601" y="756" type="line"/>
      <point x="601" y="760" type="line"/>
      <point x="441" y="760" type="line"/>
      <point x="358" y="608" type="line"/>
      <point x="358" y="604" type="line"/>
    </contour>
    <contour>
      <point x="270" y="604" type="line"/>
      <point x="393" y="756" type="line"/>
      <point x="393" y="760" type="line"/>
      <point x="233" y="760" type="line"/>
      <point x="150" y="608" type="line"/>
      <point x="150" y="604" type="line"/>
    </contour>
    <contour>
      <point x="336" y="548" type="move" name="_top"/>
    </contour>
  </outline>
</glyph>
<glyph name="pi" format="1">
  <advance width="676"/>
  <unicode hex="03C0"/>
  <outline>
    <contour>
      <point x="64" y="0" type="line" name="hr00"/>
      <point x="276" y="0" type="line"/>
      <point x="276" y="376" type="line"/>
      <point x="400" y="376" type="line"/>
      <point x="400" y="0" type="line"/>
      <point x="612" y="0" type="line"/>
      <point x="612" y="548" type="line"/>
      <point x="56" y="548" type="line"/>
      <point x="52" y="540" type="line"/>
      <point x="61" y="504"/>
      <point x="64" y="424"/>
      <point x="64" y="384" type="curve" smooth="yes"/>
    </contour>
  </outline>
</glyph>
<glyph name="emdash" format="1">
  <advance width="1000"/>
  <unicode hex="2014"/>
  <outline>
    <contour>
      <point x="16" y="256" type="line" name="hr00"/>
      <point x="984" y="256" type="line"/>
      <point x="984" y="396" type="line"/>
      <point x="16" y="396" type="line"/>
    </contour>
  </outline>
</glyph>
<glyph name="quoteleft" format="1">
  <advance width="300"/>
  <unicode hex="2018"/>
  <outline>
    <contour>
      <point x="150" y="352" type="curve" smooth="yes" name="hr00"/>
      <point x="216" y="352"/>
      <point x="260" y="399"/>
      <point x="260" y="462" type="curve" smooth="yes"/>
      <point x="260" y="517"/>
      <point x="228" y="540"/>
      <point x="199" y="554" type="curve"/>
      <point x="292" y="713" type="line"/>
      <point x="292" y="720" type="line"/>
      <point x="139" y="720" type="line"/>
      <point x="85" y="610" type="line" smooth="yes"/>
      <point x="68" y="576"/>
      <point x="36" y="521"/>
      <point x="36" y="470" type="curve" smooth="yes"/>
      <point x="36" y="396"/>
      <point x="84" y="352"/>
    </contour>
  </outline>
</glyph>
<glyph name="quoteright" format="1">
  <advance width="300"/>
  <unicode hex="2019"/>
  <outline>
    <contour>
      <point x="101" y="526" type="curve" name="hr00"/>
      <point x="8" y="367" type="line"/>
      <point x="8" y="360" type="line"/>
      <point x="161" y="360" type="line"/>
      <point x="215" y="470" type="line" smooth="yes"/>
      <point x="232" y="504"/>
      <point x="264" y="559"/>
      <point x="264" y="610" type="curve" smooth="yes"/>
      <point x="264" y="684"/>
      <point x="216" y="728"/>
      <point x="150" y="728" type="curve" smooth="yes"/>
      <point x="84" y="728"/>
      <point x="40" y="681"/>
      <point x="40" y="618" type="curve" smooth="yes"/>
      <point x="40" y="563"/>
      <point x="72" y="540"/>
    </contour>
  </outline>
</glyph>
<glyph name="quotesinglbase" format="1">
  <advance width="300"/>
  <unicode hex="201A"/>
  <outline>
    <contour>
      <point x="101" y="6" type="curve" name="hr00"/>
      <point x="8" y="-153" type="line"/>
      <point x="8" y="-160" type="line"/>
      <point x="161" y="-160" type="line"/>
      <point x="215" y="-50" type="line" smooth="yes"/>
      <point x="232" y="-16"/>
      <point x="264" y="39"/>
      <point x="264" y="90" type="curve" smooth="yes"/>
      <point x="264" y="164"/>
      <point x="216" y="208"/>
      <point x="150" y="208" type="curve" smooth="yes"/>
      <point x="84" y="208"/>
      <point x="40" y="161"/>
      <point x="40" y="98" type="curve" smooth="yes"/>
      <point x="40" y="43"/>
      <point x="72" y="20"/>
    </contour>
  </outline>
</glyph>
